<svg xmlns="http://www.w3.org/2000/svg" xmlns:xlink="http://www.w3.org/1999/xlink" width="952.648" height="510.105" viewBox="0 0 952.648 510.105">
  <defs>
    <linearGradient id="linear-gradient" x1="0.5" x2="0.5" y2="1" gradientUnits="objectBoundingBox">
      <stop offset="0" stop-color="#fff"/>
      <stop offset="1" stop-color="#76bbee" stop-opacity="0"/>
    </linearGradient>
  </defs>
  <g id="Group_3097" data-name="Group 3097" transform="translate(-2.445 -12.634)">
    <path id="Path_12070" data-name="Path 12070" d="M1036.106,594.265A190.159,190.159,0,0,0,907.331,354.629,115.943,115.943,0,0,0,768.484,198.974,242.619,242.619,0,0,0,562.141,84.16c-112.658,0-207.382,76.733-234.79,180.784C196.786,268.97,92.175,376.065,92.175,507.607a242.193,242.193,0,0,0,15.941,86.658Z" transform="translate(-89.73 -71.526)" fill="url(#linear-gradient)"/>
    <path id="Path_12071" data-name="Path 12071" d="M925.7,474.981l.024-.067c.017-.043.032-.087.047-.129.064-.175.127-.352.188-.529.016-.043.029-.086.043-.129.06-.179.121-.357.177-.536.013-.043.028-.086.042-.129l0-.009c.014-.049.03-.1.045-.143.034-.112.068-.222.1-.333.007-.02.012-.04.019-.06a.532.532,0,0,1,.019-.06c.032-.112.064-.222.1-.332.012-.05.026-.1.04-.146l0-.012c.011-.043.024-.084.035-.127.05-.182.1-.365.143-.549.011-.043.022-.087.034-.129.044-.182.088-.365.129-.549.01-.043.02-.088.029-.132.005-.025.012-.048.018-.073l3.446-.3,2.581-.221a20.538,20.538,0,0,0,.509-5.977l-2.507-.657-3.346-.874a.194.194,0,0,0,0-.037c0-.047-.005-.092-.006-.138-.01-.188-.022-.374-.036-.563,0-.046-.006-.091-.01-.135-.014-.188-.03-.378-.048-.566,0-.04-.007-.078-.012-.117-.009-.082-.016-.166-.025-.248s-.017-.168-.027-.251l-.014-.116c-.022-.188-.046-.377-.071-.563-.006-.046-.012-.09-.018-.133-.026-.188-.056-.374-.085-.56l-.022-.134c0-.012,0-.026-.007-.039l3.084-1.553,2.32-1.168a20.624,20.624,0,0,0-.664-2.933,20.313,20.313,0,0,0-1.084-2.805l-2.577.324-3.425.431c-.009-.022-.021-.044-.031-.067-.019-.041-.039-.083-.058-.124-.078-.17-.159-.339-.24-.507l-.06-.123c-.083-.168-.167-.336-.254-.5l-.062-.121-.005-.009c-.023-.043-.044-.088-.068-.131-.054-.1-.109-.2-.165-.308-.01-.017-.019-.036-.029-.054s-.02-.038-.032-.056l-.072-.132c-.031-.057-.062-.114-.094-.17l-.074-.133-.006-.007-.066-.117c-.093-.164-.188-.328-.285-.488-.024-.04-.046-.078-.07-.116-.1-.16-.2-.319-.3-.478-.023-.04-.048-.078-.074-.116-.012-.021-.025-.041-.039-.062l2.228-2.646,1.668-1.981a20.684,20.684,0,0,0-3.866-4.587l-2.236,1.309-2.987,1.749-.027-.026c-.034-.03-.069-.06-.1-.091-.14-.125-.281-.25-.423-.374-.034-.029-.068-.059-.1-.088-.144-.123-.288-.246-.434-.367-.029-.024-.059-.05-.091-.074-.063-.053-.128-.105-.193-.16l-.2-.157-.09-.071c-.15-.119-.3-.234-.451-.35-.036-.026-.071-.053-.105-.081-.151-.113-.3-.225-.455-.336-.036-.026-.074-.053-.11-.08l-.031-.022,1.083-3.278.813-2.466a20.606,20.606,0,0,0-5.294-2.822l-1.594,2.05-2.117,2.727-.067-.024-.127-.047c-.177-.065-.355-.129-.532-.19-.043-.015-.084-.029-.125-.042-.178-.062-.359-.121-.54-.179-.041-.014-.084-.027-.126-.04l-.012,0c-.049-.014-.1-.03-.143-.045-.112-.034-.222-.068-.333-.1l-.06-.019a.6.6,0,0,1-.058-.017l-.333-.1-.147-.04-.01,0-.129-.036c-.182-.05-.365-.1-.547-.142-.044-.012-.088-.024-.132-.033-.181-.047-.364-.09-.547-.13l-.135-.031-.069-.016-.3-3.448-.223-2.579a20.534,20.534,0,0,0-5.977-.509l-.656,2.507-.874,3.345-.04,0c-.046,0-.09,0-.135.008-.188.009-.378.02-.566.035l-.133.009-.568.049-.115.011-.25.026-.251.027-.112.014c-.19.022-.38.047-.569.072l-.129.016-.564.086-.129.02-.039.007-1.553-3.084-1.168-2.32a20.454,20.454,0,0,0-2.933.664,20.665,20.665,0,0,0-2.805,1.084l.324,2.577.43,3.425c-.022.012-.044.021-.068.032l-.122.057c-.17.078-.34.158-.509.241-.04.02-.081.039-.12.058-.169.085-.339.169-.507.257-.038.02-.078.04-.116.06l-.013.006c-.043.023-.088.046-.132.07-.1.052-.2.109-.306.163l-.05.028,0,0c-.019.009-.037.019-.057.03-.1.054-.2.11-.3.167-.045.025-.089.05-.132.075l-.01,0c-.037.022-.075.043-.115.065l-.488.287-.115.07c-.162.1-.322.2-.48.3l-.115.073-.064.038-2.645-2.227-1.981-1.667a20.452,20.452,0,0,0-4.587,3.866l1.306,2.234,1.749,2.987-.027.03c-.029.032-.058.064-.087.1-.128.141-.253.282-.377.426-.029.033-.057.067-.087.1-.123.143-.247.289-.368.436l-.073.089c-.054.064-.106.13-.16.195l-.158.2-.071.088c-.119.15-.234.3-.35.453l-.079.1c-.116.152-.228.3-.339.458-.025.035-.052.071-.077.107-.008.011-.017.022-.025.031l-3.278-1.082-2.466-.813a20.584,20.584,0,0,0-2.822,5.294l2.05,1.594,2.727,2.117-.024.067c-.017.043-.033.087-.049.131-.064.175-.126.35-.188.527-.015.043-.03.087-.044.13-.061.177-.119.356-.176.536-.016.042-.029.085-.042.129l0,.009c-.016.048-.031.1-.047.146-.033.111-.067.221-.1.332l-.016.057c-.007.019-.013.042-.019.061l-.1.333c-.013.05-.026.1-.04.144a.076.076,0,0,1,0,.014c-.01.041-.022.083-.034.126q-.076.274-.143.55l-.033.128c-.045.182-.088.367-.13.55l-.029.13c-.007.024-.012.048-.017.073l-3.447.3-2.579.222a20.611,20.611,0,0,0-.51,5.978l2.508.655,3.346.874c0,.014,0,.026,0,.04,0,.046,0,.09.007.136.011.188.021.376.036.564,0,.043.007.089.01.134q.022.281.047.567c0,.037.008.076.011.115.009.085.017.168.025.252s.02.166.028.25c.005.038.009.075.014.112.022.19.047.381.072.569.006.043.011.085.018.127.026.189.055.378.085.566.007.043.013.085.021.129a.354.354,0,0,0,.006.039l-3.084,1.553-2.32,1.168a20.672,20.672,0,0,0,1.749,5.739l2.578-.324,3.424-.429c.012.022.021.043.032.067.019.041.039.081.057.122.078.17.158.34.241.509.02.04.039.081.06.121q.124.254.254.506c.02.039.039.078.061.119l0,.009.071.134.163.307c.01.017.021.034.03.053l.029.056.074.134.1.171c.023.043.049.086.073.129l.007.012.063.112c.1.166.191.331.289.494l.067.111c.1.163.2.323.3.484l.071.111c.015.022.026.043.04.064l-2.227,2.645-1.668,1.981a20.457,20.457,0,0,0,3.866,4.587l2.235-1.306,2.987-1.749a.29.29,0,0,0,.029.025c.033.031.067.061.1.091.14.126.281.252.425.376l.1.086c.145.124.29.246.436.368l.089.073.2.161.2.157.088.071c.15.119.3.235.454.351l.1.078c.152.115.3.228.458.34l.107.076.032.025-1.083,3.278-.813,2.466a20.587,20.587,0,0,0,5.294,2.822l1.594-2.05,2.118-2.727.068.025.131.049c.176.064.35.126.526.187l.131.045c.178.06.356.119.536.177.043.013.086.026.13.043h.005l.147.045c.109.035.219.068.331.1l.057.017.064.019.332.1.145.041.012,0,.124.033q.277.077.553.145l.125.032c.184.046.368.09.552.131l.13.029c.024.007.05.013.074.018l.3,3.446.221,2.581a20.687,20.687,0,0,0,5.977.509l.657-2.507.874-3.346a.323.323,0,0,0,.038,0l.14-.007c.186-.01.372-.021.56-.036.045,0,.091-.005.138-.01.186-.015.374-.029.563-.047l.117-.012.25-.024.25-.028.115-.015c.19-.021.377-.046.566-.071l.132-.017c.187-.027.374-.055.56-.084l.133-.022.039-.007,1.553,3.084,1.167,2.32a20.588,20.588,0,0,0,5.739-1.749l-.325-2.577-.431-3.425.064-.03c.043-.019.087-.039.129-.06.168-.079.337-.158.5-.238l.126-.063c.167-.082.333-.166.5-.253.042-.02.083-.043.123-.064l0,0,.138-.073.3-.161.057-.03a.551.551,0,0,1,.055-.03c.1-.057.2-.112.3-.169l.13-.072.012-.008c.038-.02.075-.043.114-.065.164-.093.329-.19.491-.286.037-.023.076-.045.114-.067l.481-.3.114-.071.062-.041,2.645,2.228,1.984,1.668a20.674,20.674,0,0,0,4.587-3.865l-1.309-2.236-1.749-2.987c.009-.009.017-.018.025-.028.031-.034.061-.068.093-.1.125-.14.25-.281.373-.423l.09-.1c.122-.143.244-.288.364-.432.025-.032.05-.06.075-.092l.16-.195.157-.2.071-.09c.119-.149.234-.3.35-.451.027-.036.054-.07.081-.106.114-.151.226-.3.336-.454.026-.038.053-.074.08-.111l.022-.03,3.278,1.082,2.467.814a20.634,20.634,0,0,0,2.821-5.294l-2.05-1.594Zm-14.069-2.934a16.662,16.662,0,1,1-.122-15.9A16.665,16.665,0,0,1,911.633,472.047Z" transform="translate(-179.765 -87.48)" fill="#1292f8"/>
    <g id="Group_3043" data-name="Group 3043" transform="translate(207.132 231.613)">
      <rect id="Rectangle_902" data-name="Rectangle 902" width="154.35" height="68.708" transform="translate(45.812 0) rotate(41.818)" fill="#addfe0"/>
      <rect id="Rectangle_903" data-name="Rectangle 903" width="63.277" height="148.919" transform="matrix(-0.667, 0.745, -0.745, -0.667, 157.01, 103.129)" fill="#d0f1f2"/>
      <path id="Path_12072" data-name="Path 12072" d="M372.011,431.62l28.764-32.151A6,6,0,0,1,400.3,391l-95.976-85.868a6,6,0,0,1-8.466.471L267.1,337.757a6,6,0,0,1,.471,8.465l95.977,85.868A6,6,0,0,1,372.011,431.62Z" transform="translate(-253.515 -291.552)" fill="#90d2d4"/>
      <path id="Path_12073" data-name="Path 12073" d="M362.356,394.059a38.552,38.552,0,0,1-11.957,9.1c-8.968,4.3-18.52,4.083-24.733-1.477s-7.5-15.032-4.208-24.417a39.585,39.585,0,0,1,19.674-21.99c8.963-4.307,18.515-4.087,24.733,1.476s7.49,15.027,4.208,24.418A38.539,38.539,0,0,1,362.356,394.059Z" transform="translate(-265.341 -302.153)" fill="#d0f1f2"/>
      <circle id="Ellipse_374" data-name="Ellipse 374" cx="9.097" cy="9.097" r="9.097" transform="matrix(0.905, -0.425, 0.425, 0.905, 104.35, 104.927)" fill="#addfe0"/>
      <circle id="Ellipse_375" data-name="Ellipse 375" cx="9.097" cy="9.097" r="9.097" transform="translate(33.478 34.55) rotate(-1.486)" fill="#addfe0"/>
      <path id="Path_12074" data-name="Path 12074" d="M362.865,394.926a38.552,38.552,0,0,1-11.957,9.1l-28.942-25.894a39.585,39.585,0,0,1,19.674-21.99l28.942,25.894A38.539,38.539,0,0,1,362.865,394.926Z" transform="translate(-265.851 -303.02)" fill="#addfe0"/>
      <g id="Group_3042" data-name="Group 3042" transform="translate(69.84 66.329)">
        <path id="Path_12075" data-name="Path 12075" d="M340.208,391.967l2.083-2.329a9.017,9.017,0,0,1-2.619-4.172l1.935-1.048a8.274,8.274,0,0,0,2.435,3.963c1.637,1.464,3.59,1.508,4.766.193,1.135-1.268.937-2.857-.151-5.076-1.526-3.025-2.029-5.386-.235-7.392,1.712-1.915,4.372-2.151,6.8-.6l2.083-2.328,1.431,1.28-2,2.236a8.244,8.244,0,0,1,2.274,3.488l-1.938,1.006a7.482,7.482,0,0,0-2.2-3.383c-1.776-1.589-3.394-1.126-4.218-.2-1.073,1.2-.757,2.561.508,5.187,1.508,3.094,1.634,5.365-.2,7.418-1.629,1.821-4.424,2.394-7.15.661l-2.146,2.4Z" transform="translate(-339.672 -373.18)" fill="#90d2d4"/>
      </g>
    </g>
    <g id="Group_3045" data-name="Group 3045" transform="translate(590.361 242.472)">
      <rect id="Rectangle_904" data-name="Rectangle 904" width="154.35" height="68.708" transform="matrix(0.945, -0.327, 0.327, 0.945, 0, 50.463)" fill="#addfe0"/>
      <rect id="Rectangle_905" data-name="Rectangle 905" width="63.277" height="148.919" transform="translate(144.19 3.454) rotate(70.917)" fill="#d0f1f2"/>
      <path id="Path_12076" data-name="Path 12076" d="M904.768,359.764,890.663,319a6,6,0,0,1-7.625-3.705l-121.7,42.1a6,6,0,0,1-3.705,7.625l14.1,40.769a6,6,0,0,1,7.626,3.705l121.7-42.1A6,6,0,0,1,904.768,359.764Z" transform="translate(-747.032 -304.694)" fill="#90d2d4"/>
      <path id="Path_12077" data-name="Path 12077" d="M866.837,360.245a38.564,38.564,0,0,1,2.135,14.872c-.6,9.928-5.439,18.168-13.318,20.894s-16.78-.761-23.382-8.2a39.588,39.588,0,0,1-9.647-27.884c.6-9.927,5.433-18.166,13.318-20.894s16.773.764,23.382,8.2A38.554,38.554,0,0,1,866.837,360.245Z" transform="translate(-761.63 -309.826)" fill="#d0f1f2"/>
      <path id="Path_12078" data-name="Path 12078" d="M900.238,356a9.1,9.1,0,1,1,11.571,5.623A9.1,9.1,0,0,1,900.238,356Z" transform="translate(-778.983 -311.133)" fill="#addfe0"/>
      <circle id="Ellipse_376" data-name="Ellipse 376" cx="9.097" cy="9.097" r="9.097" transform="translate(27.371 65.101)" fill="#addfe0"/>
      <path id="Path_12079" data-name="Path 12079" d="M866.837,362.89a38.564,38.564,0,0,1,2.135,14.872l-36.7,12.7a39.588,39.588,0,0,1-9.647-27.884l36.7-12.7A38.555,38.555,0,0,1,866.837,362.89Z" transform="translate(-761.63 -312.471)" fill="#addfe0"/>
      <g id="Group_3044" data-name="Group 3044" transform="translate(76.175 45.687)">
        <path id="Path_12080" data-name="Path 12080" d="M852.372,385.265l-1.022-2.953a9.005,9.005,0,0,1-4.919.26l.025-2.2a8.27,8.27,0,0,0,4.647-.2c2.076-.719,3.063-2.4,2.487-4.07-.557-1.608-2.04-2.208-4.508-2.336-3.386-.138-5.694-.846-6.574-3.39-.84-2.428.247-4.866,2.786-6.235l-1.022-2.953,1.815-.628.981,2.836a8.244,8.244,0,0,1,4.154-.291l-.063,2.183a7.468,7.468,0,0,0-4.028.281c-2.253.779-2.635,2.418-2.23,3.587.526,1.52,1.87,1.907,4.78,2.079,3.437.186,5.482,1.181,6.382,3.784.8,2.309-.059,5.03-2.9,6.57l1.052,3.04Z" transform="translate(-842.227 -360.56)" fill="#90d2d4"/>
      </g>
    </g>
    <g id="Group_3047" data-name="Group 3047" transform="translate(563.198 173.056)">
      <rect id="Rectangle_906" data-name="Rectangle 906" width="154.35" height="68.708" transform="translate(0 113.892) rotate(-47.551)" fill="#addfe0"/>
      <rect id="Rectangle_907" data-name="Rectangle 907" width="63.277" height="148.919" transform="matrix(0.738, 0.675, -0.675, 0.738, 104.346, 3.837)" fill="#d0f1f2"/>
      <path id="Path_12081" data-name="Path 12081" d="M853.731,258.78,821.9,229.664a6,6,0,0,1-8.47.378L726.51,325.067a5.994,5.994,0,0,1,.378,8.469l31.832,29.117a5.994,5.994,0,0,1,8.469-.378l86.919-95.026A6,6,0,0,1,853.731,258.78Z" transform="translate(-712.872 -216.026)" fill="#90d2d4"/>
      <path id="Path_12082" data-name="Path 12082" d="M816.054,291.433a38.549,38.549,0,0,1,8.966,12.056c4.2,9.015,3.878,18.564-1.749,24.715s-15.113,7.329-24.462,3.939a39.587,39.587,0,0,1-21.772-19.914c-4.208-9.011-3.883-18.559,1.749-24.715s15.109-7.325,24.462-3.94A38.559,38.559,0,0,1,816.054,291.433Z" transform="translate(-723.59 -227.728)" fill="#d0f1f2"/>
      <path id="Path_12083" data-name="Path 12083" d="M842.127,273.5a9.1,9.1,0,1,1,12.852-.573A9.1,9.1,0,0,1,842.127,273.5Z" transform="translate(-738.202 -222.328)" fill="#addfe0"/>
      <path id="Path_12084" data-name="Path 12084" d="M756.09,367.563a9.1,9.1,0,1,1,12.852-.573A9.1,9.1,0,0,1,756.09,367.563Z" transform="translate(-718.858 -243.476)" fill="#addfe0"/>
      <path id="Path_12085" data-name="Path 12085" d="M816.882,291.974a38.55,38.55,0,0,1,8.966,12.056l-26.211,28.655a39.587,39.587,0,0,1-21.772-19.914l26.211-28.656A38.559,38.559,0,0,1,816.882,291.974Z" transform="translate(-724.419 -228.268)" fill="#addfe0"/>
      <g id="Group_3046" data-name="Group 3046" transform="translate(66.783 71.334)">
        <path id="Path_12086" data-name="Path 12086" d="M813.668,323.027l-2.305-2.108a9.014,9.014,0,0,1-4.2,2.574l-1.027-1.946a8.264,8.264,0,0,0,3.99-2.391c1.483-1.622,1.548-3.574.246-4.763-1.256-1.149-2.846-.968-5.077.095-3.042,1.493-5.408,1.971-7.4.154-1.9-1.734-2.1-4.4-.523-6.81l-2.305-2.108,1.3-1.416,2.215,2.025a8.237,8.237,0,0,1,3.513-2.236l.984,1.949a7.474,7.474,0,0,0-3.406,2.167c-1.609,1.758-1.164,3.381-.251,4.216,1.187,1.085,2.553.784,5.193-.451,3.11-1.474,5.382-1.574,7.414.285,1.8,1.649,2.346,4.449.583,7.157l2.374,2.171Z" transform="translate(-795.07 -304.095)" fill="#90d2d4"/>
      </g>
    </g>
    <g id="Group_3049" data-name="Group 3049" transform="translate(167.219 301.743)">
      <rect id="Rectangle_908" data-name="Rectangle 908" width="154.35" height="68.708" transform="matrix(0.977, 0.211, -0.211, 0.977, 14.507, 0)" fill="#addfe0"/>
      <rect id="Rectangle_909" data-name="Rectangle 909" width="63.277" height="148.919" transform="translate(162.15 34.671) rotate(102.189)" fill="#d0f1f2"/>
      <path id="Path_12087" data-name="Path 12087" d="M347.727,466.611l9.108-42.167a6,6,0,0,1-4.594-7.126L226.363,390.126a6,6,0,0,1-7.126,4.594l-9.109,42.167a6,6,0,0,1,4.594,7.126L340.6,471.2A6,6,0,0,1,347.727,466.611Z" transform="translate(-200.793 -380.791)" fill="#90d2d4"/>
      <path id="Path_12088" data-name="Path 12088" d="M319.941,438.47a38.556,38.556,0,0,1-5.9,13.82c-5.669,8.173-14.08,12.7-22.229,10.944s-13.946-9.361-15.73-19.143a39.59,39.59,0,0,1,6.23-28.841c5.663-8.175,14.074-12.707,22.229-10.945s13.94,9.359,15.73,19.144A38.544,38.544,0,0,1,319.941,438.47Z" transform="translate(-215.49 -383.893)" fill="#d0f1f2"/>
      <circle id="Ellipse_377" data-name="Ellipse 377" cx="9.097" cy="9.097" r="9.097" transform="matrix(0.962, -0.273, 0.273, 0.962, 118.707, 53.815)" fill="#addfe0"/>
      <circle id="Ellipse_378" data-name="Ellipse 378" cx="9.097" cy="9.097" r="9.097" transform="translate(21.815 33.533) rotate(-18.774)" fill="#addfe0"/>
      <path id="Path_12089" data-name="Path 12089" d="M319.941,441.754a38.556,38.556,0,0,1-5.9,13.82l-37.959-8.2a39.59,39.59,0,0,1,6.23-28.841l37.959,8.2A38.544,38.544,0,0,1,319.941,441.754Z" transform="translate(-215.49 -387.177)" fill="#addfe0"/>
      <g id="Group_3048" data-name="Group 3048" transform="translate(74.259 37.059)">
        <path id="Path_12090" data-name="Path 12090" d="M297.563,450.674l.66-3.053a9,9,0,0,1-4.339-2.332l1.164-1.867a8.264,8.264,0,0,0,4.076,2.242c2.147.464,3.866-.464,4.239-2.188.359-1.664-.6-2.946-2.641-4.337-2.822-1.875-4.428-3.678-3.859-6.31.542-2.511,2.736-4.031,5.618-3.884l.66-3.054,1.877.405-.634,2.933a8.245,8.245,0,0,1,3.7,1.908L306.9,432.97a7.465,7.465,0,0,0-3.587-1.851c-2.33-.5-3.507.7-3.768,1.908-.34,1.572.608,2.6,3.005,4.258,2.841,1.943,4.073,3.856,3.491,6.547-.516,2.389-2.662,4.268-5.888,4.11l-.68,3.145Z" transform="translate(-293.883 -425.89)" fill="#90d2d4"/>
      </g>
    </g>
    <path id="Path_12091" data-name="Path 12091" d="M749.539,561.834H316.431a14.493,14.493,0,0,1-14.493-14.492h0a14.493,14.493,0,0,1,14.493-14.493H749.539a14.493,14.493,0,0,1,14.493,14.493h0A14.493,14.493,0,0,1,749.539,561.834Z" transform="translate(-54.216 -111.137)" fill="#1292f8"/>
    <g id="Group_3050" data-name="Group 3050" transform="translate(60.801 84.863)">
      <path id="Path_12092" data-name="Path 12092" d="M119.594,122.793A61.161,61.161,0,0,0,60.8,167.116H178.387A61.16,61.16,0,0,0,119.594,122.793Z" transform="translate(-60.801 -103.805)" fill="#76bbee"/>
      <path id="Path_12093" data-name="Path 12093" d="M326.514,122.793a61.161,61.161,0,0,0-58.793,44.323H385.307A61.16,61.16,0,0,0,326.514,122.793Z" transform="translate(-107.324 -103.805)" fill="#76bbee"/>
      <path id="Path_12094" data-name="Path 12094" d="M220.627,98.3a87.362,87.362,0,0,0-83.98,63.311h167.96A87.362,87.362,0,0,0,220.627,98.3Z" transform="translate(-77.854 -98.298)" fill="#76bbee"/>
    </g>
    <g id="Group_3051" data-name="Group 3051" transform="translate(92.709 130.085)">
      <path id="Path_12095" data-name="Path 12095" d="M138.282,171.767a37.78,37.78,0,0,0-36.318,27.38H174.6A37.78,37.78,0,0,0,138.282,171.767Z" transform="translate(-101.964 -160.038)" fill="#fff"/>
      <path id="Path_12096" data-name="Path 12096" d="M266.1,171.767a37.781,37.781,0,0,0-36.319,27.38H302.42A37.781,37.781,0,0,0,266.1,171.767Z" transform="translate(-130.702 -160.038)" fill="#fff"/>
      <path id="Path_12097" data-name="Path 12097" d="M200.692,156.636a53.966,53.966,0,0,0-51.876,39.109H252.569A53.965,53.965,0,0,0,200.692,156.636Z" transform="translate(-112.498 -156.636)" fill="#fff"/>
    </g>
    <g id="Group_3052" data-name="Group 3052" transform="translate(668.821 174.557)">
      <path id="Path_12098" data-name="Path 12098" d="M893.516,234.146a50.286,50.286,0,0,0-48.34,36.443h96.679A50.286,50.286,0,0,0,893.516,234.146Z" transform="translate(-845.176 -218.535)" fill="#76bbee"/>
      <path id="Path_12099" data-name="Path 12099" d="M1063.645,234.146a50.286,50.286,0,0,0-48.34,36.443h96.679A50.286,50.286,0,0,0,1063.645,234.146Z" transform="translate(-883.427 -218.535)" fill="#76bbee"/>
      <path id="Path_12100" data-name="Path 12100" d="M976.585,214.007a71.828,71.828,0,0,0-69.048,52.054h138.1A71.827,71.827,0,0,0,976.585,214.007Z" transform="translate(-859.197 -214.007)" fill="#76bbee"/>
    </g>
    <g id="Group_3053" data-name="Group 3053" transform="translate(629.685 74.422)">
      <path id="Path_12101" data-name="Path 12101" d="M825.925,97.842a32.5,32.5,0,0,0-31.237,23.548h62.473A32.494,32.494,0,0,0,825.925,97.842Z" transform="translate(-794.688 -87.754)" fill="#76bbee"/>
      <path id="Path_12102" data-name="Path 12102" d="M935.858,97.842a32.494,32.494,0,0,0-31.236,23.548h62.473A32.494,32.494,0,0,0,935.858,97.842Z" transform="translate(-819.405 -87.754)" fill="#76bbee"/>
      <path id="Path_12103" data-name="Path 12103" d="M879.6,84.828a46.414,46.414,0,0,0-44.617,33.636H924.22A46.415,46.415,0,0,0,879.6,84.828Z" transform="translate(-803.748 -84.828)" fill="#76bbee"/>
    </g>
    <g id="Group_3054" data-name="Group 3054" transform="translate(174.042 322.558)">
      <path id="Path_12104" data-name="Path 12104" d="M299.85,443.666a96.707,96.707,0,0,0-92.963,70.084H392.814A96.706,96.706,0,0,0,299.85,443.666Z" transform="translate(-206.887 -413.643)" fill="#1292f8"/>
      <path id="Path_12105" data-name="Path 12105" d="M627.029,443.666a96.706,96.706,0,0,0-92.963,70.084H719.992A96.707,96.707,0,0,0,627.029,443.666Z" transform="translate(-280.448 -413.643)" fill="#1292f8"/>
      <path id="Path_12106" data-name="Path 12106" d="M459.6,404.935A138.136,138.136,0,0,0,326.814,505.041H592.39A138.135,138.135,0,0,0,459.6,404.935Z" transform="translate(-233.851 -404.935)" fill="#1292f8"/>
    </g>
    <g id="Group_3056" data-name="Group 3056" transform="translate(393.814 207.141)">
      <path id="Path_12107" data-name="Path 12107" d="M660.314,341a84.955,84.955,0,0,1-169.885,2.078c-.019-.691-.025-1.381-.025-2.078a84.957,84.957,0,0,1,169.527-8.1Q660.308,336.9,660.314,341Z" transform="translate(-490.404 -256.042)" fill="#ff8c87"/>
      <g id="Group_3055" data-name="Group 3055" transform="translate(0 7.744)">
        <path id="Path_12108" data-name="Path 12108" d="M607.63,339.106l-3.139,4.6-6.068,5.231s-.873,8.789-1.692,9.417,3.156,5.231,3.156,5.231l2.237,5.649,6.761.837,7.951-2.092,8.789.628,3.557,1.464-3.348,6.277,5.649,8.58-3.139,9.416,2.3,8.788,2.93,7.742s-1.256,3.766,0,3.766h6.277l12.345-9.207V394.975s7.324-8.789,7.742-9.416,2.929-10.044,2.929-10.044l6.7-7.742-3.139-5.022-5.232-1.464-8.579-12.346-2.929-7.323-7.952-2.512-6.068,3.348-3.348-3.348-3.348-3.139-1.674-2.72-9.416,2.929-6.277-.419Z" transform="translate(-514.285 -281.144)" fill="#ffa5a1"/>
        <path id="Path_12109" data-name="Path 12109" d="M529.012,375.9l-5.649,7.638,2.825,13.915,5.545,4.394,7.532,6.068,2.93,10.881,9,12.973s3.766,9,4.812,9.416,5.859,4.6,5.859,4.6l8.37-.837v-2.72s-6.487-6.7-6.905-7.533-.209-9.416,0-10.462,5.441-10.044,5.441-10.044L567.3,407.7s4.6-6.277,4.6-7.324a56.726,56.726,0,0,0-1.047-5.649l-1.256-7.893-10.671-3.3-7.952.942-3.348-5.022-8.789-1.046Z" transform="translate(-497.814 -290.734)" fill="#ffa5a1"/>
        <path id="Path_12110" data-name="Path 12110" d="M675.1,334.965l-3.553,1.676,6.064,5.857-6.064,5.649h-5.443l-4.394-9-5.649-5.022-4.394-3.559,7.112-6.485-7.112-1.883-3.56-2.725s-5.436,0-7.74,1.469-5.3-2.3-5.3-2.3l-7.049-3.139-3.767.835-4.808,4.815h-6.07l-2.511,2.932-5.442-3.98,4.608-4.6h7.533l1.462-2.3-2.718-.835-.213-2.3,3.559-1.256-3.766-3.346-2.932.835h-3.973v-2.091l6.278-3.767,5.649,5.857H623l2.931-2.719,2.932.836,5.229,1.883,5.022-1.042s6.07-5.65,6.07-6.277-2.931-2.1-2.931-2.1h-3.56c-.628,0,1.676-5.229,1.676-5.229l-5.3,2.718s.484,3.767,0,4.608a12.5,12.5,0,0,1-2.862,2.3s-4.815-3.553-5.443-2.925-2.925,0-2.925,0l-1.884-3.56,5.022-1.256,2.511-3.766,9-5.65s4.187.628,5.649,1.463a15.969,15.969,0,0,0,4.394,1.256l-3.139,3.352,2.932,3.346h5.229l8.368-3.346,1.256-1a84.641,84.641,0,0,1,22.617,50.031l-2.529-.9Z" transform="translate(-516.264 -270.099)" fill="#ffa5a1"/>
        <path id="Path_12111" data-name="Path 12111" d="M535.833,322.467c0,1.256-3.353,5.442-3.353,5.442l-5.228,2.511-6.07,5.857-1.043,10.251-1.468,5.442h-4.6l-2.3-4.187-4.394-1.256-4.181,3.98.628,4.18s5.229,3.559,5.436,4.394,1.256,3.352,1.256,3.352l5.442,2.719v2.931l-11.092-5.863-11.714-3.139-2.718-5.87c-.019-.691-.025-1.381-.025-2.078a84.572,84.572,0,0,1,15.969-49.591l.584-.421,4.915,3.973v3.98l-2.825,2.511-5.022,1.67v1.884l5.442-.628,4.18-2.091,4.394-3.346H521.6l-2.931,2.718-5.022,5.442-3.346,4.6,1.569,3.346,3.032-1.463.213,2.3,2.091,2.718,2.931-5.649,1.256-5.649,4.6-2.719,2.719,1.256h5.235S535.833,321.212,535.833,322.467Z" transform="translate(-490.404 -273.922)" fill="#ffa5a1"/>
        <path id="Path_12112" data-name="Path 12112" d="M538.847,287.585h4.394v3.976l2.3,1.674.837,9.835h3.976l2.929-5.859,6.277-7.533,4.6-3.139,7.742-5.65,1.046-7.324,5.022-5.859-4.6-1.674L569.4,267.5l-10.985,5.231-6.382,1.883-6.905,3.557-11.3,3.139-5.65,3.243v4.917l-4.813,3.766,5.65.837,3.766-3.139,3.348-3.766Z" transform="translate(-497.814 -266.032)" fill="#ffa5a1"/>
      </g>
    </g>
    <g id="Group_3057" data-name="Group 3057" transform="translate(381.631 285.467)">
      <path id="Path_12113" data-name="Path 12113" d="M638.983,514.846H512.464L492.025,365.638h167.4Z" transform="translate(-478.585 -359.009)" fill="#3c3f57"/>
      <rect id="Rectangle_910" data-name="Rectangle 910" width="194.277" height="37.705" rx="9.256" fill="#3c3f57"/>
    </g>
    <g id="Group_3069" data-name="Group 3069" transform="translate(351.735 260.745)">
      <g id="Group_3058" data-name="Group 3058" transform="translate(0.155 0)">
        <path id="Path_12114" data-name="Path 12114" d="M438.022,505.753a1.7,1.7,0,0,1-1.7-1.7V326.9a1.7,1.7,0,1,1,3.4,0V504.05A1.7,1.7,0,0,1,438.022,505.753Z" transform="translate(-436.32 -325.194)" fill="#292b3b"/>
      </g>
      <g id="Group_3059" data-name="Group 3059" transform="translate(27.237 0)">
        <path id="Path_12115" data-name="Path 12115" d="M472.959,505.753a1.7,1.7,0,0,1-1.7-1.7V326.9a1.7,1.7,0,0,1,3.4,0V504.05A1.7,1.7,0,0,1,472.959,505.753Z" transform="translate(-471.257 -325.194)" fill="#292b3b"/>
      </g>
      <g id="Group_3060" data-name="Group 3060" transform="translate(0 18.392)">
        <path id="Path_12116" data-name="Path 12116" d="M463.527,352.635H437.977a1.857,1.857,0,1,1,0-3.715h25.549a1.857,1.857,0,1,1,0,3.715Z" transform="translate(-436.12 -348.92)" fill="#292b3b"/>
      </g>
      <g id="Group_3061" data-name="Group 3061" transform="translate(0 36.146)">
        <path id="Path_12117" data-name="Path 12117" d="M463.527,375.539H437.977a1.858,1.858,0,0,1,0-3.715h25.549a1.858,1.858,0,1,1,0,3.715Z" transform="translate(-436.12 -371.824)" fill="#292b3b"/>
      </g>
      <g id="Group_3062" data-name="Group 3062" transform="translate(0 53.902)">
        <path id="Path_12118" data-name="Path 12118" d="M463.527,398.445H437.977a1.858,1.858,0,0,1,0-3.715h25.549a1.858,1.858,0,1,1,0,3.715Z" transform="translate(-436.12 -394.73)" fill="#292b3b"/>
      </g>
      <g id="Group_3063" data-name="Group 3063" transform="translate(0 71.656)">
        <path id="Path_12119" data-name="Path 12119" d="M463.527,421.349H437.977a1.858,1.858,0,0,1,0-3.715h25.549a1.858,1.858,0,1,1,0,3.715Z" transform="translate(-436.12 -417.634)" fill="#292b3b"/>
      </g>
      <g id="Group_3064" data-name="Group 3064" transform="translate(0 89.411)">
        <path id="Path_12120" data-name="Path 12120" d="M463.527,444.254H437.977a1.858,1.858,0,0,1,0-3.715h25.549a1.858,1.858,0,1,1,0,3.715Z" transform="translate(-436.12 -440.539)" fill="#292b3b"/>
      </g>
      <g id="Group_3065" data-name="Group 3065" transform="translate(0 107.167)">
        <path id="Path_12121" data-name="Path 12121" d="M463.527,467.159H437.977a1.858,1.858,0,0,1,0-3.715h25.549a1.858,1.858,0,1,1,0,3.715Z" transform="translate(-436.12 -463.444)" fill="#292b3b"/>
      </g>
      <g id="Group_3066" data-name="Group 3066" transform="translate(0 124.922)">
        <path id="Path_12122" data-name="Path 12122" d="M463.527,490.064H437.977a1.858,1.858,0,0,1,0-3.715h25.549a1.858,1.858,0,1,1,0,3.715Z" transform="translate(-436.12 -486.349)" fill="#292b3b"/>
      </g>
      <g id="Group_3067" data-name="Group 3067" transform="translate(0 142.677)">
        <path id="Path_12123" data-name="Path 12123" d="M463.527,512.969H437.977a1.858,1.858,0,0,1,0-3.715h25.549a1.858,1.858,0,1,1,0,3.715Z" transform="translate(-436.12 -509.254)" fill="#292b3b"/>
      </g>
      <g id="Group_3068" data-name="Group 3068" transform="translate(0 160.432)">
        <path id="Path_12124" data-name="Path 12124" d="M463.527,535.874H437.977a1.858,1.858,0,0,1,0-3.715h25.549a1.858,1.858,0,1,1,0,3.715Z" transform="translate(-436.12 -532.159)" fill="#292b3b"/>
      </g>
    </g>
    <g id="Group_3070" data-name="Group 3070" transform="translate(580.574 305.967)">
      <rect id="Rectangle_911" data-name="Rectangle 911" width="30.377" height="135.337" fill="#ff6863"/>
      <rect id="Rectangle_912" data-name="Rectangle 912" width="30.377" height="106.311" transform="translate(30.437 29.026)" fill="#ff7570"/>
      <rect id="Rectangle_913" data-name="Rectangle 913" width="30.377" height="74.604" transform="translate(60.874 60.733)" fill="#ff817d"/>
      <rect id="Rectangle_914" data-name="Rectangle 914" width="30.377" height="46.484" transform="translate(91.251 88.853)" fill="#ff9591"/>
    </g>
    <g id="Group_3071" data-name="Group 3071" transform="translate(696.475 93.524)">
      <path id="Path_12125" data-name="Path 12125" d="M907.845,120.717a28.081,28.081,0,0,0-26.994,20.35h53.986A28.081,28.081,0,0,0,907.845,120.717Z" transform="translate(-880.851 -111.999)" fill="#fff"/>
      <path id="Path_12126" data-name="Path 12126" d="M1002.845,120.717a28.081,28.081,0,0,0-26.993,20.35h53.986A28.08,28.08,0,0,0,1002.845,120.717Z" transform="translate(-902.21 -111.999)" fill="#fff"/>
      <path id="Path_12127" data-name="Path 12127" d="M954.23,109.471a40.109,40.109,0,0,0-38.556,29.068h77.113A40.109,40.109,0,0,0,954.23,109.471Z" transform="translate(-888.68 -109.471)" fill="#fff"/>
    </g>
    <g id="Group_3076" data-name="Group 3076" transform="translate(383.916 38.544)">
      <line id="Line_139" data-name="Line 139" y1="144.984" transform="translate(97.319 50.7)" fill="none" stroke="#3b3e54" stroke-linecap="round" stroke-linejoin="round" stroke-width="4"/>
      <line id="Line_140" data-name="Line 140" y1="24.01" x2="24.01" transform="translate(97.319 83.968)" fill="none" stroke="#3b3e54" stroke-linecap="round" stroke-linejoin="round" stroke-width="4"/>
      <line id="Line_141" data-name="Line 141" x1="24.888" y1="24.888" transform="translate(72.431 108.535)" fill="none" stroke="#3b3e54" stroke-linecap="round" stroke-linejoin="round" stroke-width="4"/>
      <g id="Group_3072" data-name="Group 3072" transform="translate(79.023)">
        <path id="Path_12128" data-name="Path 12128" d="M603.182,38.544v87.705s18.3-19.633,18.3-43.853S603.182,38.544,603.182,38.544Z" transform="translate(-584.885 -38.544)" fill="#ff8b87"/>
        <path id="Path_12129" data-name="Path 12129" d="M579.578,82.4c0,24.219,18.3,43.853,18.3,43.853V38.544S579.578,58.177,579.578,82.4Z" transform="translate(-579.578 -38.544)" fill="#ffa9a6"/>
      </g>
      <g id="Group_3073" data-name="Group 3073" transform="translate(112.759 40.32)">
        <path id="Path_12130" data-name="Path 12130" d="M675.52,90.559,623.1,142.98s22.671-.8,37.147-15.275S675.52,90.559,675.52,90.559Z" transform="translate(-623.099 -90.559)" fill="#ff8b87"/>
        <path id="Path_12131" data-name="Path 12131" d="M638.374,105.834C623.9,120.309,623.1,142.98,623.1,142.98L675.52,90.559S652.85,91.357,638.374,105.834Z" transform="translate(-623.099 -90.559)" fill="#ffa9a6"/>
      </g>
      <g id="Group_3074" data-name="Group 3074" transform="translate(0 36.103)">
        <path id="Path_12132" data-name="Path 12132" d="M555.307,162.791,477.635,85.119s1.184,33.591,22.633,55.04S555.307,162.791,555.307,162.791Z" transform="translate(-477.635 -85.119)" fill="#ff8b87"/>
        <path id="Path_12133" data-name="Path 12133" d="M532.675,107.752c-21.449-21.449-55.04-22.632-55.04-22.632l77.672,77.672S554.124,129.2,532.675,107.752Z" transform="translate(-477.635 -85.119)" fill="#ffa9a6"/>
      </g>
      <line id="Line_142" data-name="Line 142" y1="11.906" x2="11.906" transform="translate(97.319 142.429)" fill="none" stroke="#3b3e54" stroke-linecap="round" stroke-linejoin="round" stroke-width="4"/>
      <g id="Group_3075" data-name="Group 3075" transform="translate(106.457 110.404)">
        <path id="Path_12134" data-name="Path 12134" d="M649.762,180.971l-34.793,34.793s15.047-.53,24.655-10.138S649.762,180.971,649.762,180.971Z" transform="translate(-614.969 -180.971)" fill="#ff8b87"/>
        <path id="Path_12135" data-name="Path 12135" d="M625.107,191.109c-9.608,9.608-10.138,24.655-10.138,24.655l34.793-34.793S634.715,181.5,625.107,191.109Z" transform="translate(-614.969 -180.971)" fill="#ffa9a6"/>
      </g>
    </g>
    <g id="Group_3077" data-name="Group 3077" transform="translate(449.77 225.027)">
      <path id="Path_12136" data-name="Path 12136" d="M612.83,285.6a16.184,16.184,0,0,0-15.558,11.729h31.114A16.184,16.184,0,0,0,612.83,285.6Z" transform="translate(-570.387 -280.573)" fill="#ff6863"/>
      <path id="Path_12137" data-name="Path 12137" d="M584.811,279.116a23.117,23.117,0,0,0-22.222,16.753h44.443A23.117,23.117,0,0,0,584.811,279.116Z" transform="translate(-562.589 -279.116)" fill="#ff6863"/>
    </g>
    <path id="Path_12138" data-name="Path 12138" d="M733.444,124.466l.015-.04c.01-.026.019-.052.028-.077.038-.1.075-.209.112-.313.009-.026.017-.051.026-.076.036-.107.071-.212.105-.319.008-.026.017-.05.025-.076l0-.005c.009-.029.018-.057.026-.085.02-.067.04-.132.06-.2,0-.012.007-.024.011-.036s.007-.024.011-.036c.019-.066.038-.132.057-.2.007-.029.015-.057.024-.086l0-.007c.006-.026.014-.05.02-.075.03-.109.058-.217.085-.326l.02-.077c.026-.108.052-.216.076-.325l.018-.078c0-.015.007-.029.01-.043l2.042-.175,1.529-.131a12.183,12.183,0,0,0,.3-3.542l-1.486-.388-1.983-.519a.1.1,0,0,0,0-.022c0-.028,0-.055,0-.082-.006-.111-.012-.222-.021-.333,0-.027,0-.053-.006-.08-.008-.112-.018-.224-.028-.336,0-.023,0-.046-.007-.069-.005-.049-.01-.1-.015-.147s-.01-.1-.016-.149c0-.023-.005-.046-.009-.069-.012-.112-.027-.222-.042-.333l-.011-.079c-.016-.111-.033-.221-.05-.332l-.013-.079c0-.008,0-.015,0-.023l1.828-.92,1.374-.692a12.308,12.308,0,0,0-.394-1.738,12.028,12.028,0,0,0-.643-1.662l-1.527.192-2.029.255c-.005-.013-.012-.026-.018-.04s-.023-.049-.034-.074c-.047-.1-.095-.2-.143-.3l-.036-.074c-.05-.1-.1-.2-.15-.3l-.037-.071,0-.005c-.014-.026-.026-.052-.04-.078l-.1-.182c-.006-.01-.012-.021-.018-.032s-.012-.022-.019-.033l-.043-.078-.055-.1-.044-.079,0,0-.039-.069c-.055-.1-.112-.195-.169-.289-.014-.024-.027-.047-.042-.07q-.086-.142-.174-.283c-.014-.023-.029-.046-.044-.069s-.015-.024-.023-.036l1.32-1.568.988-1.174a12.26,12.26,0,0,0-2.291-2.718l-1.325.775-1.77,1.036-.016-.016-.06-.054c-.083-.074-.166-.149-.25-.221-.021-.018-.04-.036-.061-.052q-.128-.11-.257-.218l-.054-.043-.114-.095-.117-.094-.053-.042c-.089-.071-.178-.139-.267-.207l-.063-.048-.269-.2c-.022-.015-.044-.032-.066-.047l-.019-.013.642-1.943.482-1.461a12.2,12.2,0,0,0-3.137-1.672l-.944,1.215-1.255,1.616-.04-.015-.075-.027c-.1-.039-.21-.076-.315-.112l-.074-.025c-.106-.037-.212-.072-.32-.106l-.074-.024-.007,0-.084-.026-.2-.06-.036-.011a.3.3,0,0,1-.035-.01l-.2-.057-.086-.023-.006,0-.076-.021c-.109-.03-.217-.058-.325-.084-.026-.007-.052-.014-.078-.019-.107-.028-.215-.053-.323-.078l-.08-.018-.041-.009-.175-2.043L720,96.731a12.183,12.183,0,0,0-3.542-.3l-.388,1.485-.518,1.982-.024,0-.079,0c-.112,0-.224.012-.336.02-.026,0-.053,0-.079.005l-.336.029-.068.007-.149.015-.149.016-.067.009c-.112.012-.225.027-.336.043l-.077.009-.335.051-.076.012-.023,0L712.5,98.3,711.8,96.92a12.22,12.22,0,0,0-3.4,1.036l.192,1.527.255,2.029-.04.019-.072.034c-.1.047-.2.094-.3.143l-.071.035c-.1.05-.2.1-.3.151l-.069.036-.008,0-.078.041c-.06.031-.12.064-.181.1l-.029.016h0l-.034.018-.179.1-.078.045-.005,0-.068.039-.29.17-.068.041c-.1.057-.191.116-.284.175l-.068.043-.037.022-1.567-1.319-1.174-.988a11.892,11.892,0,0,0-1.443,1.046,12.037,12.037,0,0,0-1.275,1.245l.774,1.324,1.036,1.77-.016.018-.051.057c-.076.084-.15.167-.224.253l-.05.06c-.074.085-.147.171-.219.259l-.043.053-.095.115-.094.117-.042.053c-.071.089-.139.178-.207.268l-.047.061c-.069.091-.135.181-.2.272-.014.021-.03.042-.045.063l-.015.019-1.943-.641-1.461-.482a12.224,12.224,0,0,0-1.671,3.137l1.215.944,1.615,1.255-.014.04c-.01.026-.019.052-.029.078-.039.1-.075.208-.112.312-.009.026-.018.051-.026.078-.036.1-.071.211-.1.317-.009.025-.017.05-.025.077l0,0-.028.087c-.02.065-.04.13-.059.2l-.01.034-.011.036-.057.2c-.007.029-.016.057-.023.085l0,.008c-.006.025-.013.05-.02.074-.029.109-.058.218-.085.326l-.019.076c-.026.108-.053.217-.077.326l-.017.077a.4.4,0,0,0-.011.043l-2.043.174-1.528.132a12.219,12.219,0,0,0-.3,3.543l1.486.388,1.982.518,0,.024c0,.026,0,.053,0,.081.006.111.012.222.021.334,0,.026,0,.053.006.079.008.112.018.224.028.336l.007.067c.005.05.01.1.015.15s.012.1.016.148c0,.022.005.044.009.067.012.112.027.225.043.336,0,.026.006.051.01.076.016.112.033.224.05.336l.012.076a.121.121,0,0,0,0,.023l-1.828.92-1.375.692a12.215,12.215,0,0,0,1.036,3.4l1.527-.192,2.029-.255c.007.013.012.026.019.04s.023.048.034.072c.047.1.094.2.143.3.012.024.023.048.036.072.049.1.1.2.15.3.012.022.024.047.036.07l0,.005c.013.026.028.054.042.08.032.06.064.12.1.181.006.01.012.02.018.031l.017.033.044.079c.019.034.037.068.057.1s.029.051.043.077l0,.007.037.066c.057.1.113.2.171.292.013.022.027.044.04.066.058.1.117.191.177.287.013.022.028.045.042.066s.015.026.023.038l-1.319,1.567-.988,1.174a11.9,11.9,0,0,0,1.046,1.443,12.032,12.032,0,0,0,1.245,1.275l1.324-.774,1.77-1.036.017.015.059.053q.124.113.252.223l.06.05.258.219.054.043.115.1.116.093.053.042c.089.071.179.139.269.208l.06.046c.09.069.181.136.271.2l.064.045.019.015-.641,1.943-.482,1.461a11.987,11.987,0,0,0,1.508.95,12.159,12.159,0,0,0,1.629.722l.944-1.215,1.255-1.615.04.015.078.029c.1.038.208.075.312.111l.078.026c.105.036.211.071.317.1l.077.026h0l.087.027c.065.021.13.04.2.06l.034.01.037.012.2.057.086.024.007,0,.074.019q.164.045.328.086l.074.019c.108.026.218.053.326.077l.078.017a.406.406,0,0,0,.044.011l.175,2.042.131,1.529a12.136,12.136,0,0,0,1.76.28,12.013,12.013,0,0,0,1.781.022l.388-1.486.519-1.983a.11.11,0,0,0,.022,0l.082,0c.11-.006.221-.012.333-.021l.081-.006c.111-.009.222-.017.334-.028l.069-.007.148-.015.148-.016.068-.009c.112-.012.223-.027.335-.042l.078-.011c.111-.016.222-.032.332-.05l.079-.013.023,0,.92,1.828.692,1.374a12.238,12.238,0,0,0,3.4-1.036l-.191-1.527-.256-2.029.038-.018.076-.036.3-.141.074-.037c.1-.049.2-.1.3-.15.025-.012.05-.026.074-.038h0l.081-.043.179-.1.033-.018a.272.272,0,0,1,.033-.018l.18-.1.077-.043.007,0,.067-.039c.1-.055.195-.112.291-.17l.067-.04.285-.177.067-.042.036-.024,1.567,1.319,1.175.989a12.257,12.257,0,0,0,2.718-2.291l-.775-1.325-1.036-1.77a.143.143,0,0,0,.015-.016l.055-.06c.074-.083.149-.166.221-.25l.053-.061c.073-.084.145-.171.215-.256.015-.019.03-.036.044-.055.033-.038.064-.076.1-.115l.093-.116.042-.053c.07-.088.139-.178.207-.267l.049-.063.2-.269c.016-.023.032-.044.047-.066l.013-.018,1.943.641,1.461.482a12.194,12.194,0,0,0,1.672-3.137l-1.215-.944Zm-8.336-1.738a9.873,9.873,0,1,1-.072-9.422A9.875,9.875,0,0,1,725.108,122.728Z" transform="translate(-142.526 -13.01)" fill="#1292f8"/>
    <path id="Path_12139" data-name="Path 12139" d="M315.563,486.443l.015-.04c.01-.026.019-.052.028-.078.038-.1.075-.208.112-.313.009-.025.017-.051.026-.076.036-.106.071-.212.105-.318.008-.026.016-.051.025-.077l0,0c.008-.029.018-.057.026-.085.02-.066.04-.132.059-.2,0-.012.007-.023.012-.035a.269.269,0,0,1,.011-.036c.019-.066.038-.132.056-.2.008-.029.016-.057.024-.086l0-.008c.007-.025.015-.05.021-.075.03-.108.058-.216.084-.325l.02-.077c.027-.108.052-.216.077-.326l.018-.078c0-.014.007-.028.01-.043l2.042-.175,1.529-.132a12.345,12.345,0,0,0,.281-1.759,12.028,12.028,0,0,0,.02-1.782l-1.485-.389-1.983-.518a.107.107,0,0,0,0-.022c0-.027,0-.055,0-.081-.006-.112-.012-.222-.021-.334,0-.027,0-.053-.006-.08-.009-.112-.018-.223-.029-.335,0-.023,0-.046-.006-.07-.005-.048-.01-.1-.015-.147L316.6,478c0-.022-.005-.045-.009-.068-.013-.112-.027-.223-.042-.333l-.011-.079c-.016-.111-.033-.222-.05-.332l-.012-.08c0-.007,0-.015,0-.022l1.828-.92,1.374-.692a12.276,12.276,0,0,0-.394-1.738,12.14,12.14,0,0,0-.643-1.663l-1.527.192-2.029.256c-.005-.013-.012-.026-.018-.04s-.023-.05-.034-.074c-.047-.1-.095-.2-.143-.3l-.036-.073c-.049-.1-.1-.2-.15-.3l-.037-.071,0,0c-.014-.026-.026-.052-.04-.078-.032-.061-.064-.121-.1-.182l-.017-.033c-.006-.012-.012-.022-.019-.033l-.043-.078c-.018-.034-.036-.068-.055-.1l-.044-.078,0,0L314.3,471c-.055-.1-.112-.194-.17-.289-.014-.023-.026-.047-.041-.069-.057-.1-.116-.189-.174-.283-.014-.024-.029-.047-.044-.07l-.022-.036,1.32-1.568.988-1.174a12.3,12.3,0,0,0-2.291-2.718l-1.325.775-1.77,1.036-.016-.016c-.02-.018-.041-.036-.06-.054-.083-.074-.167-.148-.251-.221l-.06-.052c-.085-.073-.171-.147-.257-.218l-.053-.043c-.037-.032-.076-.062-.114-.095l-.117-.093-.053-.043c-.089-.071-.178-.139-.267-.207-.022-.016-.042-.031-.063-.048-.09-.067-.179-.133-.27-.2l-.065-.048-.019-.013.642-1.943.482-1.461a12.1,12.1,0,0,0-1.508-.95,11.961,11.961,0,0,0-1.629-.721l-.944,1.215-1.255,1.615-.04-.014c-.025-.01-.05-.019-.075-.027-.1-.039-.21-.077-.315-.113l-.074-.025c-.106-.036-.213-.071-.32-.105L304,462.7l-.007,0-.085-.027c-.067-.02-.132-.04-.2-.059l-.036-.011a.3.3,0,0,1-.035-.011l-.2-.057-.087-.023-.005,0-.076-.022c-.109-.03-.217-.057-.325-.084-.026-.008-.053-.015-.078-.02-.107-.027-.215-.053-.324-.077l-.08-.019-.041-.009-.174-2.043-.132-1.529a12.184,12.184,0,0,0-3.542-.3l-.389,1.486-.517,1.982h-.024c-.026,0-.053,0-.079.005-.112,0-.224.012-.336.02l-.079,0-.336.029-.067.006-.149.016-.149.016-.067.008c-.112.012-.225.027-.337.043l-.076.01-.335.05-.077.012-.022,0-.92-1.828-.692-1.374a12.218,12.218,0,0,0-3.4,1.036l.192,1.526.255,2.029-.04.019-.072.034c-.1.047-.2.094-.3.143l-.071.034c-.1.05-.2.1-.3.152l-.069.036-.008,0-.078.041c-.06.031-.121.064-.181.1l-.029.016,0,0-.033.018-.179.1-.078.045-.005,0c-.022.014-.045.026-.068.039l-.29.171-.067.041c-.1.057-.191.115-.284.175l-.068.043-.037.023-1.567-1.32-1.174-.988a12.155,12.155,0,0,0-2.718,2.291l.774,1.324,1.036,1.77-.016.017-.052.058c-.075.084-.15.167-.223.253-.017.019-.033.04-.051.059-.073.085-.146.171-.218.259l-.043.053-.095.116-.094.117-.042.053c-.071.089-.139.178-.207.268l-.047.061c-.069.09-.136.18-.2.271l-.045.064-.015.019-1.943-.642-1.461-.482a12.261,12.261,0,0,0-1.672,3.137l1.215.945,1.615,1.254-.014.04c-.011.026-.02.052-.029.078-.039.1-.075.207-.112.312l-.026.077c-.036.1-.071.211-.1.317-.008.026-.016.051-.024.077l0,0-.028.087c-.02.065-.04.131-.059.2l-.01.033-.011.036-.057.2c-.008.029-.016.057-.023.085l0,.009c-.006.024-.013.049-.02.074-.03.108-.058.217-.085.326l-.019.076c-.026.109-.053.217-.077.326l-.016.078a.389.389,0,0,0-.011.043l-2.043.175-1.528.131a12.222,12.222,0,0,0-.3,3.543l1.486.388,1.982.518,0,.023c0,.027,0,.053,0,.081.006.112.012.223.021.335,0,.026,0,.053.006.079.009.112.018.223.028.336,0,.022,0,.045.006.068.006.05.01.1.015.149s.012.1.017.149c0,.022.005.043.009.066.012.113.027.226.042.337,0,.026.007.05.011.076.015.112.033.223.05.335l.012.077c0,.007,0,.015,0,.022l-1.827.921-1.375.691a12.2,12.2,0,0,0,1.036,3.4l1.527-.192,2.029-.254c.007.012.012.026.019.04s.022.048.033.072c.047.1.094.2.143.3.012.023.022.047.036.071.049.1.1.2.15.3.012.022.024.046.036.07l0,0c.013.027.028.054.042.08.032.061.064.121.1.181.006.01.012.021.018.032l.017.033.044.079c.019.033.037.067.057.1l.043.077,0,.007.037.066c.057.1.113.2.171.293l.04.066c.058.1.116.191.176.286l.043.066c.008.013.015.026.023.038l-1.319,1.567-.988,1.174a12.1,12.1,0,0,0,2.291,2.718l1.324-.774,1.77-1.036.017.016.059.053q.124.113.252.222l.059.051.259.219.053.043c.038.033.077.063.116.1l.116.093.053.042q.134.106.269.208l.06.047c.09.068.18.135.271.2l.064.046.019.014-.642,1.943-.481,1.461a12.164,12.164,0,0,0,3.137,1.672l.944-1.215,1.254-1.616.041.015.078.029c.1.039.208.075.312.111l.078.026c.1.036.21.071.317.1l.078.026h0l.087.026c.065.021.13.041.2.06l.033.01.038.012.2.057.087.024.007,0c.025.007.049.014.074.019.109.031.218.059.328.087l.074.019c.109.027.219.053.327.077l.078.017.043.011.176,2.042.131,1.529a12.265,12.265,0,0,0,3.542.3l.388-1.485.519-1.983h.022l.083,0q.165-.008.333-.021l.081-.005c.111-.009.223-.018.333-.029l.07-.007.148-.014.148-.017.067-.009c.113-.012.224-.026.336-.042l.078-.01c.111-.016.222-.033.332-.05l.079-.013a.081.081,0,0,0,.022,0l.921,1.828.691,1.375a12.3,12.3,0,0,0,1.739-.394,12.133,12.133,0,0,0,1.662-.643l-.192-1.527-.256-2.029.039-.018.076-.035.3-.141.075-.037c.1-.049.2-.1.3-.15l.073-.038,0,0,.081-.043.179-.1.033-.018.033-.019c.06-.033.121-.066.18-.1.026-.013.051-.028.078-.043l.007,0c.022-.012.044-.026.067-.038.1-.056.195-.113.291-.17l.067-.04.285-.176.067-.043.037-.024,1.567,1.32,1.175.988a12.2,12.2,0,0,0,2.718-2.291l-.775-1.324-1.036-1.771a.073.073,0,0,0,.015-.016l.055-.06c.074-.082.149-.166.221-.25l.053-.061c.073-.085.145-.171.215-.256.015-.019.03-.036.044-.054.032-.039.064-.077.095-.116l.093-.116.043-.053c.07-.088.139-.178.207-.267.016-.022.033-.042.048-.064.067-.089.134-.179.2-.269.016-.022.032-.044.047-.065l.013-.019,1.943.642,1.461.481a12.226,12.226,0,0,0,1.672-3.137l-1.215-.944Zm-8.336-1.739a9.873,9.873,0,1,1-.072-9.422A9.875,9.875,0,0,1,307.227,484.7Z" transform="translate(-48.572 -94.395)" fill="#fff"/>
    <path id="Path_12140" data-name="Path 12140" d="M398.831,287.179l.014-.04c.01-.026.019-.052.029-.077q.057-.156.112-.313c.009-.026.016-.051.026-.076.036-.107.071-.212.1-.319.008-.026.017-.05.025-.077l0,0c.009-.029.018-.057.027-.084.02-.067.04-.132.059-.2,0-.012.007-.024.011-.036s.007-.024.011-.036c.019-.066.038-.132.057-.2.008-.029.016-.057.024-.087l0-.007c.006-.026.014-.05.02-.075.03-.109.058-.217.085-.326l.02-.077q.04-.162.077-.325l.017-.078c0-.015.007-.029.01-.043l2.043-.175,1.529-.131a12.184,12.184,0,0,0,.3-3.542l-1.485-.388-1.983-.519a.187.187,0,0,0,0-.022c0-.028,0-.055,0-.082-.006-.111-.013-.222-.022-.333,0-.027,0-.053-.005-.08-.009-.112-.018-.224-.029-.336l-.007-.069c0-.049-.009-.1-.015-.147s-.01-.1-.016-.149c0-.023-.005-.046-.008-.069-.013-.112-.028-.222-.043-.333l-.01-.08c-.016-.111-.033-.221-.05-.332l-.013-.079c0-.008,0-.015,0-.023l1.828-.92,1.374-.692a12.237,12.237,0,0,0-1.036-3.4l-1.527.192-2.029.255c-.005-.013-.012-.026-.018-.04s-.024-.049-.035-.074c-.047-.1-.095-.2-.143-.3l-.036-.073c-.05-.1-.1-.2-.15-.3l-.036-.071,0-.005c-.014-.026-.026-.052-.04-.077l-.1-.182c-.006-.01-.012-.021-.017-.032s-.012-.023-.019-.033l-.043-.078-.056-.1-.044-.079,0,0-.04-.069c-.055-.1-.112-.195-.169-.289l-.041-.07c-.058-.095-.116-.189-.175-.283-.014-.023-.028-.046-.043-.069l-.023-.036,1.32-1.568.988-1.174a12.257,12.257,0,0,0-2.291-2.718l-1.325.775-1.77,1.036-.016-.015-.061-.054c-.082-.074-.166-.149-.25-.221l-.061-.053c-.085-.073-.171-.146-.257-.217-.018-.014-.035-.029-.054-.043l-.114-.095-.117-.094-.053-.042c-.089-.071-.178-.139-.267-.207l-.063-.048c-.089-.067-.178-.133-.269-.2l-.066-.047-.018-.013.641-1.943.482-1.461a12.162,12.162,0,0,0-3.137-1.672l-.944,1.215-1.254,1.616-.04-.015-.075-.027c-.1-.039-.21-.076-.315-.112-.026-.009-.05-.018-.074-.025-.105-.037-.212-.072-.32-.106l-.074-.023-.007,0-.085-.026-.2-.06-.036-.011-.034-.01-.2-.057-.087-.023-.006,0-.076-.021c-.109-.03-.216-.058-.325-.085l-.078-.019c-.108-.028-.216-.053-.324-.078l-.08-.018-.041-.009-.175-2.043-.132-1.528a12.18,12.18,0,0,0-3.541-.3l-.389,1.485-.518,1.982-.023,0-.08,0c-.112,0-.224.012-.336.02l-.078.005-.336.029-.068.007-.149.015-.149.016-.066.009c-.113.012-.226.027-.337.043l-.077.009-.334.051-.077.012-.023,0-.92-1.828-.692-1.374a12.065,12.065,0,0,0-1.738.393,12.288,12.288,0,0,0-1.662.643l.192,1.527.254,2.029-.04.019-.073.034c-.1.047-.2.094-.3.143l-.071.035-.3.151-.068.036-.008,0-.078.041c-.06.031-.121.064-.182.1l-.029.016h0l-.033.018-.18.1-.078.045-.006,0c-.022.014-.045.026-.067.039l-.29.17-.068.041c-.1.057-.191.116-.284.175l-.067.043-.037.022-1.567-1.319-1.174-.988a12.157,12.157,0,0,0-2.718,2.291l.774,1.324,1.036,1.77-.016.018-.051.057c-.076.085-.15.167-.223.253l-.051.06c-.073.085-.147.171-.219.258l-.043.053-.095.115c-.031.039-.062.079-.093.117l-.042.053c-.071.089-.139.178-.208.268l-.047.061c-.069.09-.135.181-.2.272l-.046.063-.014.019-1.943-.641-1.462-.482a12.227,12.227,0,0,0-1.671,3.137l1.215.944,1.616,1.255-.015.04c-.01.026-.019.051-.029.078-.038.1-.075.208-.111.312-.009.026-.019.052-.026.078-.036.1-.071.21-.1.317-.009.025-.017.05-.025.077l0,0c-.009.029-.018.058-.028.087-.019.065-.04.13-.058.2l-.01.034-.012.036-.057.2c-.008.029-.016.057-.024.085l0,.008c-.006.025-.014.05-.02.074-.03.109-.059.218-.085.326l-.02.076c-.026.108-.052.217-.077.326l-.017.077c0,.014-.007.029-.01.043l-2.043.175-1.529.132a12.185,12.185,0,0,0-.3,3.543l1.486.388,1.982.518v.024c0,.026,0,.053,0,.08.006.112.012.223.021.335,0,.026,0,.053.005.079.009.112.018.224.029.336,0,.022,0,.045.006.067.005.05.01.1.015.15s.012.1.016.148c0,.022.005.044.009.067.012.112.027.225.043.336,0,.026.006.051.01.076.016.112.033.224.05.336,0,.025.008.05.012.076,0,.008,0,.016,0,.023l-1.828.92-1.374.692a12.049,12.049,0,0,0,.394,1.738,12.241,12.241,0,0,0,.642,1.663l1.527-.192,2.029-.255c.007.013.012.026.019.04s.023.048.034.072c.047.1.094.2.143.3.012.024.023.048.036.072.05.1.1.2.151.3.012.022.023.046.036.07l0,.005c.014.026.028.054.042.08l.1.181.018.031.016.033.045.08.056.1.043.077,0,.007c.013.022.025.044.038.066.057.1.112.2.171.292.014.022.027.045.04.067.058.1.117.191.177.286.014.022.028.045.042.066s.016.026.024.038l-1.32,1.567-.988,1.174a12.2,12.2,0,0,0,2.291,2.718l1.324-.774,1.77-1.036a.1.1,0,0,0,.018.015c.019.019.039.036.059.053.083.075.167.15.252.223l.059.05.259.219.053.043.116.1.116.093.052.042c.089.071.179.139.269.208l.061.046c.09.069.18.136.271.2l.063.045.019.015-.642,1.943-.482,1.461a12.26,12.26,0,0,0,3.137,1.672l.944-1.215,1.255-1.615.04.015.078.029c.1.038.207.075.311.111l.078.026c.105.036.211.071.317.1l.078.025h0l.087.027c.065.021.13.04.2.06l.034.01.037.012.2.057c.029.007.057.015.086.024l.007,0,.074.019c.109.03.219.059.329.086l.074.019c.109.026.218.053.327.078l.077.016a.406.406,0,0,0,.044.011l.175,2.042.131,1.529a12.152,12.152,0,0,0,1.76.28,12.015,12.015,0,0,0,1.781.022l.389-1.486.518-1.983h.022l.083,0c.11-.006.22-.012.332-.021l.081-.006c.111-.009.223-.017.334-.028l.069-.007.148-.015.148-.016.068-.009c.112-.012.224-.027.336-.042l.078-.011c.111-.016.222-.033.332-.05l.08-.013.022,0,.92,1.828.692,1.374a12.222,12.222,0,0,0,3.4-1.036l-.192-1.527-.256-2.029.038-.018.077-.036.3-.141.075-.037c.1-.049.2-.1.3-.15.025-.012.049-.026.073-.038h0l.081-.043.178-.1.034-.018a.267.267,0,0,1,.033-.018l.18-.1.077-.043.007,0,.068-.039c.1-.055.195-.112.291-.17l.067-.04.285-.177.067-.042.037-.024,1.567,1.319,1.175.989a12.3,12.3,0,0,0,2.718-2.291l-.775-1.325-1.036-1.77.015-.016.055-.06c.074-.083.148-.166.221-.25l.053-.061c.072-.084.144-.171.215-.256l.044-.055c.032-.038.064-.076.095-.115l.093-.116.043-.053c.07-.088.138-.178.206-.267l.049-.063c.067-.089.133-.18.2-.269.016-.023.032-.044.048-.066l.013-.018,1.942.641,1.462.482a12.224,12.224,0,0,0,1.671-3.137l-1.215-.944Zm-8.337-1.738a9.873,9.873,0,1,1-.072-9.422A9.875,9.875,0,0,1,390.494,285.441Z" transform="translate(-67.293 -49.593)" fill="#1292f8"/>
    <path id="Path_12141" data-name="Path 12141" d="M986.616,436.912l.014-.04c.01-.026.019-.051.029-.077.038-.1.075-.208.112-.313.009-.026.016-.051.026-.076.036-.106.071-.212.1-.319.009-.026.017-.05.025-.076l0-.005c.009-.029.018-.057.027-.084l.059-.2c0-.012.007-.024.011-.036s.007-.024.011-.036c.019-.066.038-.132.057-.2.008-.029.016-.057.024-.087l0-.007c.006-.025.014-.05.021-.075.029-.109.057-.217.085-.326.006-.025.013-.051.02-.077.026-.108.052-.216.077-.325l.017-.078c0-.015.007-.029.01-.043l2.043-.176,1.529-.131a12.177,12.177,0,0,0,.3-3.541l-1.485-.389-1.983-.519c0-.008,0-.015,0-.022,0-.028,0-.055,0-.081-.006-.112-.013-.222-.022-.334,0-.027,0-.053-.005-.08-.008-.112-.018-.224-.029-.335,0-.024,0-.047-.007-.07,0-.049-.009-.1-.015-.147s-.01-.1-.016-.149c0-.023-.005-.046-.008-.069-.013-.112-.028-.222-.043-.333l-.01-.08c-.016-.111-.033-.221-.05-.332l-.013-.079c0-.007,0-.015,0-.022l1.828-.921,1.374-.691a12.232,12.232,0,0,0-1.036-3.4l-1.527.191-2.029.256c-.005-.013-.012-.026-.018-.04l-.035-.073c-.047-.1-.094-.2-.143-.3l-.036-.073c-.05-.1-.1-.2-.15-.3l-.036-.071,0,0c-.014-.026-.026-.053-.04-.078l-.1-.182c-.006-.01-.012-.021-.017-.032s-.012-.022-.019-.033l-.043-.078c-.019-.033-.036-.067-.056-.1l-.044-.079,0,0-.039-.069c-.055-.1-.112-.195-.169-.289-.014-.024-.027-.047-.041-.07-.057-.095-.115-.189-.175-.283-.014-.023-.028-.046-.043-.069l-.023-.036,1.32-1.568.988-1.174a12.258,12.258,0,0,0-2.291-2.718l-1.325.775-1.77,1.036-.016-.016-.061-.054c-.082-.074-.166-.149-.25-.221-.02-.018-.04-.036-.061-.052-.085-.074-.171-.146-.257-.218-.018-.014-.035-.029-.053-.043l-.115-.095-.117-.094-.053-.042c-.089-.071-.178-.139-.267-.207l-.063-.048c-.089-.067-.178-.133-.269-.2l-.066-.047-.018-.013.642-1.943.481-1.461a12.163,12.163,0,0,0-3.137-1.672l-.944,1.215-1.254,1.616-.04-.015-.074-.027c-.105-.039-.211-.076-.315-.112l-.074-.025c-.105-.037-.212-.072-.319-.106l-.075-.023-.007,0-.085-.026c-.066-.02-.132-.04-.2-.059l-.036-.012-.034-.01-.2-.057-.087-.023-.006,0-.076-.021c-.109-.03-.216-.058-.324-.085l-.078-.019c-.108-.028-.216-.053-.324-.078l-.08-.018-.041-.009L973.3,410.7l-.132-1.528a12.182,12.182,0,0,0-3.541-.3l-.389,1.486-.518,1.981-.023,0-.08,0c-.112,0-.224.012-.336.02-.026,0-.053,0-.078.005l-.336.029-.068.007-.148.015-.15.016-.066.009c-.113.012-.226.027-.337.043l-.077.009-.334.051-.077.012a.145.145,0,0,0-.023,0l-.92-1.828-.692-1.374a12.074,12.074,0,0,0-1.738.393,12.294,12.294,0,0,0-1.662.643l.191,1.527.255,2.029c-.012.007-.026.012-.04.019l-.073.034c-.1.047-.2.094-.3.143l-.071.035c-.1.05-.2.1-.3.152l-.068.036-.008,0-.078.041c-.06.031-.121.064-.181.1l-.03.016h0l-.033.018-.18.1-.077.045-.006,0c-.022.014-.045.026-.067.039l-.29.17-.068.041c-.1.057-.191.116-.284.175l-.067.043-.037.022-1.567-1.319-1.174-.988a12.155,12.155,0,0,0-2.718,2.291l.774,1.324,1.036,1.77-.016.018-.051.057c-.076.085-.15.167-.223.253l-.051.059c-.073.085-.147.171-.219.259l-.043.053-.095.116c-.031.038-.062.078-.093.117l-.042.052c-.071.089-.139.178-.208.268l-.047.061c-.068.09-.135.181-.2.272l-.046.063-.014.019-1.943-.641-1.461-.482a12.194,12.194,0,0,0-1.672,3.137l1.215.944,1.616,1.255-.015.04c-.01.026-.019.052-.029.078-.038.1-.075.208-.111.312-.009.026-.019.051-.026.078-.036.1-.071.211-.1.317-.008.025-.017.05-.025.077l0,0c-.009.029-.018.058-.028.087-.019.065-.039.13-.058.2l-.01.034-.012.036-.057.2c-.008.029-.016.057-.024.085l0,.008c-.006.025-.014.05-.02.074-.03.109-.059.218-.085.326l-.02.076c-.026.108-.052.217-.077.326l-.017.077c0,.014-.007.029-.01.043l-2.043.175-1.529.132a12.182,12.182,0,0,0-.3,3.543l1.486.388,1.982.518v.024c0,.026,0,.053,0,.081.006.111.012.223.021.334,0,.026,0,.053.005.079.008.112.018.224.029.336,0,.022,0,.045.006.067.005.05.01.1.015.15s.012.1.016.148c0,.022.005.044.008.067.012.112.027.225.043.337,0,.026.006.05.01.075.016.112.033.224.05.336,0,.025.008.05.012.077,0,.007,0,.015,0,.022l-1.828.92-1.374.692a12.054,12.054,0,0,0,.394,1.738,12.241,12.241,0,0,0,.642,1.663l1.527-.192,2.029-.255c.007.013.012.026.019.04s.023.048.034.072c.047.1.094.2.143.3.012.024.023.048.035.072.05.1.1.2.151.3.012.022.023.047.036.071l0,0,.042.08.1.181.018.031.016.033.045.08.056.1.043.077,0,.007c.013.022.025.044.038.066.057.1.112.2.171.292.014.023.027.045.039.067.058.1.117.191.177.286l.042.066c.009.012.016.026.024.038l-1.32,1.567-.988,1.174a12.135,12.135,0,0,0,2.291,2.719l1.324-.774,1.77-1.036a.109.109,0,0,0,.018.015c.019.019.04.036.059.053q.124.113.252.223l.059.051.259.218.053.043.116.1.116.093.052.042c.089.071.179.139.269.208l.061.046c.09.069.18.135.271.2l.064.045.019.015-.642,1.943-.482,1.461a12.259,12.259,0,0,0,3.137,1.672l.944-1.215,1.255-1.615.04.015.078.029c.1.038.207.075.312.111l.078.026c.105.036.211.071.317.1l.078.026h0l.087.027c.065.021.13.04.2.06l.034.01.037.012.2.057.086.024.007,0,.074.019q.164.045.328.086l.074.019c.109.027.218.053.327.078l.077.018.044.01.175,2.042.131,1.529a12.149,12.149,0,0,0,1.76.28,12.015,12.015,0,0,0,1.781.022l.389-1.486.518-1.983h.022l.083,0c.11-.006.22-.012.332-.021l.081-.006c.111-.009.222-.017.334-.028l.069-.007.148-.014.148-.017.068-.009c.112-.012.224-.027.336-.043l.078-.01c.111-.016.222-.033.332-.05l.08-.013.023,0,.92,1.828.692,1.374a12.255,12.255,0,0,0,3.4-1.036l-.192-1.527-.256-2.029.038-.018.077-.036.3-.141.075-.037c.1-.049.2-.1.3-.15.025-.012.049-.026.073-.038h0l.081-.043.178-.1.034-.018a.33.33,0,0,1,.033-.018l.18-.1.077-.043.007,0,.068-.039c.1-.055.195-.112.291-.17l.067-.04.284-.177.068-.042.037-.024,1.567,1.319,1.175.989a12.306,12.306,0,0,0,2.718-2.291l-.775-1.325-1.036-1.77.015-.016.055-.06c.074-.083.148-.166.221-.25l.053-.061c.072-.085.145-.171.216-.256l.044-.055c.032-.038.064-.076.095-.115l.093-.116.043-.053c.07-.088.138-.178.206-.267l.049-.063c.068-.089.133-.18.2-.269.016-.023.032-.044.048-.066l.013-.018,1.943.641,1.461.482a12.223,12.223,0,0,0,1.671-3.137l-1.215-.944Zm-8.337-1.738a9.873,9.873,0,1,1-.072-9.422A9.874,9.874,0,0,1,978.279,435.174Z" transform="translate(-199.448 -83.258)" fill="#1292f8"/>
    <path id="Path_12142" data-name="Path 12142" d="M402.849,518.658l.024-.067c.017-.043.033-.088.048-.13q.1-.263.188-.529c.015-.042.029-.085.043-.128.06-.18.12-.357.177-.537.014-.043.029-.086.042-.129l0-.009c.014-.049.029-.1.045-.143.034-.112.067-.222.1-.333.006-.019.012-.04.018-.06s.012-.04.019-.06q.049-.166.1-.332c.013-.05.026-.1.041-.145l0-.012c.011-.043.023-.085.035-.127q.076-.274.143-.549c.012-.043.023-.087.034-.13.045-.181.088-.364.129-.548.009-.043.02-.088.029-.132.005-.025.012-.048.017-.073l3.446-.3,2.581-.221a20.54,20.54,0,0,0,.509-5.977l-2.507-.657-3.346-.874a.31.31,0,0,0,0-.038c0-.046-.005-.092-.006-.137-.011-.188-.022-.374-.036-.563,0-.047-.006-.091-.009-.136-.014-.188-.03-.377-.048-.565,0-.04-.008-.078-.012-.117-.009-.082-.016-.166-.025-.248s-.017-.169-.027-.252c0-.039-.01-.077-.014-.116q-.034-.283-.071-.562c-.007-.047-.012-.09-.018-.134-.027-.187-.056-.373-.085-.56l-.022-.134c0-.012,0-.025-.007-.038l3.084-1.553,2.32-1.168a20.6,20.6,0,0,0-1.749-5.739l-2.577.324-3.425.432c-.009-.022-.021-.044-.03-.067-.019-.041-.04-.083-.058-.124-.078-.17-.159-.34-.24-.507l-.06-.123c-.083-.169-.167-.336-.254-.5-.019-.04-.04-.08-.062-.12l0-.009c-.024-.044-.045-.088-.068-.132-.054-.1-.108-.2-.164-.307-.01-.017-.02-.036-.029-.054s-.02-.038-.033-.057c-.023-.043-.048-.087-.072-.131s-.061-.114-.093-.171l-.074-.133-.006-.008-.066-.116c-.093-.164-.188-.328-.286-.488-.023-.04-.045-.078-.07-.117-.1-.16-.195-.319-.295-.478-.024-.04-.048-.078-.074-.117l-.04-.061,2.229-2.646,1.667-1.982a20.648,20.648,0,0,0-3.866-4.587l-2.236,1.308-2.987,1.749-.026-.026c-.035-.029-.069-.06-.1-.091-.139-.125-.28-.25-.422-.373-.035-.03-.067-.059-.1-.088-.143-.123-.288-.247-.433-.367-.03-.023-.06-.049-.091-.074l-.193-.159-.2-.157-.09-.072c-.15-.119-.3-.233-.451-.349l-.106-.081c-.151-.114-.3-.225-.454-.336-.037-.026-.074-.053-.111-.081l-.031-.022,1.083-3.278.813-2.467a20.612,20.612,0,0,0-5.294-2.821l-1.594,2.05-2.118,2.726-.067-.024c-.042-.016-.085-.031-.126-.046q-.266-.1-.532-.191c-.043-.015-.084-.029-.126-.041q-.269-.093-.54-.179c-.041-.014-.084-.028-.126-.04l-.012,0c-.049-.014-.1-.03-.143-.045-.112-.035-.222-.068-.333-.1l-.06-.019c-.019,0-.039-.011-.059-.018l-.333-.1-.146-.039-.01,0-.129-.036c-.183-.051-.365-.1-.547-.143l-.132-.033c-.181-.046-.364-.089-.547-.129l-.135-.031-.07-.016-.3-3.447-.222-2.579a20.538,20.538,0,0,0-5.977-.508l-.657,2.507-.874,3.345-.04,0c-.045,0-.09,0-.134.008-.189.008-.378.02-.566.034l-.133.009c-.188.016-.378.031-.567.049-.039,0-.076.008-.115.011l-.25.026-.252.027-.112.014c-.19.021-.381.046-.569.072l-.129.016-.564.086-.129.02-.039.007-1.553-3.084-1.167-2.32a20.6,20.6,0,0,0-5.739,1.749l.324,2.577.429,3.424c-.022.012-.044.021-.067.032l-.122.058c-.17.078-.34.158-.509.241l-.12.058c-.17.085-.339.169-.508.256-.038.021-.078.04-.116.06l-.013.007-.133.069c-.1.053-.2.109-.306.164l-.05.028,0,0-.057.03c-.1.055-.2.111-.3.167-.044.025-.088.05-.131.075l-.011,0c-.037.022-.075.043-.114.065-.164.1-.327.191-.489.287l-.115.069c-.162.1-.322.2-.48.3l-.115.073c-.02.012-.042.024-.063.038l-2.645-2.227-1.982-1.668a20.554,20.554,0,0,0-4.587,3.866l1.307,2.235,1.749,2.987-.028.03-.087.1c-.128.142-.253.283-.377.426-.029.033-.057.067-.086.1-.123.144-.247.29-.369.437l-.073.089c-.053.064-.105.129-.16.195l-.157.2-.071.089c-.119.15-.234.3-.35.453l-.078.1c-.116.151-.228.3-.34.458-.025.035-.052.071-.076.106-.009.012-.018.022-.025.032l-3.278-1.083-2.467-.813a20.633,20.633,0,0,0-2.821,5.294L342.57,495l2.726,2.117c-.007.021-.016.044-.024.067-.017.043-.033.088-.048.132-.064.175-.126.35-.188.527-.016.043-.031.087-.044.13-.061.177-.119.356-.177.535-.015.043-.028.086-.042.129l0,.009-.047.146c-.034.11-.067.221-.1.332-.006.018-.011.039-.017.057s-.012.042-.019.061c-.033.111-.064.222-.1.333-.013.05-.026.1-.04.144a.041.041,0,0,1,0,.014c-.01.041-.023.083-.034.126-.05.182-.1.367-.144.55l-.033.128c-.045.182-.089.367-.13.55l-.029.13c-.007.023-.012.048-.017.072l-3.448.3-2.579.223a20.578,20.578,0,0,0-.509,5.978l2.508.655,3.345.874,0,.04c0,.046,0,.09.007.136.011.188.021.377.035.565,0,.043.007.089.011.133.014.188.03.378.047.567,0,.036.008.076.011.115.009.084.017.168.025.252s.02.166.028.25c.005.038.009.074.014.112.021.19.047.38.072.568.005.044.011.085.017.128.026.188.056.378.085.566.006.043.013.084.02.129a.364.364,0,0,0,.007.039l-3.084,1.553-2.32,1.168a20.595,20.595,0,0,0,1.749,5.739l2.577-.324,3.424-.43c.012.022.022.044.033.067.019.041.038.081.057.122.078.171.158.341.241.509.019.04.039.081.06.122.083.168.167.338.254.506.021.038.04.078.061.119l.005.009c.022.045.047.091.071.134.053.1.109.2.163.306l.03.053.028.056.075.133c.032.057.063.115.1.17s.049.087.072.13l.008.012c.021.036.041.074.063.112.1.165.191.33.288.493.023.037.046.075.067.112.1.163.2.323.3.483.022.037.047.076.071.112s.026.043.04.064l-2.227,2.645-1.667,1.981a20.5,20.5,0,0,0,3.866,4.587l2.234-1.307,2.987-1.748a.3.3,0,0,0,.029.025c.032.031.067.06.1.09.14.127.281.253.425.376.033.029.067.057.1.086.146.125.291.246.437.369l.089.073c.064.054.13.106.2.16l.2.157.088.071c.15.119.3.235.454.35l.1.078c.152.116.3.228.458.339l.106.077a.384.384,0,0,1,.032.025l-1.083,3.277-.813,2.467a20.6,20.6,0,0,0,5.294,2.822l1.594-2.05,2.117-2.727.068.025.132.049q.263.1.526.187l.132.045c.178.06.356.119.535.176.043.014.087.027.131.043h.005l.146.046c.109.035.22.068.331.1.019.005.036.012.057.016s.042.012.063.02l.332.1.146.04.012,0,.125.033c.184.052.368.1.553.146l.125.032c.184.045.368.089.552.131l.13.029c.023.007.05.012.074.018l.3,3.446.222,2.581a20.72,20.72,0,0,0,5.977.509l.657-2.508.874-3.346.037,0,.14-.007c.186-.01.373-.021.561-.036l.137-.01c.187-.015.375-.03.564-.047l.117-.012.25-.025.25-.028.115-.014c.19-.022.378-.046.567-.071l.131-.018c.188-.026.375-.054.56-.084l.134-.022a.387.387,0,0,0,.039-.006l1.553,3.084,1.168,2.32a20.595,20.595,0,0,0,5.739-1.749l-.324-2.577-.432-3.425c.023-.009.043-.019.064-.029l.129-.06.5-.238.126-.063c.166-.082.333-.167.5-.253.043-.02.084-.043.124-.064l0,0,.137-.072c.1-.054.2-.109.3-.161.019-.012.038-.021.057-.03a.544.544,0,0,1,.055-.031c.1-.056.2-.111.3-.168.044-.023.086-.047.13-.073l.012-.007.115-.065c.164-.093.329-.191.49-.287.038-.022.077-.044.114-.067.161-.1.321-.2.481-.3l.114-.072.063-.04L393.272,536l1.983,1.669a20.656,20.656,0,0,0,4.587-3.866l-1.308-2.235-1.749-2.988a.262.262,0,0,0,.024-.027l.093-.1c.125-.14.25-.28.373-.422l.091-.1c.122-.142.244-.287.364-.431.025-.032.05-.061.074-.092.054-.065.108-.129.16-.195l.157-.2.071-.09c.118-.149.234-.3.349-.451.027-.036.055-.07.082-.106.113-.151.226-.3.335-.454.026-.039.053-.074.081-.111l.022-.031,3.278,1.083,2.466.813a20.587,20.587,0,0,0,2.822-5.294l-2.05-1.594Zm-14.068-2.933a16.661,16.661,0,1,1-.122-15.9A16.664,16.664,0,0,1,388.78,515.725Z" transform="translate(-62.209 -97.3)" fill="#fff"/>
    <path id="Path_12143" data-name="Path 12143" d="M644.352,242.138S623.834,247.356,623.1,270.8" transform="translate(-126.424 -45.775)" fill="none" stroke="#fff" stroke-miterlimit="10" stroke-width="2"/>
    <path id="Path_12144" data-name="Path 12144" d="M641.688,236.033s-23.612,6.4-24.346,29.842" transform="translate(-125.13 -44.402)" fill="none" stroke="#fff" stroke-miterlimit="10" stroke-width="2"/>
    <g id="Group_3078" data-name="Group 3078" transform="translate(512.266 173.819)">
      <rect id="Rectangle_915" data-name="Rectangle 915" width="24.561" height="37.099" transform="translate(22.356 12.096) rotate(-29.505)" fill="#3b3e54"/>
      <circle id="Ellipse_379" data-name="Ellipse 379" cx="12.421" cy="12.421" r="12.421" transform="translate(35.447 26.239) rotate(-84.909)" fill="none" stroke="#3b3e54" stroke-miterlimit="10" stroke-width="3"/>
      <path id="Path_12145" data-name="Path 12145" d="M658.922,242.01l-11.375-11.573-4.335,15.637Z" transform="translate(-643.212 -216.963)" fill="#3b3e54"/>
      <line id="Line_143" data-name="Line 143" x1="25.362" y1="7.032" transform="translate(9.347 23.283)" fill="none" stroke="#3b3e54" stroke-miterlimit="10" stroke-width="5"/>
      <line id="Line_144" data-name="Line 144" y1="11.11" x2="10.583" transform="translate(15.71 13.937)" fill="none" stroke="#3b3e54" stroke-miterlimit="10" stroke-width="3"/>
    </g>
    <g id="Group_3085" data-name="Group 3085" transform="translate(565.584 125.055)">
      <g id="Group_3079" data-name="Group 3079" transform="translate(84.713 129.295)">
        <path id="Path_12146" data-name="Path 12146" d="M835.676,318.646a1.558,1.558,0,0,0-.007-.318,1.576,1.576,0,0,0-1.757-1.371l-11.25,1.387a1.576,1.576,0,0,0,.385,3.129l11.251-1.388A1.576,1.576,0,0,0,835.676,318.646Z" transform="translate(-821.278 -316.944)" fill="#fff"/>
      </g>
      <path id="Path_12147" data-name="Path 12147" d="M835.751,316.281s3.453-2.335,3.9-1.46S845.425,328.7,844.844,329c-1.984,1.044-7.935-8.99-8.118-10.123S835.245,316.607,835.751,316.281Z" transform="translate(-739.793 -187.128)" fill="#3c3f57"/>
      <path id="Path_12148" data-name="Path 12148" d="M721.608,159.472s-.758-8.092-2.47-9.214-1.861,6.66,1.046,10.621Z" transform="translate(-713.325 -150.148)" fill="#fff"/>
      <g id="Group_3080" data-name="Group 3080" transform="translate(4.576 7.288)">
        <path id="Path_12149" data-name="Path 12149" d="M721.536,159.549c-1.239.381-2.448.762-3.638,1.2,6.531,19.5,11.438,28.433,29.532,38.523,2.768,1.543,3.637.7,4.492-1.746.518.034.514.056,0,0,.855-2.449.269-3.018-2.45-4.491C731.7,183.406,730.184,177.308,721.536,159.549Z" transform="translate(-717.898 -159.549)" fill="#4aa773"/>
      </g>
      <g id="Group_3081" data-name="Group 3081" transform="translate(32.61 164.456)">
        <path id="Path_12150" data-name="Path 12150" d="M757.9,376.564a1.577,1.577,0,0,0,1.546-1.891l-2.262-11.107a1.576,1.576,0,1,0-3.088.629l2.261,11.107A1.578,1.578,0,0,0,757.9,376.564Z" transform="translate(-754.064 -362.304)" fill="#fff"/>
      </g>
      <g id="Group_3082" data-name="Group 3082" transform="translate(25.794 78.443)">
        <path id="Path_12151" data-name="Path 12151" d="M752.454,345.157a41.237,41.237,0,0,0,5.019-.462c-4.994-26.7-8.776-62.537,4.582-87.493q-6.082-2.984-12.218-5.859C740.075,273.087,748.389,322.188,752.454,345.157Z" transform="translate(-745.271 -251.343)" fill="#292b3b"/>
      </g>
      <g id="Group_3083" data-name="Group 3083" transform="translate(32.253 77.079)">
        <path id="Path_12152" data-name="Path 12152" d="M814.371,306.665c-.189-1.681-.45-3.344-.78-5-39.507,5.136-54.7-6.805-46.111-48.645-4.451-1.205-8.924-2.314-13.4-3.434C750.211,296.62,769.7,312.021,814.371,306.665Z" transform="translate(-753.602 -249.583)" fill="#3b3e54"/>
      </g>
      <path id="Path_12153" data-name="Path 12153" d="M754.811,176.939a4.589,4.589,0,0,1,5.232.384c1.253,1.254.764,3.467-.515,4.746s-5.053,1.3-6.307.048S752.846,178.111,754.811,176.939Z" transform="translate(-721.133 -156.029)" fill="#1a1c2e"/>
      <path id="Path_12154" data-name="Path 12154" d="M767.172,172.558c2.134-2.87,6.787-4.587,10.27-3.216s4.5,5.814,3.191,9.132-7.036,6.625-12.389,4.956C764.672,182.316,764.47,176.193,767.172,172.558Z" transform="translate(-723.987 -154.355)" fill="#1a1c2e"/>
      <path id="Path_12155" data-name="Path 12155" d="M763.817,170.368c1.564-2.158,4.922-3.488,7.4-2.512s3.155,4.265,2.179,6.745-6.134,4.7-8.614,3.725S761.835,173.1,763.817,170.368Z" transform="translate(-723.369 -154.056)" fill="#1a1c2e"/>
      <path id="Path_12156" data-name="Path 12156" d="M765.886,185.075c0,4.769-3.322,8.635-6.236,8.635s-4.317-3.866-4.317-8.635,2.363-7.194,5.277-7.194S765.886,180.307,765.886,185.075Z" transform="translate(-721.739 -156.383)" fill="#fff"/>
      <path id="Path_12157" data-name="Path 12157" d="M770.873,188.807c0,1.11-1.1,2.529-1.905,2.529s-1.005-.9-1.005-2.01.652-2.148,1.456-2.148A1.431,1.431,0,0,1,770.873,188.807Z" transform="translate(-724.578 -158.473)" fill="#fff"/>
      <path id="Path_12158" data-name="Path 12158" d="M766.533,181.873s-1.008-3.055-3.4-4.158-6.994-.914-7.99,3.313c0,0-.432,3.067,3.312,3.276s2.945-1.7,4.887,0,3.477.221,3.846.618Z" transform="translate(-721.693 -156.217)" fill="#1a1c2e"/>
      <path id="Path_12159" data-name="Path 12159" d="M747.3,250.3a22.638,22.638,0,0,0,10.41-2.384,21.709,21.709,0,0,1,8.645-2c.667-9.545,2.247-34.693.74-39.334-1.873-5.755-5.215-8.2-5.215-8.2s-2.126,1.868-3.706,1.727-3.425,5.277-5.6,8.731-3.979,4.607-2.115,9.894C751.248,221.01,746.9,246.987,747.3,250.3Z" transform="translate(-719.926 -160.992)" fill="#60d493"/>
      <path id="Path_12160" data-name="Path 12160" d="M767.093,190.347l-4.984-.487a79.5,79.5,0,0,0-.336,9.63c.183.755,1.426,1.1,2.776.774,1.213-.295,2.093-1.033,2.126-1.727h.006A66.03,66.03,0,0,1,767.093,190.347Z" transform="translate(-723.171 -159.076)" fill="#fff"/>
      <path id="Path_12161" data-name="Path 12161" d="M757.174,377.936s.976,4.053,0,4.165-15.022.539-15.1-.112c-.281-2.225,11.2-4.277,12.328-4.053S757.046,377.347,757.174,377.936Z" transform="translate(-718.755 -201.313)" fill="#3c3f57"/>
      <path id="Path_12162" data-name="Path 12162" d="M721.148,227.1s-6.605-5.4-8.706-4.953,3.6,6.3,8.706,7.055Z" transform="translate(-711.995 -166.329)" fill="#fff"/>
      <g id="Group_3084" data-name="Group 3084" transform="translate(6.771 45.191)">
        <path id="Path_12163" data-name="Path 12163" d="M722.405,223.218c-.546,1.172-1.115,2.408-1.675,3.455,20.558,9.527,35.676,11.429,40.8-13.821.784-3.862-.871-3.17-2.507-4.405-2.786.477-3.487-.112-3.987,3.5C751.764,235.559,740.2,228.263,722.405,223.218Z" transform="translate(-720.73 -208.446)" fill="#4aa773"/>
      </g>
    </g>
    <g id="Group_3094" data-name="Group 3094" transform="translate(295.258 142.204)">
      <g id="Group_3086" data-name="Group 3086" transform="translate(2.649 127.483)">
        <path id="Path_12164" data-name="Path 12164" d="M366.73,339.37a1.712,1.712,0,0,1,1.588-2.122l12.289-.516a1.71,1.71,0,0,1,.144,3.418l-12.289.516A1.71,1.71,0,0,1,366.73,339.37Z" transform="translate(-366.68 -336.73)" fill="#fff"/>
      </g>
      <path id="Path_12165" data-name="Path 12165" d="M367.653,336.752s-4.523.029-4.387,1.087,3.353,15.963,4.061,15.879c2.416-.284,1.582-12.914,1.051-14.041S368.306,336.733,367.653,336.752Z" transform="translate(-363.262 -209.252)" fill="#1a1c2e"/>
      <g id="Group_3087" data-name="Group 3087" transform="translate(64.557 154.786)">
        <path id="Path_12166" data-name="Path 12166" d="M448.257,387.426a1.733,1.733,0,0,1-.343-.035,1.712,1.712,0,0,1-1.335-2.018l2.454-12.052a1.71,1.71,0,0,1,3.352.682l-2.454,12.053A1.712,1.712,0,0,1,448.257,387.426Z" transform="translate(-446.544 -371.951)" fill="#fff"/>
      </g>
      <g id="Group_3088" data-name="Group 3088" transform="translate(59.616 61.45)">
        <path id="Path_12167" data-name="Path 12167" d="M450.588,353.344a44.842,44.842,0,0,1-5.447-.5c5.421-28.973,9.523-67.861-4.972-94.941q6.6-3.238,13.259-6.358C464.02,275.139,455,328.42,450.588,353.344Z" transform="translate(-440.169 -251.544)" fill="#1a1c2e"/>
      </g>
      <g id="Group_3089" data-name="Group 3089" transform="translate(12.126 60.965)">
        <path id="Path_12168" data-name="Path 12168" d="M378.924,322.628c-.037-1.986-.023-3.963.095-5.947,42.941-.167,52.438-20.941,42.864-62.053,4.88-1.365,9.818-2.522,14.744-3.71C439.229,300.346,427.979,319.013,378.924,322.628Z" transform="translate(-378.905 -250.918)" fill="#1a1c2e"/>
      </g>
      <path id="Path_12169" data-name="Path 12169" d="M445.857,388.913s-1.058,4.4,0,4.52,16.3.584,16.39-.122c.305-2.414-12.155-4.642-13.376-4.4S446,388.275,445.857,388.913Z" transform="translate(-381.727 -220.926)" fill="#1a1c2e"/>
      <g id="Group_3090" data-name="Group 3090" transform="translate(53.409 18.491)">
        <path id="Path_12170" data-name="Path 12170" d="M455.592,248.929c-2.888-.965-8.841.582-11.713,0-4.229-.862-6.311-.543-10.493-.3-.534-13.117-.079-26.841-1.037-39.7a18.508,18.508,0,0,1,.16-6.343,8.357,8.357,0,0,1,3.942-5.609c2.258-1.236,5.146-1.141,8.066.351a6.566,6.566,0,0,1,1.269.766c1.731,1.325,3.327,3.91,3.582,8.785C450.014,219.057,453.293,236.275,455.592,248.929Z" transform="translate(-432.163 -196.125)" fill="#76bbee"/>
      </g>
      <path id="Path_12171" data-name="Path 12171" d="M505.46,191.952s3.723-8.479,2.639-10.544-5.539,5.6-4.835,11.156Z" transform="translate(-394.723 -174.247)" fill="#fff"/>
      <g id="Group_3091" data-name="Group 3091" transform="translate(63.74 14.504)">
        <path id="Path_12172" data-name="Path 12172" d="M494.394,193.323c-1.461-.833-3.03-1.566-4.6-2.342-10.879,21.576-16.829,25.763-37.994,8.638-3.238-2.62-4.208-2.517-5.682.752-.744-.175-.742-.188,0,0-1.474,3.268-.34,3.859,3.193,5.982C472.413,220.23,482.9,218.194,494.394,193.323Z" transform="translate(-445.49 -190.981)" fill="#76bbee"/>
      </g>
      <path id="Path_12173" data-name="Path 12173" d="M437.975,183.927c2.821,4.337,8.13,5.888,10.78,4.164s1.639-6.07-1.181-10.408-6.406-5.147-9.057-3.423S435.153,179.589,437.975,183.927Z" transform="translate(-379.654 -172.528)" fill="#fff"/>
      <path id="Path_12174" data-name="Path 12174" d="M437.124,189.811c.657,1.01,2.5,1.649,3.23,1.174s.381-1.413-.275-2.422-1.863-1.569-2.594-1.094A1.553,1.553,0,0,0,437.124,189.811Z" transform="translate(-379.786 -175.649)" fill="#fff"/>
      <path id="Path_12175" data-name="Path 12175" d="M439.309,185.9l5.408-.528a86.476,86.476,0,0,1,.365,10.45c-.2.819-1.547,1.194-3.012.839-1.317-.319-2.271-1.121-2.308-1.874l-.006,0A71.667,71.667,0,0,0,439.309,185.9Z" transform="translate(-380.36 -175.215)" fill="#fff"/>
      <path id="Path_12176" data-name="Path 12176" d="M441.822,187.84c.8-.863,1.547-.085,3.467.992s5.349.8,5.587-3.692c.152-2.861,1.764,1.816,1.767,1.82.324,2.346-.31,3.766-1.883,4.789-2.171,1.412-5.636,1.212-8.705-.622C441.563,189.979,441.277,188.428,441.822,187.84Z" transform="translate(-380.859 -174.956)" fill="#1a1c2e"/>
      <path id="Path_12177" data-name="Path 12177" d="M435.293,181.316s-.891-3.374.63-5.792,5.822-4.97,9.228-1.713c0,0,2.208,2.534-1.074,4.939s-3.684.2-4.446,2.892S436.6,183.9,436.5,184.48Z" transform="translate(-379.399 -172.27)" fill="#1a1c2e"/>
      <path id="Path_12178" data-name="Path 12178" d="M451.4,230.317l-1.328,7.049-4.464-6.753-1.894-28.486h1.891Z" transform="translate(-381.351 -178.983)" fill="#fe5e5a"/>
      <g id="Group_3092" data-name="Group 3092" transform="translate(56.727 65.18)">
        <path id="Path_12179" data-name="Path 12179" d="M443.809,257.654a4.325,4.325,0,0,0-6.084,6.149l6.6,6.53L444.26,258.1Z" transform="translate(-436.442 -256.367)" fill="#fe5e5a"/>
        <path id="Path_12180" data-name="Path 12180" d="M446.972,257.639a4.325,4.325,0,0,1,6.149,6.084l-6.53,6.6-.064-12.233Z" transform="translate(-438.71 -256.356)" fill="#eb4844"/>
      </g>
      <path id="Path_12181" data-name="Path 12181" d="M428.594,257.577s8.755,3.014,9.538,5.211-7.874.271-11.479-4.012Z" transform="translate(-377.515 -191.45)" fill="#fff"/>
      <g id="Group_3093" data-name="Group 3093" transform="translate(33.576 21.061)">
        <path id="Path_12182" data-name="Path 12182" d="M424.742,243.706c-.808,1.322-1.662,2.631-2.453,3.863-22.129-17.4-20.736-27.9,3.253-46.318,3.67-2.817,3.834-2.147,5.609.629.664-.22.654-.251,0,0,1.775,2.777.384,3.571-2.51,5.784C409.721,222.13,405.594,229.951,424.742,243.706Z" transform="translate(-406.577 -199.44)" fill="#76bbee"/>
      </g>
    </g>
    <g id="Group_3095" data-name="Group 3095" transform="translate(383.451 174.484)">
      <path id="Path_12183" data-name="Path 12183" d="M477.034,269.638l18.415-18.415v16.4l39.014-39.014v14.571l15.167-15.167" transform="translate(-477.034 -217.084)" fill="none" stroke="#1292f8" stroke-linecap="round" stroke-linejoin="round" stroke-width="4"/>
      <path id="Path_12184" data-name="Path 12184" d="M581.1,213.913l-18.516,4.961,13.554,13.554Z" transform="translate(-496.27 -213.913)" fill="#1292f8"/>
    </g>
    <circle id="Ellipse_380" data-name="Ellipse 380" cx="8.167" cy="8.167" r="8.167" transform="translate(400.666 108.351)" fill="#fff"/>
    <circle id="Ellipse_381" data-name="Ellipse 381" cx="8.167" cy="8.167" r="8.167" transform="translate(145.042 322.562)" fill="#fff"/>
    <circle id="Ellipse_382" data-name="Ellipse 382" cx="8.167" cy="8.167" r="8.167" transform="translate(741.989 419.09)" fill="#fff"/>
    <circle id="Ellipse_383" data-name="Ellipse 383" cx="8.167" cy="8.167" r="8.167" transform="translate(504.456 332.793)" fill="#fff"/>
    <circle id="Ellipse_384" data-name="Ellipse 384" cx="5.745" cy="5.745" r="5.745" transform="translate(388.069 132.785)" fill="#fff"/>
    <circle id="Ellipse_385" data-name="Ellipse 385" cx="5.745" cy="5.745" r="5.745" transform="translate(522.886 358.253)" fill="#fff"/>
    <circle id="Ellipse_386" data-name="Ellipse 386" cx="5.745" cy="5.745" r="5.745" transform="translate(123.283 346.981)" fill="#fff"/>
    <g id="Group_3096" data-name="Group 3096" transform="translate(480.981 421.107)">
      <path id="Path_12185" data-name="Path 12185" d="M638.64,546.979a37.229,37.229,0,0,0-35.787,26.979h71.573A37.227,37.227,0,0,0,638.64,546.979Z" transform="translate(-602.853 -535.421)" fill="#37718c"/>
      <path id="Path_12186" data-name="Path 12186" d="M764.589,546.979A37.229,37.229,0,0,0,728.8,573.958h71.573A37.227,37.227,0,0,0,764.589,546.979Z" transform="translate(-631.171 -535.421)" fill="#37718c"/>
      <path id="Path_12187" data-name="Path 12187" d="M700.138,532.069a53.176,53.176,0,0,0-51.117,38.537H751.254A53.175,53.175,0,0,0,700.138,532.069Z" transform="translate(-613.233 -532.069)" fill="#37718c"/>
    </g>
  </g>
</svg>
