<svg xmlns="http://www.w3.org/2000/svg" xmlns:xlink="http://www.w3.org/1999/xlink" width="87" height="83" viewBox="0 0 87 83"><defs><style>.a{fill:none;}.b{clip-path:url(#a);}.c{fill:#d4f3e2;}.c,.e{fill-rule:evenodd;}.d,.e{fill:#1392f8;}</style><clipPath id="a"><rect class="a" width="87" height="83" transform="translate(0 0.001)"/></clipPath></defs><g transform="translate(-0.301 0.025)"><g class="b" transform="translate(0.301 -0.025)"><path class="c" d="M33.386,30c.558-11.873-10.107-17.217-19.982-8.992S-1.235,35.041.275,40.687,10.127,52.166,21.7,51.863,32.8,41.872,33.386,30" transform="translate(-0.302 -13.058)"/><path class="c" d="M213.546,141.55c-4.461-16.66-19.448-21.7-25.977-12.919-6.529,8.76,1.975,24.583-16.288,33.017-12.71,6.39-4.182,21.771,15.056,15.1s31.67-18.519,27.208-35.2" transform="translate(-127.16 -95.449)"/><path class="d" d="M99.148,82.95H71.266a7.793,7.793,0,0,1-7.784-7.784V7.784A7.793,7.793,0,0,1,71.266,0H99.148a7.793,7.793,0,0,1,7.784,7.784v6.064a1.975,1.975,0,0,1-3.95,0V7.784A3.838,3.838,0,0,0,99.148,3.95H71.266a3.838,3.838,0,0,0-3.834,3.834V75.166A3.838,3.838,0,0,0,71.266,79H99.148a3.838,3.838,0,0,0,3.834-3.834V63.99a1.975,1.975,0,0,1,3.95,0V75.166a7.793,7.793,0,0,1-7.784,7.784" transform="translate(-49.033 0.025)"/><rect class="d" width="39.128" height="1.975" transform="translate(17.304 9.493) rotate(-0.169)"/><rect class="d" width="39.152" height="1.975" transform="matrix(1, -0.004, 0.004, 1, 16.885, 66.025)"/><path class="d" d="M104.161,90.725H90.219a.987.987,0,0,1,0-1.975h13.941a.987.987,0,0,1,0,1.975" transform="translate(-68.8 -68.103)"/><path class="d" d="M104.162,125.495h0l-13.941-.07a.988.988,0,0,1,0-1.975h.005l13.941.07a.988.988,0,0,1,0,1.975" transform="translate(-68.801 -94.741)"/><path class="d" d="M114.454,228.648h0l-24.234-.023a.988.988,0,0,1,0-1.975h0l24.234.023a.988.988,0,0,1,0,1.975" transform="translate(-68.8 -173.962)"/><path class="d" d="M93.705,263.571h-.013l-3.485-.046a.988.988,0,0,1,.013-1.975h.013l3.485.046a.988.988,0,0,1-.013,1.975" transform="translate(-68.8 -200.753)"/><path class="d" d="M204.406,263.571h-.013l-3.485-.046a.988.988,0,0,1,.013-1.975h.013l3.485.046a.988.988,0,0,1-.013,1.975" transform="translate(-153.78 -200.753)"/><path class="d" d="M137.467,263.571h0l-13.546-.046a.988.988,0,0,1,0-1.975h0l13.546.046a.988.988,0,0,1,0,1.975" transform="translate(-94.67 -200.753)"/><path class="d" d="M98.585,193.648h0l-8.365-.023a.988.988,0,0,1,0-1.975h0l8.365.023a.988.988,0,0,1,0,1.975" transform="translate(-68.801 -147.094)"/><path class="d" d="M147.343,193.725H141.72a.987.987,0,0,1,0-1.975h5.623a.987.987,0,1,1,0,1.975" transform="translate(-108.334 -147.171)"/><path class="d" d="M93.706,160.648H93.7l-3.485-.023a.988.988,0,0,1,.013-1.975l3.485.023a.988.988,0,0,1-.007,1.975" transform="translate(-68.801 -121.761)"/><path class="d" d="M127.313,160.648h-.007l-3.392-.023a.988.988,0,0,1,.007-1.975h.007l3.392.023a.988.988,0,0,1-.007,1.975" transform="translate(-94.67 -121.762)"/><path class="d" d="M169.707,90.725h-3.787a.987.987,0,0,1,0-1.975h3.787a.987.987,0,1,1,0,1.975" transform="translate(-126.911 -68.103)"/><path class="d" d="M142.284,26.425H138.52a.987.987,0,1,1,0-1.975h3.764a.987.987,0,0,1,0,1.975" transform="translate(-105.877 -18.744)"/><path class="e" d="M169.359,24.5a.976.976,0,1,1-.976.976.976.976,0,0,1,.976-.976" transform="translate(-129.56 -18.782)"/><path class="d" d="M146.043,310.872a3.311,3.311,0,1,1,3.311-3.311,3.315,3.315,0,0,1-3.311,3.311m0-4.647a1.336,1.336,0,1,0,1.336,1.336,1.338,1.338,0,0,0-1.336-1.336" transform="translate(-109.869 -233.531)"/><path class="d" d="M223.68,205.643a5.147,5.147,0,1,1,5.146-5.147,5.152,5.152,0,0,1-5.146,5.147m0-8.318a3.172,3.172,0,1,0,3.171,3.172,3.175,3.175,0,0,0-3.171-3.172" transform="translate(-168.057 -149.935)"/><path class="d" d="M190.681,164.746a3.588,3.588,0,0,1-2.545-1.053,3.63,3.63,0,0,1,0-5.091l1.44-1.441a14.52,14.52,0,0,1,20.086-.478,1.217,1.217,0,0,1,.151.126l1.39,1.39a3.445,3.445,0,0,1,1.04,2.518,3.578,3.578,0,0,1-6.1,2.534l-1.03-.983a7.388,7.388,0,0,0-10.446-.016l-1.441,1.441a3.589,3.589,0,0,1-2.545,1.053m9.178-9.886a12.5,12.5,0,0,0-8.885,3.7L189.532,160a1.646,1.646,0,0,0,.008,2.306,1.624,1.624,0,0,0,2.29-.008l1.441-1.441a9.373,9.373,0,0,1,13.223,0l1.03.983a1.618,1.618,0,0,0,2.268.016,1.6,1.6,0,0,0,.477-1.137,1.491,1.491,0,0,0-.437-1.1l-.017-.016-1.022-1.023-.324-.323a1.5,1.5,0,0,1-.143-.12,12.574,12.574,0,0,0-8.467-3.278m9.843,1.861h0Z" transform="translate(-143.923 -117.336)"/><path class="d" d="M162.786,129.961a3.368,3.368,0,0,1-2.383-5.751l1.557-1.557a1.548,1.548,0,0,1,.171-.146,23.634,23.634,0,0,1,31.816-.78,2.742,2.742,0,0,1,.522.415l.577.6a.912.912,0,0,1,.12.1l.86.86a3.438,3.438,0,0,1-.007,4.772l-.017.017a3.374,3.374,0,0,1-4.766,0l-1.222-1.221a16.754,16.754,0,0,0-11.56-4.583h-.091a16.782,16.782,0,0,0-11.628,4.724h0l-.01.01-1.557,1.557a3.359,3.359,0,0,1-2.383.985m.544-5.885-1.53,1.53a1.395,1.395,0,1,0,1.973,1.972l1.488-1.488a1.019,1.019,0,0,1,.174-.171,18.858,18.858,0,0,1,25.947-.079l.02.019,1.232,1.231a1.4,1.4,0,0,0,1.964.008,1.451,1.451,0,0,0,.032-2l-.752-.752a.919.919,0,0,1-.143-.12l-.674-.7a.743.743,0,0,0-.129-.106.959.959,0,0,1-.208-.14,21.66,21.66,0,0,0-29.242.667,1.453,1.453,0,0,1-.152.129m2.722,3.609h0Zm0,0h0Zm-3.93-5.171-.024.023.024-.023" transform="translate(-122.673 -88.985)"/><path class="d" d="M235.457,44.438a1.975,1.975,0,0,1-1.975-1.975V28.475a1.975,1.975,0,0,1,3.95,0V42.463a1.975,1.975,0,0,1-1.975,1.975" transform="translate(-179.533 -20.317)"/><path class="d" d="M235.457,273.538a1.975,1.975,0,0,1-1.975-1.975V257.575a1.975,1.975,0,0,1,3.95,0v13.988a1.975,1.975,0,0,1-1.975,1.975" transform="translate(-179.533 -196.185)"/></g></g></svg>