<svg xmlns="http://www.w3.org/2000/svg" width="18.712" height="18.713" viewBox="0 0 18.712 18.713">
  <path id="_07" data-name="07" d="M309.263,464.316a9.356,9.356,0,1,0,5.593,16.855l-.847-1.133a7.94,7.94,0,1,1,2.158-2.443H313.8a.177.177,0,0,1-.177-.177v-7.651h-1.415v1a4.828,4.828,0,1,0,.009,6.812,1.594,1.594,0,0,0,1.583,1.426h3.155l.208-.328a9.354,9.354,0,0,0-7.9-14.366Zm-.467,13.279a3.413,3.413,0,1,1,3.413-3.413A3.416,3.416,0,0,1,308.8,477.595Z" transform="translate(-299.907 -464.316)" fill="#76bbee"/>
</svg>
