<svg id="Group_3505" data-name="Group 3505" xmlns="http://www.w3.org/2000/svg" xmlns:xlink="http://www.w3.org/1999/xlink" width="78.868" height="75.159" viewBox="0 0 78.868 75.159">
  <defs>
    <clipPath id="clip-path">
      <rect id="Rectangle_1384" data-name="Rectangle 1384" width="78.868" height="75.159" fill="none"/>
    </clipPath>
  </defs>
  <g id="Group_3504" data-name="Group 3504" clip-path="url(#clip-path)">
    <path id="Path_14397" data-name="Path 14397" d="M211.3,237.077c-3.18,9.958,4.67,16.926,14.921,12.189s15.633-8.592,15.633-13.739S236.1,223.534,226.2,221.152s-11.713,5.968-14.893,15.926" transform="translate(-167.547 -175.627)" fill="#d4f3e2" fill-rule="evenodd"/>
    <path id="Path_14398" data-name="Path 14398" d="M24.954,27.35c0,15.175,11.578,22.855,19.125,16.9S48,22.917,65.427,19.9c12.255-2.543,8.5-17.55-9.362-16.266S24.954,12.176,24.954,27.35" transform="translate(-19.854 -2.827)" fill="#d4f3e2" fill-rule="evenodd"/>
    <path id="Path_14399" data-name="Path 14399" d="M70.6,72.759H37.7a4.194,4.194,0,0,1-4.19-4.19V4.19A4.194,4.194,0,0,1,37.7,0H70.6a4.194,4.194,0,0,1,4.19,4.19V68.57a4.194,4.194,0,0,1-4.19,4.19M37.7,3.474a.716.716,0,0,0-.715.715V68.57a.716.716,0,0,0,.715.715H70.6a.716.716,0,0,0,.715-.715V4.19a.716.716,0,0,0-.715-.715Z" transform="translate(-26.659)" fill="#1392f8"/>
    <path id="Path_14400" data-name="Path 14400" d="M239.745,183.844H223.19a4.194,4.194,0,0,1-4.19-4.19V143.683a4.194,4.194,0,0,1,4.19-4.19h16.555a4.194,4.194,0,0,1,4.19,4.19v35.971a4.194,4.194,0,0,1-4.19,4.19M223.19,142.967a.716.716,0,0,0-.715.715v35.971a.716.716,0,0,0,.715.715h16.555a.716.716,0,0,0,.715-.715V143.683a.716.716,0,0,0-.715-.715Z" transform="translate(-174.241 -110.983)" fill="#1392f8"/>
    <path id="Path_14401" data-name="Path 14401" d="M81.555,51.734H73.686A1.688,1.688,0,0,1,72,50.048V42.179a1.688,1.688,0,0,1,1.686-1.686h7.869a1.688,1.688,0,0,1,1.686,1.686v7.869a1.688,1.688,0,0,1-1.686,1.686M73.737,50H81.5V42.23H73.737Z" transform="translate(-57.285 -32.217)" fill="#1392f8"/>
    <path id="Path_14402" data-name="Path 14402" d="M81.555,95.238H73.686A1.688,1.688,0,0,1,72,93.551V90.179a1.688,1.688,0,0,1,1.686-1.686h7.869a1.688,1.688,0,0,1,1.686,1.686v3.372a1.688,1.688,0,0,1-1.686,1.686M73.737,93.5H81.5V90.23H73.737Z" transform="translate(-57.285 -70.407)" fill="#1392f8"/>
    <path id="Path_14403" data-name="Path 14403" d="M149.555,51.734h-7.869A1.688,1.688,0,0,1,140,50.048V42.179a1.688,1.688,0,0,1,1.686-1.686h7.869a1.688,1.688,0,0,1,1.686,1.686v7.869a1.688,1.688,0,0,1-1.686,1.686M141.737,50H149.5V42.23h-7.766Z" transform="translate(-111.387 -32.217)" fill="#1392f8"/>
    <path id="Path_14404" data-name="Path 14404" d="M149.555,95.238h-7.869A1.688,1.688,0,0,1,140,93.551V90.179a1.688,1.688,0,0,1,1.686-1.686h7.869a1.688,1.688,0,0,1,1.686,1.686v3.372a1.688,1.688,0,0,1-1.686,1.686M141.737,93.5H149.5V90.23h-7.766Z" transform="translate(-111.387 -70.407)" fill="#1392f8"/>
    <path id="Path_14405" data-name="Path 14405" d="M81.555,151.734H73.686A1.688,1.688,0,0,1,72,150.048v-7.869a1.688,1.688,0,0,1,1.686-1.686h7.869a1.688,1.688,0,0,1,1.686,1.686v7.869a1.688,1.688,0,0,1-1.686,1.686M73.737,150H81.5V142.23H73.737Z" transform="translate(-57.285 -111.779)" fill="#1392f8"/>
    <path id="Path_14406" data-name="Path 14406" d="M81.555,195.238H73.686A1.688,1.688,0,0,1,72,193.551v-3.372a1.688,1.688,0,0,1,1.686-1.686h7.869a1.688,1.688,0,0,1,1.686,1.686v3.372a1.688,1.688,0,0,1-1.686,1.686M73.737,193.5H81.5v-3.27H73.737Z" transform="translate(-57.285 -149.969)" fill="#1392f8"/>
    <path id="Path_14407" data-name="Path 14407" d="M147.555,261.566h-7.869A1.688,1.688,0,0,1,138,259.88v-18.7a1.688,1.688,0,0,1,1.686-1.686h7.869a1.688,1.688,0,0,1,1.686,1.686v18.7a1.688,1.688,0,0,1-1.686,1.686m-7.818-1.737H147.5v-18.6h-7.766Z" transform="translate(-109.796 -190.545)" fill="#1392f8"/>
    <path id="Path_14408" data-name="Path 14408" d="M147.555,261.566h-7.869A1.688,1.688,0,0,1,138,259.88v-18.7a1.688,1.688,0,0,1,1.686-1.686h7.869a1.688,1.688,0,0,1,1.686,1.686v18.7a1.688,1.688,0,0,1-1.686,1.686m-7.818-1.737H147.5v-18.6h-7.766Z" transform="translate(-109.796 -190.545)" fill="#1392f8"/>
    <path id="Path_14409" data-name="Path 14409" d="M81.555,251.53H73.686A1.688,1.688,0,0,1,72,249.843v-7.664a1.688,1.688,0,0,1,1.686-1.686h7.869a1.688,1.688,0,0,1,1.686,1.686v7.664a1.688,1.688,0,0,1-1.686,1.686m-7.818-1.737H81.5V242.23H73.737Z" transform="translate(-57.285 -191.341)" fill="#1392f8"/>
    <path id="Path_14410" data-name="Path 14410" d="M147.555,151.734h-7.869A1.688,1.688,0,0,1,138,150.048v-7.869a1.688,1.688,0,0,1,1.686-1.686h7.869a1.688,1.688,0,0,1,1.686,1.686v7.869a1.688,1.688,0,0,1-1.686,1.686M139.737,150H147.5V142.23h-7.766Z" transform="translate(-109.796 -111.779)" fill="#1392f8"/>
    <path id="Path_14411" data-name="Path 14411" d="M259.555,188.734h-7.869A1.688,1.688,0,0,1,250,187.048v-7.869a1.688,1.688,0,0,1,1.686-1.686h7.869a1.688,1.688,0,0,1,1.686,1.686v7.869a1.688,1.688,0,0,1-1.686,1.686M251.737,187H259.5V179.23h-7.766Z" transform="translate(-198.905 -141.217)" fill="#1392f8"/>
    <path id="Path_14412" data-name="Path 14412" d="M259.555,188.734h-7.869A1.688,1.688,0,0,1,250,187.048v-7.869a1.688,1.688,0,0,1,1.686-1.686h7.869a1.688,1.688,0,0,1,1.686,1.686v7.869a1.688,1.688,0,0,1-1.686,1.686M251.737,187H259.5V179.23h-7.766Z" transform="translate(-198.905 -141.217)" fill="#1392f8"/>
    <path id="Path_14413" data-name="Path 14413" d="M259.555,262.734h-7.869A1.688,1.688,0,0,1,250,261.048v-7.869a1.688,1.688,0,0,1,1.686-1.686h7.869a1.688,1.688,0,0,1,1.686,1.686v7.869a1.688,1.688,0,0,1-1.686,1.686M251.737,261H259.5V253.23h-7.766Z" transform="translate(-198.905 -200.093)" fill="#1392f8"/>
    <path id="Path_14414" data-name="Path 14414" d="M147.555,157.048h-7.869A1.688,1.688,0,0,1,138,155.362V142.179a1.688,1.688,0,0,1,1.686-1.686h7.869a1.688,1.688,0,0,1,1.686,1.686v13.183a1.688,1.688,0,0,1-1.686,1.686m-7.818-1.737H147.5V142.23h-7.766Z" transform="translate(-109.796 -111.779)" fill="#1392f8"/>
    <path id="Path_14415" data-name="Path 14415" d="M77.131,343.024h0l-75.394-.056a1.737,1.737,0,0,1,0-3.474h0l75.394.056a1.737,1.737,0,0,1,0,3.474" transform="translate(0 -270.108)" fill="#1392f8"/>
  </g>
</svg>
