<svg xmlns="http://www.w3.org/2000/svg" xmlns:xlink="http://www.w3.org/1999/xlink" width="77.723" height="72.709" viewBox="0 0 77.723 72.709">
  <defs>
    <clipPath id="clip-path">
      <rect id="Rectangle_1447" data-name="Rectangle 1447" width="85.919" height="65.349" fill="none"/>
    </clipPath>
  </defs>
  <g id="Group_3544" data-name="Group 3544" transform="translate(4.057 3.68) scale(0.839 1)">
    <g id="Group_3543" data-name="Group 3543" clip-path="url(#clip-path)">
      <path id="Path_14513" data-name="Path 14513" d="M9.862,86.82c5.877,4.418,13.884,9.427,25.639,7.889s-.237-11.932,1.262-21S23.53,57.474,7.811,65.126,3.985,82.422,9.862,86.82" transform="translate(0 -49.683)" fill="#d4f3e2" fill-rule="evenodd"/>
      <path id="Path_14514" data-name="Path 14514" d="M317.731,164.613c7.987,0,13.431-3.767,11.7-11.36s-4.339-13.214-14.4-14.555-14.831,8.6-8.3,12.819,3.018,13.1,11,13.1" transform="translate(-243.83 -111.245)" fill="#d4f3e2" fill-rule="evenodd"/>
      <path id="Path_14515" data-name="Path 14515" d="M124.958,202.754q-.533.266-1.006.532a6.479,6.479,0,0,0-7.2-.809,35.663,35.663,0,0,0-7.376,4.852l-2.781-.256-5.108-4.082c1.42.394,2.879.769,4.161,1.045a9.3,9.3,0,0,0,1.815.217,6.1,6.1,0,0,0,3.53-1.065c2.761-1.894,3.373-5.6,3.392-5.759a1.35,1.35,0,0,0-.966-1.5l-17.75-4.97a1.116,1.116,0,0,0-.355-.059H67.349a1.341,1.341,0,0,0,0,2.682H95.138l16.29,4.576a5.623,5.623,0,0,1-1.952,2.82,4.021,4.021,0,0,1-3.235.453c-4.1-.907-10.453-2.9-10.512-2.919a1.343,1.343,0,0,0-1.243,2.327l10.749,8.6a1.519,1.519,0,0,0,.71.3l3.787.355,7.79.73a1.312,1.312,0,0,0,1.163-.493c.02-.02,1.874-2.248,7.514-5.167a3.625,3.625,0,0,1,3.708.118l-9.348,9.348-15.3,1.026-20.136-8.48a1.134,1.134,0,0,0-.513-.1H67.349a1.341,1.341,0,0,0,0,2.682H84.291l20.2,8.5a1.133,1.133,0,0,0,.513.1h.1l16.132-1.085a1.358,1.358,0,0,0,.868-.394l10.749-10.749a1.342,1.342,0,0,0,.059-1.834,6.554,6.554,0,0,0-7.948-1.538m-7.85,5.305-3.846-.355a41.052,41.052,0,0,1,4.733-2.82,3.633,3.633,0,0,1,3.373-.079,24.569,24.569,0,0,0-4.26,3.254" transform="translate(-52.99 -153.251)" fill="#1392f8"/>
      <path id="Path_14516" data-name="Path 14516" d="M104,217.6a1.39,1.39,0,0,1-.623-.125L83.238,209H66.346a1.588,1.588,0,0,1,0-3.175H83.6a1.39,1.39,0,0,1,.623.124l20.068,8.451,15.154-1.016,9.055-9.055a3.371,3.371,0,0,0-3.185.043c-5.3,2.741-7.239,4.873-7.443,5.107l0,0a1.563,1.563,0,0,1-1.374.581l-11.579-1.085a1.78,1.78,0,0,1-.841-.349l-10.749-8.6a1.59,1.59,0,0,1,1.469-2.756c.062.02,6.393,2.007,10.493,2.914a3.781,3.781,0,0,0,3.043-.417,5.192,5.192,0,0,0,1.768-2.451l-16-4.494H66.346a1.588,1.588,0,0,1,0-3.175H94.313a1.364,1.364,0,0,1,.433.072l17.738,4.966a1.591,1.591,0,0,1,1.144,1.772c0,.033-.61,3.947-3.5,5.926a6.316,6.316,0,0,1-3.673,1.108,9.521,9.521,0,0,1-1.867-.223c-.887-.191-1.9-.438-3.023-.735l4.122,3.294,2.6.24a36.3,36.3,0,0,1,7.346-4.815,6.77,6.77,0,0,1,7.335.733c.275-.152.568-.305.871-.457a6.778,6.778,0,0,1,8.247,1.6,1.585,1.585,0,0,1-.072,2.169L121.27,216.046a1.616,1.616,0,0,1-1.027.466L104.111,217.6Zm-37.65-11.281a1.094,1.094,0,0,0,0,2.189H83.338l.046.019,20.2,8.5a.892.892,0,0,0,.417.079h.1l16.116-1.084a1.116,1.116,0,0,0,.71-.323l10.749-10.749a1.092,1.092,0,0,0,.049-1.5,6.284,6.284,0,0,0-7.65-1.483l0,0c-.35.175-.685.353-1,.527l-.146.082-.13-.1a6.318,6.318,0,0,0-6.931-.782,35.428,35.428,0,0,0-7.325,4.816l-.08.072-2.962-.273-.058-.046-6.05-4.835,1.162.323c1.578.438,2.973.789,4.147,1.042a9.063,9.063,0,0,0,1.77.211,5.847,5.847,0,0,0,3.384-1.023c2.711-1.859,3.282-5.549,3.286-5.585a1.1,1.1,0,0,0-.787-1.23L94.6,190.194a.9.9,0,0,0-.289-.05H66.346a1.094,1.094,0,0,0,0,2.189H94.169l.033.009,16.543,4.647-.086.247a5.872,5.872,0,0,1-2.047,2.943,4.247,4.247,0,0,1-3.424.491c-4.139-.915-10.485-2.908-10.538-2.926a1.1,1.1,0,0,0-1.01,1.9l10.747,8.6a1.272,1.272,0,0,0,.593.245l11.562,1.083a1.072,1.072,0,0,0,.946-.4l.02-.023c.205-.236,2.205-2.433,7.575-5.212a3.869,3.869,0,0,1,3.953.129l.261.165-9.632,9.632L104.211,214.9l-.054-.022L84.02,206.4a.891.891,0,0,0-.417-.079Zm49.851,1-4.639-.428.56-.386a41.451,41.451,0,0,1,4.762-2.837,3.888,3.888,0,0,1,3.59-.081l.4.192-.379.239a24.379,24.379,0,0,0-4.217,3.22Zm-3.229-.793,3.045.281a24.515,24.515,0,0,1,3.818-2.95,3.364,3.364,0,0,0-2.725.249,40.671,40.671,0,0,0-4.138,2.42" transform="translate(-51.987 -152.248)" fill="#1392f8"/>
      <path id="Path_14517" data-name="Path 14517" d="M351.937,159.563a1.339,1.339,0,0,0-1.894,0,1.358,1.358,0,0,0,0,1.893l4.3,4.3a1.322,1.322,0,0,0,1.893,0l4.3-4.3a1.339,1.339,0,0,0,0-1.893,1.357,1.357,0,0,0-1.893,0l-2.012,1.992v-7.514a1.341,1.341,0,1,0-2.682,0v7.514Z" transform="translate(-280.699 -122.584)" fill="#1392f8"/>
      <path id="Path_14518" data-name="Path 14518" d="M354.3,165.4a1.586,1.586,0,0,1-1.128-.471l-4.3-4.3a1.607,1.607,0,0,1,0-2.239,1.588,1.588,0,0,1,2.245,0l1.591,1.576v-6.923a1.588,1.588,0,0,1,3.175,0v6.923l1.592-1.576a1.607,1.607,0,0,1,2.238,0,1.585,1.585,0,0,1,0,2.245l-4.3,4.3a1.536,1.536,0,0,1-1.1.471Zm-4.306-6.984a1.089,1.089,0,0,0-.772.319,1.114,1.114,0,0,0,0,1.548l4.3,4.3a1.082,1.082,0,0,0,.79.327,1.05,1.05,0,0,0,.751-.324l4.3-4.3a1.092,1.092,0,0,0,0-1.545,1.114,1.114,0,0,0-1.548,0l-2.429,2.405v-8.105a1.095,1.095,0,0,0-2.189,0v8.105l-2.433-2.409a1.089,1.089,0,0,0-.772-.319" transform="translate(-279.7 -121.582)" fill="#1392f8"/>
      <path id="Path_14519" data-name="Path 14519" d="M372.75,123.768a1.342,1.342,0,0,0,1.341-1.341v-1.085a1.341,1.341,0,0,0-2.682,0v1.085a1.342,1.342,0,0,0,1.341,1.341" transform="translate(-298.159 -96.334)" fill="#1392f8"/>
      <path id="Path_14520" data-name="Path 14520" d="M147.143,45.836a1.322,1.322,0,0,0,1.893,0l4.3-4.3a1.339,1.339,0,0,0,0-1.893,1.357,1.357,0,0,0-1.893,0l-2.012,2.012V34.141a1.341,1.341,0,1,0-2.682,0v7.514l-2.012-2.012a1.339,1.339,0,0,0-1.893,0,1.357,1.357,0,0,0,0,1.893Z" transform="translate(-114.363 -26.331)" fill="#1392f8"/>
      <path id="Path_14521" data-name="Path 14521" d="M165.549,3.768a1.342,1.342,0,0,0,1.341-1.341V1.342a1.341,1.341,0,1,0-2.682,0V2.427a1.33,1.33,0,0,0,1.341,1.341" transform="translate(-131.823 -0.001)" fill="#1392f8"/>
      <path id="Path_14522" data-name="Path 14522" d="M81.643,111.257a1.322,1.322,0,0,0,1.893,0l4.3-4.3a1.339,1.339,0,0,0,0-1.893,1.357,1.357,0,0,0-1.893,0l-2.012,2.012V99.542a1.341,1.341,0,0,0-2.682,0v7.514l-2.012-2.012a1.339,1.339,0,0,0-1.893,0,1.357,1.357,0,0,0,0,1.893Z" transform="translate(-61.781 -78.834)" fill="#1392f8"/>
      <path id="Path_14523" data-name="Path 14523" d="M100.049,69.268a1.342,1.342,0,0,0,1.341-1.341V66.842a1.341,1.341,0,0,0-2.682,0v1.085a1.355,1.355,0,0,0,1.341,1.341" transform="translate(-79.241 -52.583)" fill="#1392f8"/>
      <path id="Path_14524" data-name="Path 14524" d="M232.868,39.518a14.259,14.259,0,1,1,14.259-14.259,14.275,14.275,0,0,1-14.259,14.259m0-25.165a10.906,10.906,0,1,0,10.906,10.906,10.919,10.919,0,0,0-10.906-10.906" transform="translate(-175.495 -8.831)" fill="#1392f8"/>
      <path id="Path_14525" data-name="Path 14525" d="M274.439,67.976a3.914,3.914,0,0,1-2.241-.629,2.6,2.6,0,0,1-1.14-2.2.838.838,0,1,1,1.676,0c0,1.071,1.305,1.154,1.7,1.154,1.11,0,2.3-.559,2.3-1.391,0-.71-.918-1.15-2.32-1.741-1.5-.632-3.36-1.418-3.36-3.308,0-1.643,1.547-2.835,3.678-2.835s3.678,1.192,3.678,2.835a.838.838,0,0,1-1.676,0,.875.875,0,0,0-.494-.787,2.933,2.933,0,0,0-1.508-.372c-.8,0-2,.309-2,1.159,0,.724.925,1.168,2.336,1.763,1.49.629,3.344,1.411,3.344,3.286,0,1.92-2.021,3.067-3.975,3.067" transform="translate(-217.6 -45.778)" fill="#1392f8"/>
      <path id="Path_14526" data-name="Path 14526" d="M286.2,60.1a.838.838,0,0,1-.838-.838V45.788a.838.838,0,1,1,1.676,0v13.47a.838.838,0,0,1-.838.838" transform="translate(-229.079 -36.085)" fill="#1392f8"/>
    </g>
  </g>
</svg>
