<svg xmlns="http://www.w3.org/2000/svg" width="17.966" height="17.966" viewBox="0 0 17.966 17.966">
  <g id="Group_3164" data-name="Group 3164" transform="translate(-131.631 -458.083)">
    <path id="Path_12249" data-name="Path 12249" d="M212.339,506.238a2.539,2.539,0,0,1,2.536,2.536,1.074,1.074,0,0,0,2.149,0,4.69,4.69,0,0,0-4.685-4.685,1.075,1.075,0,1,0,0,2.149Z" transform="translate(-71.896 -41.536)" fill="#76bbee"/>
    <path id="Path_12250" data-name="Path 12250" d="M212.339,460.232a7.013,7.013,0,0,1,7.006,7.006,1.075,1.075,0,0,0,2.149,0,9.165,9.165,0,0,0-9.155-9.155,1.074,1.074,0,1,0,0,2.149Z" transform="translate(-71.896)" fill="#76bbee"/>
    <path id="Path_12251" data-name="Path 12251" d="M144.144,497.438a2.343,2.343,0,0,0,1.7-.562l1.006-1.006a1.528,1.528,0,0,0-.271-2.376l-3.015-1.581-.023-.01a1.519,1.519,0,0,0-1.569.368l-.631.631-.026.022c-.409.339-2.2-.54-3.71-2.049-1.437-1.437-1.825-2.68-1.459-3.12l.654-.657a1.529,1.529,0,0,0,.391-1.494l0-.016-1.6-3.086-.006-.011a1.528,1.528,0,0,0-2.376-.27l-1.006,1.006c-1.431,1.431-.114,5.951,3.79,9.858C138.866,495.966,142.081,497.438,144.144,497.438Z" transform="translate(0 -21.389)" fill="#76bbee"/>
  </g>
</svg>
