<svg id="Group_3492" data-name="Group 3492" xmlns="http://www.w3.org/2000/svg" xmlns:xlink="http://www.w3.org/1999/xlink" width="69.905" height="72.484" viewBox="0 0 69.905 72.484">
  <defs>
    <clipPath id="clip-path">
      <rect id="Rectangle_1374" data-name="Rectangle 1374" width="69.905" height="72.484" fill="none"/>
    </clipPath>
  </defs>
  <g id="Group_3491" data-name="Group 3491" clip-path="url(#clip-path)">
    <path id="Path_14313" data-name="Path 14313" d="M67.915,14.853c5.275-8.214-.121-16.4-10.514-14.6S41.223,4.223,39.979,8.865s2.3,12.211,10.653,16.753S62.64,23.066,67.915,14.853" transform="translate(-32.152 -0.001)" fill="#d4f3e2" fill-rule="evenodd"/>
    <path id="Path_14314" data-name="Path 14314" d="M125.534,213.955c3.668-13.688-4.92-23.415-13.167-19.866s-8.69,18.3-25.144,16.806c-11.67-.668-11.913,13.776,4.513,16.936s30.13-.188,33.8-13.876" transform="translate(-63.826 -156.449)" fill="#d4f3e2" fill-rule="evenodd"/>
    <path id="Path_14315" data-name="Path 14315" d="M6.633,56.827a6.633,6.633,0,0,1,0-13.265.811.811,0,1,1,0,1.622,5.01,5.01,0,1,0,5.01,5.01.811.811,0,0,1,1.622,0,6.64,6.64,0,0,1-6.633,6.633" transform="translate(0 -35.247)" fill="#1392f8"/>
    <path id="Path_14316" data-name="Path 14316" d="M143.967,44.9h-43.9a3.817,3.817,0,0,1-3.817-3.817V29.629a3.817,3.817,0,0,1,3.817-3.817h43.9a3.817,3.817,0,0,1,3.817,3.817V41.081a3.817,3.817,0,0,1-3.817,3.817m-43.9-15.842a.572.572,0,0,0-.573.573V41.081a.572.572,0,0,0,.573.573h43.9a.573.573,0,0,0,.573-.573V29.629a.573.573,0,0,0-.573-.573Z" transform="translate(-77.879 -20.885)" fill="#1392f8"/>
    <path id="Path_14317" data-name="Path 14317" d="M160.238,61.684H130.811a.811.811,0,1,1,0-1.622h29.427a.811.811,0,1,1,0,1.622" transform="translate(-105.187 -48.598)" fill="#1392f8"/>
    <path id="Path_14318" data-name="Path 14318" d="M153,83.684H130.811a.811.811,0,1,1,0-1.622H153a.811.811,0,0,1,0,1.622" transform="translate(-105.187 -66.399)" fill="#1392f8"/>
    <path id="Path_14319" data-name="Path 14319" d="M143.967,166.431h-43.9a3.817,3.817,0,0,1-3.817-3.817V151.161a3.817,3.817,0,0,1,3.817-3.817h43.9a3.817,3.817,0,0,1,3.817,3.817v11.452a3.817,3.817,0,0,1-3.817,3.817m-43.9-15.842a.572.572,0,0,0-.573.573v11.452a.572.572,0,0,0,.573.573h43.9a.573.573,0,0,0,.573-.573V151.161a.572.572,0,0,0-.573-.573Z" transform="translate(-77.879 -119.221)" fill="#1392f8"/>
    <path id="Path_14320" data-name="Path 14320" d="M160.238,183.216H130.811a.811.811,0,1,1,0-1.622h29.427a.811.811,0,0,1,0,1.622" transform="translate(-105.187 -146.934)" fill="#1392f8"/>
    <path id="Path_14321" data-name="Path 14321" d="M153,205.216H130.811a.811.811,0,1,1,0-1.622H153a.811.811,0,1,1,0,1.622" transform="translate(-105.187 -164.735)" fill="#1392f8"/>
    <path id="Path_14322" data-name="Path 14322" d="M8.549,177.409a6.3,6.3,0,1,1,6.3-6.3,6.306,6.306,0,0,1-6.3,6.3m0-10.975a4.676,4.676,0,1,0,4.676,4.676,4.682,4.682,0,0,0-4.676-4.676" transform="translate(-1.821 -133.355)" fill="#1392f8"/>
    <path id="Path_14323" data-name="Path 14323" d="M143.967,287.431h-43.9a3.817,3.817,0,0,1-3.817-3.817V272.161a3.817,3.817,0,0,1,3.817-3.817h43.9a3.817,3.817,0,0,1,3.817,3.817v11.452a3.817,3.817,0,0,1-3.817,3.817m-43.9-15.842a.573.573,0,0,0-.573.573v11.452a.573.573,0,0,0,.573.573h43.9a.573.573,0,0,0,.573-.573V272.161a.573.573,0,0,0-.573-.573Z" transform="translate(-77.879 -217.126)" fill="#1392f8"/>
    <path id="Path_14324" data-name="Path 14324" d="M160.238,304.216H130.811a.811.811,0,0,1,0-1.622h29.427a.811.811,0,1,1,0,1.622" transform="translate(-105.187 -244.839)" fill="#1392f8"/>
    <path id="Path_14325" data-name="Path 14325" d="M153,326.216H130.811a.811.811,0,1,1,0-1.622H153a.811.811,0,1,1,0,1.622" transform="translate(-105.187 -262.64)" fill="#1392f8"/>
    <path id="Path_14326" data-name="Path 14326" d="M8.549,298.409a6.3,6.3,0,1,1,6.3-6.3,6.306,6.306,0,0,1-6.3,6.3m0-10.975a4.676,4.676,0,1,0,4.676,4.676,4.682,4.682,0,0,0-4.676-4.676" transform="translate(-1.821 -231.26)" fill="#1392f8"/>
    <path id="Path_14327" data-name="Path 14327" d="M20.719,58.646a1.617,1.617,0,0,1-1.142-.47l-1.867-1.85a1.622,1.622,0,0,1,2.284-2.305l.725.719,3.29-3.259a1.622,1.622,0,0,1,2.284,2.305l-4.431,4.39a1.618,1.618,0,0,1-1.142.47" transform="translate(-13.941 -41.275)" fill="#1392f8"/>
  </g>
</svg>
