<svg xmlns="http://www.w3.org/2000/svg" width="20.286" height="20.332" viewBox="0 0 20.286 20.332">
  <g id="Group_3165" data-name="Group 3165" transform="translate(-300 -248.35)">
    <path id="Path_12252" data-name="Path 12252" d="M377.572,263.554l.006.005.006.006.016.015.021.02.022.019.022.019.022.018.023.018.023.016.023.016.025.016.023.014.026.015.023.013.028.014.022.011.03.013.021.009.032.012.02.008.033.011.019.006.035.01.018,0,.036.008.017,0,.038.007.016,0,.04,0,.014,0,.043,0h.133l.043,0,.016,0,.039,0,.017,0,.037-.006.018,0,.035-.008.019-.005.034-.009.02-.006.032-.011.021-.008.031-.012.022-.009.029-.013.022-.011.028-.014.023-.013.026-.015.023-.014.025-.016.023-.016.024-.017.023-.017.023-.018.022-.018.023-.02.02-.019.017-.016.006-.006.005-.005,5.358-5.432a1.14,1.14,0,1,0-1.623-1.6l-3.406,3.454V249.49a1.14,1.14,0,1,0-2.28,0v10.485l-3.406-3.454a1.14,1.14,0,0,0-1.623,1.6Z" transform="translate(-68.24)" fill="#76bbee"/>
    <path id="Path_12253" data-name="Path 12253" d="M319.147,530.859a1.14,1.14,0,0,0-1.14,1.14,2.588,2.588,0,0,1-2.585,2.585H304.864A2.588,2.588,0,0,1,302.28,532a1.14,1.14,0,1,0-2.28,0,4.87,4.87,0,0,0,4.864,4.864h10.558A4.87,4.87,0,0,0,320.286,532,1.14,1.14,0,0,0,319.147,530.859Z" transform="translate(0 -268.181)" fill="#76bbee"/>
  </g>
</svg>
