<svg id="Group_3412" data-name="Group 3412" xmlns="http://www.w3.org/2000/svg" xmlns:xlink="http://www.w3.org/1999/xlink" width="70.057" height="74.943" viewBox="0 0 70.057 74.943">
  <defs>
    <clipPath id="clip-path">
      <rect id="Rectangle_1342" data-name="Rectangle 1342" width="70.057" height="74.943" fill="none"/>
    </clipPath>
  </defs>
  <g id="Group_3411" data-name="Group 3411" clip-path="url(#clip-path)">
    <path id="Path_14027" data-name="Path 14027" d="M240.057,27.745c8.079,5.186,16.139-.113,14.373-10.353S250.522,1.459,245.957.238s-12.025,2.255-16.5,10.484c-4.491,8.248,2.5,11.837,10.6,17.022" transform="translate(-185.205 0)" fill="#d4f3e2" fill-rule="evenodd"/>
    <path id="Path_14028" data-name="Path 14028" d="M14.738,145.2c13.471,3.607,23.054-4.847,19.559-12.964s-18.018-8.549-16.553-24.745c.658-11.48-13.565-11.724-16.665,4.434s.188,29.648,13.659,33.275" transform="translate(0 -80.632)" fill="#d4f3e2" fill-rule="evenodd"/>
    <path id="Path_14029" data-name="Path 14029" d="M47.612,83.487H19.936a2.3,2.3,0,0,1-2.292-2.292V42.659a2.3,2.3,0,0,1,2.292-2.292H78.857a2.3,2.3,0,0,1,2.292,2.292V66.089a1.6,1.6,0,0,1-3.194,0V43.561H20.838V80.293H47.612a1.6,1.6,0,0,1,0,3.194" transform="translate(-14.329 -32.783)" fill="#1392f8"/>
    <path id="Path_14030" data-name="Path 14030" d="M124.168,267.936h-8.755a1.419,1.419,0,0,1-1.172-2.219l.011-.017,6.741-9.576a1.4,1.4,0,0,1,1.165-.608h3.232v1.6H122.25l-6.494,9.225h8.412Z" transform="translate(-92.576 -207.509)" fill="#1392f8"/>
    <path id="Path_14031" data-name="Path 14031" d="M111.717,319.825H89.866a3.075,3.075,0,0,1-3.072-3.072v-.864a3.075,3.075,0,0,1,3.072-3.072h21.851a.8.8,0,1,1,0,1.6H89.866a1.477,1.477,0,0,0-1.475,1.475v.864a1.477,1.477,0,0,0,1.475,1.475h21.851a.8.8,0,1,1,0,1.6" transform="translate(-70.487 -254.043)" fill="#1392f8"/>
    <path id="Path_14032" data-name="Path 14032" d="M22.693,206.408a.8.8,0,0,1,0-1.6l37.22-.094h0a.8.8,0,0,1,0,1.6l-37.22.094Z" transform="translate(-17.78 -166.254)" fill="#1392f8"/>
    <path id="Path_14033" data-name="Path 14033" d="M103.5,95.4H64.047a3.057,3.057,0,0,1-3.053-3.053V78.07a3.057,3.057,0,0,1,3.053-3.053H103.5a3.057,3.057,0,0,1,3.053,3.053V92.349A3.057,3.057,0,0,1,103.5,95.4M64.047,76.614a1.458,1.458,0,0,0-1.456,1.456V92.349a1.458,1.458,0,0,0,1.456,1.456H103.5a1.458,1.458,0,0,0,1.456-1.456V78.07a1.458,1.458,0,0,0-1.456-1.456Z" transform="translate(-49.534 -60.922)" fill="#0094ff"/>
    <rect id="Rectangle_1339" data-name="Rectangle 1339" width="43.402" height="1.597" transform="translate(12.728 18.416)" fill="#0094ff"/>
    <path id="Path_14034" data-name="Path 14034" d="M76.4,87.767h0a.658.658,0,1,1-.658.658.666.666,0,0,1,.658-.658" transform="translate(-61.513 -71.277)" fill="#1392f8" fill-rule="evenodd"/>
    <path id="Path_14035" data-name="Path 14035" d="M87.4,87.767h0a.658.658,0,1,1-.658.658.666.666,0,0,1,.658-.658" transform="translate(-70.446 -71.277)" fill="#1392f8" fill-rule="evenodd"/>
    <path id="Path_14036" data-name="Path 14036" d="M98.4,87.767h0a.658.658,0,1,1-.658.658.666.666,0,0,1,.658-.658" transform="translate(-79.379 -71.277)" fill="#1392f8" fill-rule="evenodd"/>
    <path id="Path_14037" data-name="Path 14037" d="M95.291,121.372a.8.8,0,0,1-.084-1.593l.526-.056a.8.8,0,0,1,.17,1.588l-.526.056a.835.835,0,0,1-.086,0" transform="translate(-76.74 -97.226)" fill="#1392f8"/>
    <path id="Path_14038" data-name="Path 14038" d="M140.937,121.814H116.493a.8.8,0,1,1,0-1.6h24.444a.8.8,0,0,1,0,1.6" transform="translate(-93.957 -97.63)" fill="#1392f8"/>
    <path id="Path_14039" data-name="Path 14039" d="M95.291,149.372a.8.8,0,0,1-.084-1.593l.526-.056a.8.8,0,0,1,.17,1.588l-.526.056a.833.833,0,0,1-.086,0" transform="translate(-76.74 -119.964)" fill="#1392f8"/>
    <path id="Path_14040" data-name="Path 14040" d="M135.187,149.814H116.493a.8.8,0,1,1,0-1.6h18.695a.8.8,0,0,1,0,1.6" transform="translate(-93.957 -120.369)" fill="#1392f8"/>
    <path id="Path_14041" data-name="Path 14041" d="M255.374,205.783l-2.069-2.088-2.085,2.086-2.064-2.083-2.067,2.086-2.069-2.088-2.086,2.086L240.87,203.7l-2.067,2.086-2.067-2.086-1.5,1.513-1.134-1.124,2.634-2.658,2.067,2.086,2.067-2.086,2.069,2.088,2.086-2.086,2.064,2.083,2.067-2.086,2.069,2.088,2.086-2.086,2.064,2.083,2.067-2.086,2.634,2.658-1.134,1.124-1.5-1.513Z" transform="translate(-190.118 -163.583)" fill="#1392f8"/>
    <path id="Path_14042" data-name="Path 14042" d="M257.452,380.182l-2.067-2.067-2.064,2.064-2.086-2.067-2.069,2.069-2.067-2.067-2.064,2.064-2.086-2.067-2.069,2.069-2.067-2.067-2.067,2.067-2.631-2.632,1.129-1.129,1.5,1.5,2.067-2.067,2.067,2.067,2.064-2.064,2.086,2.067,2.069-2.069,2.067,2.067,2.064-2.064,2.085,2.067,2.069-2.069,2.067,2.067,1.5-1.5,1.129,1.129Z" transform="translate(-190.129 -305.239)" fill="#1392f8"/>
    <rect id="Rectangle_1340" data-name="Rectangle 1340" width="1.597" height="31.809" transform="translate(43.847 40.502)" fill="#1392f8"/>
    <rect id="Rectangle_1341" data-name="Rectangle 1341" width="1.597" height="31.809" transform="translate(68.46 40.502)" fill="#1392f8"/>
    <path id="Path_14043" data-name="Path 14043" d="M324.857,319.258a2.4,2.4,0,0,1-2.686-2.293.8.8,0,1,1,1.6,0c0,.645.833.7,1.089.7.72,0,1.523-.355,1.523-.865,0-.864-.819-1.261-2.069-1.769-1-.407-2.139-.869-2.139-2.007,0-1.32,1.221-2.278,2.9-2.278s2.9.958,2.9,2.278a.8.8,0,0,1-1.6,0c0-.077,0-.256-.282-.433a2,2,0,0,0-1.024-.248c-.491,0-1.261.175-1.3.64a4.688,4.688,0,0,0,1.142.568c1.221.5,3.065,1.245,3.065,3.249,0,1.541-1.586,2.462-3.12,2.462" transform="translate(-261.64 -252.358)" fill="#1392f8"/>
    <path id="Path_14044" data-name="Path 14044" d="M333.769,312.516a.8.8,0,0,1-.8-.8v-10.2a.8.8,0,1,1,1.6,0v10.2a.8.8,0,0,1-.8.8" transform="translate(-270.41 -244.217)" fill="#1392f8"/>
    <path id="Path_14045" data-name="Path 14045" d="M255.868,314.032a.8.8,0,0,1-.053-1.6l.282-.019a.8.8,0,0,1,.107,1.593l-.282.019-.054,0" transform="translate(-207.146 -253.718)" fill="#1392f8"/>
    <path id="Path_14046" data-name="Path 14046" d="M277.254,314.214h-4.885a.8.8,0,1,1,0-1.6h4.885a.8.8,0,1,1,0,1.6" transform="translate(-220.546 -253.881)" fill="#1392f8"/>
    <path id="Path_14047" data-name="Path 14047" d="M255.868,329.932a.8.8,0,0,1-.052-1.6l.282-.019a.8.8,0,0,1,.106,1.594l-.282.019-.054,0" transform="translate(-207.146 -266.63)" fill="#1392f8"/>
    <path id="Path_14048" data-name="Path 14048" d="M277.254,330.115h-4.885a.8.8,0,1,1,0-1.6h4.885a.8.8,0,1,1,0,1.6" transform="translate(-220.546 -266.794)" fill="#1392f8"/>
    <path id="Path_14049" data-name="Path 14049" d="M255.868,346.832a.8.8,0,0,1-.053-1.6l.282-.019a.8.8,0,0,1,.107,1.593l-.282.019-.054,0" transform="translate(-207.146 -280.354)" fill="#1392f8"/>
    <path id="Path_14050" data-name="Path 14050" d="M277.254,347.014h-4.885a.8.8,0,1,1,0-1.6h4.885a.8.8,0,1,1,0,1.6" transform="translate(-220.546 -280.518)" fill="#1392f8"/>
    <path id="Path_14051" data-name="Path 14051" d="M284.076,242.714h-9.507a.8.8,0,1,1,0-1.6h9.507a.8.8,0,1,1,0,1.6" transform="translate(-222.333 -195.815)" fill="#1392f8"/>
    <path id="Path_14052" data-name="Path 14052" d="M275.462,257.914H260.77a.8.8,0,1,1,0-1.6h14.693a.8.8,0,1,1,0,1.6" transform="translate(-211.126 -208.159)" fill="#1392f8"/>
    <path id="Path_14053" data-name="Path 14053" d="M261.474,273.314h-5.505a.8.8,0,1,1,0-1.6h5.505a.8.8,0,1,1,0,1.6" transform="translate(-207.227 -220.665)" fill="#1392f8"/>
    <path id="Path_14054" data-name="Path 14054" d="M318.824,273.314h-5.655a.8.8,0,1,1,0-1.6h5.655a.8.8,0,1,1,0,1.6" transform="translate(-253.68 -220.665)" fill="#1392f8"/>
    <path id="Path_14055" data-name="Path 14055" d="M140.751,256.061h-14.11a1.6,1.6,0,1,1,0-3.194h14.11a1.6,1.6,0,1,1,0,3.194" transform="translate(-101.55 -205.357)" fill="#1392f8"/>
  </g>
</svg>
