<svg xmlns="http://www.w3.org/2000/svg" width="81.529" height="33" viewBox="0 0 81.529 33">
  <g id="footer-eta.9aaef09c" transform="translate(0 -11)">
    <path id="path827" d="M47.19,15.873V30.514a7.143,7.143,0,0,0,7.466,7.466,7.022,7.022,0,0,0,7.394-6.649H58.442a3.641,3.641,0,0,1-3.786,3.29,3.7,3.7,0,0,1-3.86-3.86V23.8h9.482V20.481H50.8V15.873ZM36.127,20.023a8.981,8.981,0,0,0,0,17.957c3.875,0,6.832-1.912,8.042-5.154H40.223a4.772,4.772,0,0,1-4.132,2.111,5.156,5.156,0,0,1-5.038-3.971l-.176-.654H44.757A10.051,10.051,0,0,0,42.44,22.7a8.4,8.4,0,0,0-6.313-2.674Zm35.931.071c-4.541,0-8.1,3.928-8.1,8.942,0,4.995,3.558,8.908,8.1,8.908a6.973,6.973,0,0,0,5.182-2.16l.894-.939v2.712h3.395V20.481H78.135v2.713l-.894-.94a6.971,6.971,0,0,0-5.182-2.16ZM36.091,23.066A5.075,5.075,0,0,1,41.13,26.9l.174.652H30.916l.214-.675A5.15,5.15,0,0,1,36.091,23.066Zm36.671.281a5.471,5.471,0,0,1,5.162,5.724,5.411,5.411,0,0,1-5.162,5.619A5.347,5.347,0,0,1,67.6,29.072c0-3.21,2.267-5.724,5.162-5.724ZM.228,24.7a16.589,16.589,0,0,0,0,5.489H4.076l-.046,0c.062,0,.123-.005.184-.011a2.741,2.741,0,0,1,0-5.462c-.061-.005-.121-.009-.184-.011.016,0,.031,0,.046,0H.228Zm.294,6.906A16.441,16.441,0,0,0,3.1,37.094h4.61a2.745,2.745,0,0,1,0-5.489Zm3.691,6.906a16.483,16.483,0,0,0,8.878,5.136,2.745,2.745,0,0,0-1.347-5.136H4.213Z" fill="#a3a3a3"/>
    <path id="path829" d="M4.076,24.7l-.047,0c.062,0,.123.005.184.011s.122-.009.184-.011a2.742,2.742,0,0,1,0,5.483c-.062,0-.123-.006-.184-.011s-.122.009-.184.011l.047,0h7.961a2.745,2.745,0,1,1,0-5.489H4.085Zm12.9,6.906a2.745,2.745,0,0,1,0,5.489h3.559a2.745,2.745,0,1,0,0-5.489Z" fill="#a3a3a3"/>
    <path id="path831" d="M4.4,24.7c-.062,0-.123.005-.184.011a2.741,2.741,0,0,0,0,5.462c.061.005.122.009.184.011a2.742,2.742,0,0,0,0-5.483Zm3.307,6.9a2.745,2.745,0,0,0,0,5.489h9.271a2.745,2.745,0,0,0,0-5.489H7.7Zm4.039,6.906a2.745,2.745,0,0,1,1.347,5.136A16.557,16.557,0,0,0,16.5,44h2.121a2.745,2.745,0,1,0,0-5.489Z" fill="#a3a3a3"/>
    <path id="path833" d="M16.5,11a16.643,16.643,0,0,0-1.748.093,2.745,2.745,0,0,1,.07,5.285h2.822a2.762,2.762,0,0,0,.964-.173A2.744,2.744,0,0,0,17.542,11l-.322,0H16.5ZM9.374,17.794a2.744,2.744,0,1,1,0,5.488h4.8a2.744,2.744,0,1,0,0-5.488ZM13.662,24.7a2.745,2.745,0,0,1,.554,5.433,2.775,2.775,0,0,1-.552.056h3.343a2.745,2.745,0,0,0,0-5.489Z" fill="#a3a3a3"/>
    <path id="path835" d="M14.752,11.093a16.389,16.389,0,0,0-4.657,1.2,2.743,2.743,0,0,0,1.468,4.061l.083.026h3.176a2.744,2.744,0,0,0-.07-5.284Zm-8.284,6.7a2.744,2.744,0,0,0,0,5.488h2.9a2.744,2.744,0,1,0,0-5.488H6.468ZM12.037,24.7a2.745,2.745,0,0,0,0,5.489h1.626a2.812,2.812,0,0,0,.552-.055,2.745,2.745,0,0,0-.554-5.434H12.037Z" fill="#a3a3a3"/>
    <path id="path837" d="M10.094,12.29a16.54,16.54,0,0,0-5.78,4.087h7.332l-.083-.026a2.743,2.743,0,0,1-1.469-4.061Zm-7,5.5A16.436,16.436,0,0,0,.522,23.283H6.47a2.745,2.745,0,0,1,0-5.489Z" fill="#a3a3a3"/>
  </g>
</svg>
