<svg id="Group_3552" data-name="Group 3552" xmlns="http://www.w3.org/2000/svg" xmlns:xlink="http://www.w3.org/1999/xlink" width="68.121" height="70.943" viewBox="0 0 68.121 70.943">
  <defs>
    <clipPath id="clip-path">
      <rect id="Rectangle_1455" data-name="Rectangle 1455" width="68.121" height="70.943" fill="none"/>
    </clipPath>
  </defs>
  <g id="Group_3551" data-name="Group 3551" clip-path="url(#clip-path)">
    <path id="Path_14588" data-name="Path 14588" d="M35.689,48.474c6.04-7.732,15.182-26.518,5.577-35.256S28.943,21.05,19.52,30.474-3.937,40.984,1.036,52.421s28.612,3.785,34.652-3.947" transform="translate(0 -8.587)" fill="#d4f3e2" fill-rule="evenodd"/>
    <path id="Path_14589" data-name="Path 14589" d="M238.47,273.375c1.887-1.887,6.668-.166,10.678,3.844s5.731,8.791,3.844,10.678-6.668.166-10.678-3.844-5.731-8.791-3.844-10.678" transform="translate(-189.842 -217.72)" fill="#d4f3e2" fill-rule="evenodd"/>
    <path id="Path_14590" data-name="Path 14590" d="M48.059,66.847H19.266a2.51,2.51,0,0,1-2.517-2.5v-47.5c0-.728,0-1.553,7.451-9.217C31.625,0,32.261,0,33,0H66.784A2.51,2.51,0,0,1,69.3,2.5V14.234a1.711,1.711,0,0,1-3.423,0V3.422h-32.4c-2.144,1.685-11.913,11.655-13.3,13.792V63.424H48.059a1.711,1.711,0,1,1,0,3.423M33.722,3.243h0" transform="translate(-13.377 0.001)" fill="#1392f8"/>
    <path id="Path_14591" data-name="Path 14591" d="M140.753,297.658H111.959a1.711,1.711,0,0,1,0-3.423h27.887v-3.524a1.711,1.711,0,1,1,3.423,0v4.45a2.51,2.51,0,0,1-2.517,2.5" transform="translate(-88.05 -230.81)" fill="#1392f8"/>
    <path id="Path_14592" data-name="Path 14592" d="M37.53,25.313H25.248V21.89H37.53a.31.31,0,0,0,.3-.3V8.5h3.423V21.588a3.729,3.729,0,0,1-3.725,3.725" transform="translate(-20.164 -6.789)" fill="#1392f8"/>
    <path id="Path_14593" data-name="Path 14593" d="M265.538,226.222a4.031,4.031,0,0,1-.492-.03,3.9,3.9,0,0,1-3.437-4.307,3.791,3.791,0,0,1,1.486-2.572,3.995,3.995,0,0,1,5.509.676,3.791,3.791,0,0,1,.819,2.856,3.89,3.89,0,0,1-3.885,3.378m-.047-6a2.239,2.239,0,0,0-1.361.456,2.093,2.093,0,0,0-.823,1.419,2.226,2.226,0,0,0,4.417.542,2.091,2.091,0,0,0-.455-1.576,2.25,2.25,0,0,0-1.492-.824,2.326,2.326,0,0,0-.286-.018" transform="translate(-208.911 -174.511)" fill="#1392f8"/>
    <path id="Path_14594" data-name="Path 14594" d="M290.339,226.021a3,3,0,1,1-2.612-3.343,3,3,0,0,1,2.612,3.343" transform="translate(-227.104 -177.824)" fill="#d4f3e2" fill-rule="evenodd"/>
    <path id="Path_14595" data-name="Path 14595" d="M283.973,226.117a3.934,3.934,0,0,1-.478-.029,3.841,3.841,0,1,1,.478.029m-.009-6a2.145,2.145,0,1,0,.263.016,2.115,2.115,0,0,0-.263-.016" transform="translate(-223.709 -174.428)" fill="#1392f8"/>
    <path id="Path_14596" data-name="Path 14596" d="M163.208,227.856l8-.007a.616.616,0,1,1-.007,1.232l-8,.007a.613.613,0,0,1-.613-.62.6.6,0,0,1,.62-.613" transform="translate(-129.851 -181.972)" fill="#1392f8" fill-rule="evenodd"/>
    <path id="Path_14597" data-name="Path 14597" d="M163.222,242.642h3.7a.616.616,0,1,1-.007,1.232h-3.7a.613.613,0,0,1-.613-.62.638.638,0,0,1,.62-.613" transform="translate(-129.862 -193.786)" fill="#1392f8" fill-rule="evenodd"/>
    <path id="Path_14598" data-name="Path 14598" d="M144.915,193.144l37.695,0,.006,1.314-37.695,0Z" transform="translate(-115.737 -154.255)" fill="#1392f8" fill-rule="evenodd"/>
    <path id="Path_14599" data-name="Path 14599" d="M142.567,170.654l37.695,0,.008,1.294-37.7.017Z" transform="translate(-113.861 -136.293)" fill="#1392f8" fill-rule="evenodd"/>
    <path id="Path_14600" data-name="Path 14600" d="M143.5,168.693a6.3,6.3,0,0,1-6.3-6.284l-.01-15.362a6.339,6.339,0,0,1,6.3-6.3h0l27.893-.005a6.3,6.3,0,0,1,6.3,6.3l-.008,15.34a6.33,6.33,0,0,1-6.278,6.3Zm-.01-26.236a4.621,4.621,0,0,0-4.592,4.6l.01,15.356a4.589,4.589,0,0,0,4.592,4.573l27.892-.005a4.613,4.613,0,0,0,4.573-4.592l.008-15.34a4.587,4.587,0,0,0-4.59-4.592l-27.893.005Z" transform="translate(-109.566 -112.402)" fill="#1392f8"/>
    <path id="Path_14601" data-name="Path 14601" d="M262.459,37.378a1.712,1.712,0,0,1-1.711-1.711V15.41a1.711,1.711,0,1,1,3.423,0V35.666a1.712,1.712,0,0,1-1.711,1.711" transform="translate(-208.246 -10.941)" fill="#1392f8"/>
    <path id="Path_14602" data-name="Path 14602" d="M129.057,59.125c-1.835,0-3.117-1.084-3.117-2.636a.856.856,0,0,1,1.711,0,.719.719,0,0,0,.325.649,1.951,1.951,0,0,0,1.08.276c.926,0,1.917-.453,1.917-1.126,0-.569-.79-.946-2-1.457-1.354-.574-3.039-1.288-3.039-3.033,0-1.52,1.419-2.623,3.373-2.623s3.373,1.1,3.373,2.623a.856.856,0,1,1-1.711,0,.669.669,0,0,0-.384-.6,2.489,2.489,0,0,0-1.277-.312c-.642,0-1.661.247-1.661.911,0,.569.79.946,2,1.457,1.354.574,3.039,1.288,3.039,3.033,0,1.776-1.845,2.838-3.629,2.838" transform="translate(-100.583 -39.273)" fill="#1392f8"/>
    <path id="Path_14603" data-name="Path 14603" d="M138.8,51.942a.856.856,0,0,1-.856-.856V39.006a.856.856,0,1,1,1.711,0V51.087a.856.856,0,0,1-.856.856" transform="translate(-110.167 -30.468)" fill="#1392f8"/>
    <path id="Path_14604" data-name="Path 14604" d="M175.754,53.461a.856.856,0,0,1-.008-1.711l10.168-.1a.856.856,0,0,1,.017,1.711l-10.168.1Z" transform="translate(-139.683 -41.249)" fill="#1392f8"/>
    <path id="Path_14605" data-name="Path 14605" d="M55.754,145.521a.856.856,0,0,1,0-1.711l12-.06h0a.856.856,0,0,1,0,1.711l-12,.06Z" transform="translate(-43.844 -114.805)" fill="#1392f8"/>
    <path id="Path_14606" data-name="Path 14606" d="M57.354,171.242a.856.856,0,0,1-.005-1.711l12.443-.08H69.8a.856.856,0,0,1,.005,1.711l-12.443.08Z" transform="translate(-45.122 -135.331)" fill="#1392f8"/>
    <path id="Path_14607" data-name="Path 14607" d="M185.982,73.86H175.754a.856.856,0,0,1,0-1.711h10.229a.856.856,0,0,1,0,1.711" transform="translate(-139.682 -57.622)" fill="#1392f8"/>
    <path id="Path_14608" data-name="Path 14608" d="M186.586,93.861H175.754a.856.856,0,1,1,0-1.711h10.833a.856.856,0,1,1,0,1.711" transform="translate(-139.682 -73.596)" fill="#1392f8"/>
    <path id="Path_14609" data-name="Path 14609" d="M90.748,118.36H55.754a.856.856,0,1,1,0-1.711H90.748a.856.856,0,0,1,0,1.711" transform="translate(-43.844 -93.162)" fill="#1392f8"/>
  </g>
</svg>
