<svg id="Group_3496" data-name="Group 3496" xmlns="http://www.w3.org/2000/svg" xmlns:xlink="http://www.w3.org/1999/xlink" width="88.436" height="66.934" viewBox="0 0 88.436 66.934">
  <defs>
    <clipPath id="clip-path">
      <rect id="Rectangle_1377" data-name="Rectangle 1377" width="88.436" height="66.934" fill="none"/>
    </clipPath>
  </defs>
  <g id="Group_3495" data-name="Group 3495" clip-path="url(#clip-path)">
    <path id="Path_14342" data-name="Path 14342" d="M260.62,172.844c2.413,11.08,13.567,13.368,20.629,3.358s10.026-16.551,7.234-21.386-11.915-8.144-22.51-5.011-7.767,11.96-5.354,23.039" transform="translate(-201.088 -115.639)" fill="#d4f3e2" fill-rule="evenodd"/>
    <path id="Path_14343" data-name="Path 14343" d="M3.188,43.481c8.23,14.256,23.273,15.191,27.132,5.5S22.43,26.818,37.168,14.527c10.134-9.036-1.53-21.1-17.618-10.2S-5.043,29.225,3.188,43.481" transform="translate(0 0)" fill="#d4f3e2" fill-rule="evenodd"/>
    <path id="Path_14344" data-name="Path 14344" d="M110.722,85.873H61.694a1.885,1.885,0,1,1,0-3.769h47.9V41.035H45.609V68.27a1.885,1.885,0,0,1-3.769,0V39.909a2.646,2.646,0,0,1,2.644-2.643h66.238a2.647,2.647,0,0,1,2.644,2.643V83.23a2.647,2.647,0,0,1-2.644,2.643" transform="translate(-32.564 -29.004)" fill="#1392f8"/>
    <path id="Path_14345" data-name="Path 14345" d="M190.986,251.065h-4.572a1.831,1.831,0,0,1-1.829-1.829v-4.529a1.831,1.831,0,0,1,1.829-1.829h4.572a1.831,1.831,0,0,1,1.829,1.829v4.529a1.831,1.831,0,0,1-1.829,1.829m-4.517-1.885h4.461v-4.419H186.47Z" transform="translate(-143.661 -189.029)" fill="#1392f8"/>
    <path id="Path_14346" data-name="Path 14346" d="M170.155,278.887H152.586a3.116,3.116,0,1,1,0-6.232h17.569a3.116,3.116,0,1,1,0,6.232m-17.569-4.348a1.232,1.232,0,0,0,0,2.463h17.569a1.232,1.232,0,1,0,0-2.463Z" transform="translate(-116.331 -212.206)" fill="#1392f8"/>
    <path id="Path_14347" data-name="Path 14347" d="M130.187,108.628H91.1a.942.942,0,1,1,0-1.884h39.091a1.4,1.4,0,0,0,1.4-1.39V80.282a1.4,1.4,0,0,0-1.4-1.39H82.8a1.4,1.4,0,0,0-1.4,1.39V97.547a.942.942,0,0,1-1.885,0V80.282A3.283,3.283,0,0,1,82.8,77.008h47.387a3.283,3.283,0,0,1,3.285,3.274v25.072a3.283,3.283,0,0,1-3.285,3.274" transform="translate(-61.886 -59.935)" fill="#0094ff"/>
    <rect id="Rectangle_1376" data-name="Rectangle 1376" width="51.407" height="1.885" transform="translate(19.127 22.164)" fill="#0094ff"/>
    <path id="Path_14348" data-name="Path 14348" d="M95.077,89.742h.009a.775.775,0,1,1,0,1.549h-.009a.775.775,0,1,1,0-1.549" transform="translate(-73.395 -69.846)" fill="#1392f8" fill-rule="evenodd"/>
    <path id="Path_14349" data-name="Path 14349" d="M106.118,89.742h.009a.775.775,0,1,1,0,1.549h-.009a.775.775,0,0,1,0-1.549" transform="translate(-81.989 -69.846)" fill="#1392f8" fill-rule="evenodd"/>
    <path id="Path_14350" data-name="Path 14350" d="M117.159,89.742h.009a.775.775,0,1,1,0,1.549h-.009a.775.775,0,0,1,0-1.549" transform="translate(-90.582 -69.846)" fill="#1392f8" fill-rule="evenodd"/>
    <path id="Path_14351" data-name="Path 14351" d="M163.87,158.293c-5.562,0-11.473-1.832-11.473-5.226,0-1.841,1.842-3.438,5.054-4.38l.53,1.808c-2.556.75-3.7,1.832-3.7,2.572,0,1.4,3.648,3.341,9.589,3.341s9.589-1.946,9.589-3.341c0-.875-1.388-1.865-3.537-2.523l.552-1.8c3.095.948,4.87,2.524,4.87,4.325,0,3.394-5.911,5.226-11.473,5.226" transform="translate(-118.61 -115.722)" fill="#1392f8"/>
    <path id="Path_14352" data-name="Path 14352" d="M179.415,131.3a12.986,12.986,0,0,1-4.764-.808,4.444,4.444,0,0,1-1.463-.9,1.481,1.481,0,0,1-.51-1.055c0-.188-.009-.434-.019-.719l-.006-.162a12.581,12.581,0,0,1,.38-4.394,2.549,2.549,0,0,1,.72-1.124,1.667,1.667,0,0,1,1.082-.375,5.845,5.845,0,0,1,2.638.646l.049.022a4.145,4.145,0,0,0,1.971.512,4.819,4.819,0,0,0,1.993-.554l.043-.02a5.538,5.538,0,0,1,2.515-.607,1.172,1.172,0,0,1,.883.425,3.451,3.451,0,0,1,.659,1.277,17.2,17.2,0,0,1,.567,4.926v.111a1.508,1.508,0,0,1-.507,1.073,4.387,4.387,0,0,1-1.458.9,12.881,12.881,0,0,1-4.772.816m-4.856-3a2.917,2.917,0,0,0,.806.449,11.253,11.253,0,0,0,4.049.668,10.994,10.994,0,0,0,4.051-.672,2.844,2.844,0,0,0,.8-.454,14.831,14.831,0,0,0-.478-4.249,3.709,3.709,0,0,0-.137-.37,3.99,3.99,0,0,0-1.345.419l-.044.02a6.631,6.631,0,0,1-2.7.722,5.838,5.838,0,0,1-2.819-.68l-.05-.023a4.106,4.106,0,0,0-1.777-.477,1.671,1.671,0,0,0-.109.251,11.252,11.252,0,0,0-.27,3.688l.006.164c.007.2.014.384.017.544" transform="translate(-134.352 -94.77)" fill="#1392f8"/>
    <path id="Path_14353" data-name="Path 14353" d="M30.1,212.914a9.7,9.7,0,0,1,0-19.4.942.942,0,1,1,0,1.885,7.815,7.815,0,1,0,7.815,7.815.942.942,0,0,1,1.885,0,9.711,9.711,0,0,1-9.7,9.7" transform="translate(-15.875 -150.611)" fill="#1392f8"/>
    <path id="Path_14354" data-name="Path 14354" d="M48.858,214.685a1.878,1.878,0,0,1-1.327-.547l-2.826-2.8a1.884,1.884,0,1,1,2.654-2.676l1.5,1.487,5.38-5.335a1.884,1.884,0,1,1,2.654,2.676l-6.707,6.651a1.878,1.878,0,0,1-1.327.547" transform="translate(-34.359 -158.978)" fill="#1392f8"/>
  </g>
</svg>
