<svg xmlns="http://www.w3.org/2000/svg" width="56.227" height="38.864" viewBox="0 0 56.227 38.864">
  <g id="Group_2055" data-name="Group 2055" transform="translate(448.598 -85.515)">
    <path id="Path_4660" data-name="Path 4660" d="M-432.7,201.512v0l.2-1.919h-14.038l-1.047,10.239,4.706.576a2.347,2.347,0,0,1,2.313-1.209,2.674,2.674,0,0,1,2.889,2.944,2.683,2.683,0,0,1-2.805,2.944,2.282,2.282,0,0,1-2.368-1.6,4.6,4.6,0,0,1-.137-1.377l-5.615.579a7.359,7.359,0,0,0,1.789,4.018c2.147,2.176,5.286,2.176,6.3,2.176,1.6,0,4.544-.139,6.605-2.256a6.2,6.2,0,0,0,.556-.643,7.184,7.184,0,0,0,2.658,2.176,8.083,8.083,0,0,0,3.49.749,7.587,7.587,0,0,0,6.625-3.323l0,0c.02-.029.039-.059.058-.089-.02.03-.037.061-.057.09a7.43,7.43,0,0,0,6.476,3.393,7.582,7.582,0,0,0,6.707-3.448c.012.017.022.033.032.05a7.44,7.44,0,0,0,6.481,3.4c6.3,0,8.5-5.45,8.5-10.156,0-3.884-1.571-9.524-7.982-9.608-.05,0-.1,0-.149,0a7.59,7.59,0,0,0-6.592,3.256c-.028.04-.054.084-.082.124l0,0a7.175,7.175,0,0,0-6.393-3.375h-.149a7.6,7.6,0,0,0-6.594,3.256h0a7.174,7.174,0,0,0-6.359-3.324,7.751,7.751,0,0,0-6.022,2.363m-2.021,5.068c-.1-.064-.2-.126-.3-.184a8.229,8.229,0,0,0-4.108-1.025,9.128,9.128,0,0,0-3.083.524,5.611,5.611,0,0,0-.578.3l.275-2.67h8.439a11.37,11.37,0,0,0-.945,2.867C-434.917,206.454-434.816,206.515-434.718,206.58Zm7.714,8.453c-1.238,0-2.065-.911-2.422-2.368a14.1,14.1,0,0,1-.246-3.055c0-1.872.107-4.321.824-5.532a2.332,2.332,0,0,1,1.954-1.184c1.321,0,2.008,1.074,2.283,2.258a22.617,22.617,0,0,1,.332,4.1C-424.279,211.951-424.689,215.033-427,215.033Zm13.1.069c-1.239,0-2.065-.908-2.422-2.368a14.21,14.21,0,0,1-.248-3.055c0-1.872.107-4.321.824-5.532a2.338,2.338,0,0,1,1.954-1.184c1.321,0,2.011,1.074,2.286,2.258a22.758,22.758,0,0,1,.332,4.1C-411.174,212.02-411.589,215.1-413.9,215.1Zm13.216,0c-1.236,0-2.062-.911-2.42-2.368a14.12,14.12,0,0,1-.246-3.055c0-1.871.107-4.323.824-5.532a2.33,2.33,0,0,1,1.954-1.184c1.321,0,2.01,1.072,2.283,2.256a22.649,22.649,0,0,1,.333,4.1C-397.957,212.016-398.37,215.1-400.685,215.1Z" transform="translate(0 -94.603)" fill="#a3a3a3"/>
    <path id="Path_4661" data-name="Path 4661" d="M-409.741,89.263v8.751h2.085V101.5h-11.122V98.016h2.085V89.263h-2.085V85.514h11.122v3.748Z" transform="translate(-24.826)" fill="#a3a3a3"/>
    <path id="Path_4662" data-name="Path 4662" d="M-330.965,116.743v3.43h-8.5v-3.485h1.614V113.04c0-1.1-.784-1.591-1.792-1.591a2.173,2.173,0,0,0-2.243,2.217v3.021h1.66v3.485h-8.7v-3.485h1.573v-5.255h-1.573v-3.489h6.863v2.4a2.074,2.074,0,0,0,.315-.337,5.556,5.556,0,0,1,4.574-1.949c2.646,0,4.8,1.075,4.8,4.014v4.609h1.388C-330.98,116.706-330.973,116.725-330.965,116.743Z" transform="translate(-82.978 -18.673)" fill="#a3a3a3"/>
    <path id="Path_4663" data-name="Path 4663" d="M-230.3,116.036l-.039.4c-.772,3.8-4.2,4.4-6.677,4.4-3.03,0-6.019-1.162-7.183-3.735v-.057h-.023a6,6,0,0,1-.486-2.43V114.6c.007-4.319,3.817-6.222,7.692-6.222,0,0,6.083-.4,6.654,5.08l-4.694.516c-.059-1.3-.325-2.681-1.914-2.681-2.02,0-2.176,1.683-2.176,3.3v.034c0,1.614.156,3.3,2.176,3.3a1.826,1.826,0,0,0,1.995-1.891l.152,0Z" transform="translate(-169.743 -19.033)" fill="#a3a3a3"/>
    <path id="Path_4664" data-name="Path 4664" d="M-159,161.611a1.98,1.98,0,0,0,1.981-1.981A1.982,1.982,0,0,0-159,157.648a1.982,1.982,0,0,0-1.98,1.982A1.98,1.98,0,0,0-159,161.611Z" transform="translate(-239.452 -60.053)" fill="#a3a3a3"/>
  </g>
</svg>
