<svg xmlns="http://www.w3.org/2000/svg" width="93.032" height="59.656" viewBox="0 0 93.032 59.656">
  <g id="Group" transform="translate(-27.556 -132.31)">
    <g id="Oval" transform="translate(27.556 139.833)">
      <path id="Path_12511" data-name="Path 12511" d="M35.847,187.1c5.877,0,8.924-2.8,8.924-8.692s-4.346-14.836-8.608-10.366-8.608,7.022-8.608,12.917S29.97,187.1,35.847,187.1Z" transform="translate(-27.556 -166.83)" fill="#d4f3e2" fill-rule="evenodd"/>
    </g>
    <g id="Oval-2" data-name="Oval" transform="translate(47.588 141.126)">
      <path id="Path_12512" data-name="Path 12512" d="M152.793,198.029c3.719-8.344,18.265-2.357,21.642-9.846s-3.352-18.349-12.189-14.678c-2.393.994-7.3,2.863-13.916,10.014-3.833,4.145-11.428,6.475-15.345,8.222-4.389,1.957-13.5,5.49-13.5,14.953,0,8.992,4,17.809,12.026,16.841,6.379-.769,11.589-7.543,15.028-17.722C148.138,201.068,152.035,199.728,152.793,198.029Z" transform="translate(-119.481 -172.767)" fill="#d4f3e2" fill-rule="evenodd"/>
    </g>
    <g id="Rectangle" transform="translate(33.19 143.213)">
      <path id="Path_12513" data-name="Path 12513" d="M62.958,208.062a.934.934,0,0,1-.24-.032l-8.623-2.311a.926.926,0,0,1-.655-1.134l5.777-21.558a.926.926,0,0,1,1.134-.655l8.623,2.311a.926.926,0,0,1,.655,1.134l-5.777,21.557A.926.926,0,0,1,62.958,208.062Zm-7.489-3.892L62.3,206l5.3-19.768L60.766,184.4Z" transform="translate(-53.408 -182.341)" fill="#1392f8"/>
    </g>
    <g id="Rectangle-Copy" transform="translate(97.551 132.31)">
      <path id="Path_12514" data-name="Path 12514" d="M364.029,157c-.027,0-.054,0-.081,0a.927.927,0,0,1-.629-.327l-14.346-17.1a.926.926,0,0,1,.114-1.3l6.839-5.738a.926.926,0,0,1,1.3.114l14.346,17.1a.926.926,0,0,1-.114,1.3l-6.839,5.738A.925.925,0,0,1,364.029,157Zm-13.041-17.909,13.155,15.678,5.42-4.548-13.155-15.678Z" transform="translate(-348.758 -132.31)" fill="#1392f8"/>
    </g>
    <g id="Path-22" transform="translate(51.281 142.609)">
      <path id="Path_12515" data-name="Path 12515" d="M144.156,186.43h-6.531a1.2,1.2,0,1,1,0-2.4h6.531c1.407,0,2.523-.878,3.814-1.9,1.528-1.2,3.261-2.568,5.778-2.568h6.04a1.2,1.2,0,0,1,0,2.4h-6.04c-1.686,0-2.953,1-4.294,2.054C148.02,185.15,146.394,186.43,144.156,186.43Z" transform="translate(-136.427 -179.569)" fill="#1392f8"/>
    </g>
    <g id="Path-23" transform="translate(62.104 140.606)">
      <path id="Path_12516" data-name="Path 12516" d="M188.937,193.1H188.6a2.289,2.289,0,0,1-2.067-1.187c-.582-1.021-.593-2.627-.03-4.773A21.405,21.405,0,0,1,188.7,181.9c6.156-10.409,13.142-10.177,16.5-10.066.294.01.562.019.8.019a31.627,31.627,0,0,1,4.021.389c2.105.288,4.491.615,5.658.209a6.461,6.461,0,0,0,2.806-1.648,1.2,1.2,0,0,1,1.824,1.555,8.6,8.6,0,0,1-3.843,2.357c-1.71.6-4.283.243-6.771-.1a30.209,30.209,0,0,0-3.7-.367c-.271,0-.567-.01-.881-.02-3.118-.1-8.922-.3-14.356,8.89-1.985,3.355-2.579,6.9-2.16,7.585h.245c2.146,0,3.33.007,6.124-4.092a15.821,15.821,0,0,1,8.824-6.645,1.2,1.2,0,0,1,.653,2.306,13.492,13.492,0,0,0-7.5,5.688C193.649,192.807,191.737,193.1,188.937,193.1Z" transform="translate(-186.092 -170.381)" fill="#1392f8"/>
    </g>
    <g id="Path-25" transform="translate(79.701 171.521)">
      <path id="Path_12517" data-name="Path 12517" d="M280.085,320.494c-2.933,0-7.065-1.982-12.743-6.08a1.2,1.2,0,0,1,1.4-1.944c8.166,5.893,11.3,5.929,12.434,5.426.282-.124,1.138-.5,1.381-2.632a1.2,1.2,0,1,1,2.382.271c-.265,2.319-1.2,3.851-2.794,4.553A5.044,5.044,0,0,1,280.085,320.494Z" transform="translate(-266.844 -312.244)" fill="#1392f8"/>
    </g>
    <g id="Path-25-Copy-2" transform="translate(75.867 151.988)">
      <path id="Path_12518" data-name="Path 12518" d="M270.142,245.4c-2.52,0-6.178-1.778-11.307-5.469a1.2,1.2,0,0,1,1.4-1.946c7.313,5.264,9.812,5.2,10.547,4.921.257-.1.576-.3.757-1.067.32-1.346-3.394-4.007-7.695-7.089l-.62-.444c-2.379-1.707-6.909-4.909-13.464-9.518a1.2,1.2,0,0,1,1.379-1.961c6.561,4.614,11.1,7.82,13.482,9.531l.619.444c6.011,4.307,9.322,6.68,8.631,9.592a3.615,3.615,0,0,1-2.253,2.759A4.2,4.2,0,0,1,270.142,245.4Z" transform="translate(-249.252 -222.612)" fill="#1392f8"/>
    </g>
    <g id="Path-25-Copy" transform="translate(76.813 177.004)">
      <path id="Path_12519" data-name="Path 12519" d="M264.353,344.148c-2.387,0-5.71-1.485-10.235-4.548a1.2,1.2,0,0,1,1.344-1.985c2.238,1.515,7.669,4.936,9.741,3.98.187-.086.758-.349.924-1.81a1.2,1.2,0,0,1,2.382.27c-.262,2.317-1.4,3.3-2.3,3.718A4.377,4.377,0,0,1,264.353,344.148Z" transform="translate(-253.591 -337.409)" fill="#1392f8"/>
    </g>
    <g id="Path-25-Copy-3" transform="translate(74.869 181.347)">
      <path id="Path_12520" data-name="Path 12520" d="M250.405,362.884a11.181,11.181,0,0,1-5.106-1.594,1.2,1.2,0,1,1,1.139-2.109c2.207,1.192,4.017,1.591,4.966,1.094a2.235,2.235,0,0,0,.971-1.876,1.2,1.2,0,1,1,2.382.27,4.439,4.439,0,0,1-2.242,3.731A4.492,4.492,0,0,1,250.405,362.884Z" transform="translate(-244.67 -357.335)" fill="#1392f8"/>
    </g>
    <g id="Path-24" transform="translate(98.123 157.283)">
      <path id="Path_12521" data-name="Path 12521" d="M352.579,261.522a1.2,1.2,0,0,1-1.029-1.813,70.028,70.028,0,0,1,4.843-7.4,44.052,44.052,0,0,1,5.22-5.112,1.2,1.2,0,1,1,1.568,1.814,42.5,42.5,0,0,0-4.927,4.81,69.234,69.234,0,0,0-4.644,7.112A1.2,1.2,0,0,1,352.579,261.522Z" transform="translate(-351.381 -246.909)" fill="#1392f8"/>
    </g>
    <g id="Path-26" transform="translate(45.826 168.265)">
      <path id="Path_12522" data-name="Path 12522" d="M122.707,307.555a1.2,1.2,0,0,1-1.109-.744c-1.159-2.828-5.812-5.488-9.512-7.223a1.2,1.2,0,0,1,1.017-2.171c6.027,2.825,9.531,5.6,10.713,8.484a1.2,1.2,0,0,1-1.109,1.653Z" transform="translate(-111.395 -297.304)" fill="#1392f8"/>
    </g>
    <g id="Oval-3" data-name="Oval" transform="translate(56.772 170.934)">
      <path id="Path_12523" data-name="Path 12523" d="M165.71,321.734a4.555,4.555,0,0,1-1.692-.355,3.554,3.554,0,0,1-2.23-2.241c-.472-1.507.076-3.414,1.675-5.83a8.455,8.455,0,0,1,5.089-3.69,2.865,2.865,0,0,1,2.241.387,3.96,3.96,0,0,1,1.319,3.309,7.478,7.478,0,0,1-1.371,4.194c-.17.243-.334.484-.494.72C169.163,319.823,167.864,321.734,165.71,321.734Zm3.545-9.793a5.738,5.738,0,0,0-3.794,2.689c-1.576,2.383-1.494,3.445-1.386,3.792.061.2.214.484.831.73,1.287.514,1.818-.006,3.359-2.272.166-.245.337-.5.513-.748,1.307-1.866.975-3.832.621-4.174A.539.539,0,0,0,169.256,311.941Zm.165.023Z" transform="translate(-161.625 -309.551)" fill="#1392f8"/>
    </g>
    <g id="Path" transform="translate(51.271 171.829)">
      <path id="Path_12524" data-name="Path 12524" d="M139.669,322.379a2.787,2.787,0,0,1-1.612-.5c-1.978-1.385-2.084-5-.941-7.513a1.2,1.2,0,1,1,2.182.993c-.879,1.931-.525,4.1.134,4.557.329.23,1-.176,1.28-.362a10.352,10.352,0,0,0,2.428-2.56,1.2,1.2,0,0,1,1.964,1.375,12.6,12.6,0,0,1-3.052,3.173A4.275,4.275,0,0,1,139.669,322.379Z" transform="translate(-136.383 -313.66)" fill="#1392f8"/>
    </g>
    <g id="Oval-Copy" transform="translate(61.807 174.191)">
      <path id="Path_12525" data-name="Path 12525" d="M189.293,336.808a4.361,4.361,0,0,1-2.184-.634h0a4.29,4.29,0,0,1-2.333-3.063c-.376-2.449,1.776-4.786,2.483-5.554,2.7-2.929,5.523-3.384,7.123-2.884a2.677,2.677,0,0,1,1.817,1.655c.607,1.658-.467,3.741-1.162,4.836-.123.194-.285.5-.472.862-.831,1.595-2.088,4-4.235,4.632A3.688,3.688,0,0,1,189.293,336.808ZM188.3,334.1a1.638,1.638,0,0,0,1.355.261c1.165-.34,2.177-2.28,2.781-3.439.212-.407.4-.759.573-1.039a4.248,4.248,0,0,0,.935-2.726c-.014-.038-.043-.117-.281-.192-1.311-.411-3.372.838-4.645,2.22-1.718,1.865-1.969,2.969-1.877,3.566.028.185.115.748,1.159,1.349Z" transform="translate(-184.733 -324.498)" fill="#1392f8"/>
    </g>
    <g id="Path-2" data-name="Path" transform="translate(67.572 177.616)">
      <path id="Path_12526" data-name="Path 12526" d="M215.152,351.109a4.026,4.026,0,0,1-3.646-1.952,3.39,3.39,0,0,1,.529-3.677l3.657-5.265.692.06a3.27,3.27,0,0,1,2.268,1.282,6.612,6.612,0,0,1,1.2,4.763C219.493,349.185,217.605,351.109,215.152,351.109Zm1.549-8.145-2.717,3.912c-.208.288-.53.825-.343,1.191a1.722,1.722,0,0,0,1.511.645c1.463,0,2.157-1.388,2.319-2.687a4.243,4.243,0,0,0-.682-2.96C216.759,343.029,216.73,343,216.7,342.964Zm-3.688,3.209h0Z" transform="translate(-211.186 -340.215)" fill="#1392f8"/>
    </g>
  </g>
</svg>
