<svg xmlns="http://www.w3.org/2000/svg" width="38" height="41.149" viewBox="0 0 38 41.149"><defs><style>.a{fill:#d4f3e2;fill-rule:evenodd;}.b{fill:#1392f8;}</style></defs><g transform="translate(-74.5 -47.5)"><g transform="translate(76.599 67.865)"><path class="a" d="M94.5,253.519V246.7a5.2,5.2,0,0,1,5.2-5.2h0a5.2,5.2,0,0,1,5.2,5.2v6.823a5.2,5.2,0,0,1-5.2,5.2h0A5.2,5.2,0,0,1,94.5,253.519Z" transform="translate(-94.5 -241.5)"/></g><g transform="translate(89.931 58.732)"><path class="a" d="M221.5,175.652V159.7a5.2,5.2,0,0,1,5.2-5.2h0a5.2,5.2,0,0,1,5.2,5.2v15.956a5.2,5.2,0,0,1-5.2,5.2h0A5.2,5.2,0,0,1,221.5,175.652Z" transform="translate(-221.5 -154.5)"/></g><g transform="translate(102.108 47.5)"><path class="a" d="M337.5,79.884V52.7a5.2,5.2,0,0,1,5.2-5.2h0a5.2,5.2,0,0,1,5.2,5.2V79.884a5.2,5.2,0,0,1-5.2,5.2h0A5.2,5.2,0,0,1,337.5,79.884Z" transform="translate(-337.5 -47.5)"/></g><g transform="translate(74.5 71.014)"><path class="b" d="M79.7,288.715a5.2,5.2,0,0,1-5.2-5.2V276.7a5.2,5.2,0,1,1,10.392,0v6.823A5.2,5.2,0,0,1,79.7,288.715Zm0-15.431a3.415,3.415,0,0,0-3.412,3.412v6.823a3.412,3.412,0,1,0,6.823,0V276.7A3.415,3.415,0,0,0,79.7,273.285Z" transform="translate(-74.5 -271.5)"/></g><g transform="translate(87.727 61.881)"><path class="b" d="M205.7,210.848a5.2,5.2,0,0,1-5.2-5.2V189.7a5.2,5.2,0,1,1,10.392,0v15.956A5.2,5.2,0,0,1,205.7,210.848Zm0-24.564a3.416,3.416,0,0,0-3.412,3.412v15.956a3.412,3.412,0,1,0,6.823,0V189.7A3.415,3.415,0,0,0,205.7,186.285Z" transform="translate(-200.5 -184.5)"/></g><g transform="translate(100.953 51.069)"><path class="b" d="M331.7,119.08a5.2,5.2,0,0,1-5.2-5.2V86.7a5.2,5.2,0,0,1,10.392,0v27.188A5.2,5.2,0,0,1,331.7,119.08Zm0-35.8a3.415,3.415,0,0,0-3.412,3.412v27.188a3.412,3.412,0,1,0,6.823,0V86.7A3.415,3.415,0,0,0,331.7,83.285Z" transform="translate(-326.5 -81.5)"/></g></g></svg>