<svg id="Group_3554" data-name="Group 3554" xmlns="http://www.w3.org/2000/svg" xmlns:xlink="http://www.w3.org/1999/xlink" width="67.35" height="67.979" viewBox="0 0 67.35 67.979">
  <defs>
    <clipPath id="clip-path">
      <rect id="Rectangle_1459" data-name="Rectangle 1459" width="67.35" height="67.979" fill="none"/>
    </clipPath>
  </defs>
  <g id="Group_3553" data-name="Group 3553" clip-path="url(#clip-path)">
    <path id="Path_14610" data-name="Path 14610" d="M55.711,62.867C61.221,55.813,69.561,38.675,60.8,30.7S49.557,37.848,40.96,46.445,19.56,56.033,24.1,66.467s26.1,3.453,31.613-3.6" transform="translate(-18.899 -23.226)" fill="#d4f3e2" fill-rule="evenodd"/>
    <path id="Path_14611" data-name="Path 14611" d="M261.553,291.04c1.722-1.722,6.083-.151,9.741,3.507s5.229,8.02,3.507,9.742-6.083.151-9.741-3.507-5.229-8.02-3.507-9.742" transform="translate(-212.938 -237.009)" fill="#d4f3e2" fill-rule="evenodd"/>
    <path id="Path_14612" data-name="Path 14612" d="M30.024,6.134a1.555,1.555,0,0,1-1.051-.407L26.718,3.673,24.464,5.727a1.561,1.561,0,1,1-2.1-2.308L25.667.406a1.561,1.561,0,0,1,2.1,0l3.306,3.013a1.561,1.561,0,0,1-1.052,2.715" transform="translate(-17.837 0.001)" fill="#0096ff"/>
    <path id="Path_14613" data-name="Path 14613" d="M41.511,47.5a1.561,1.561,0,0,1-1.561-1.561V5.361a1.561,1.561,0,1,1,3.123,0V45.939A1.561,1.561,0,0,1,41.511,47.5" transform="translate(-32.612 -3.102)" fill="#0096ff"/>
    <path id="Path_14614" data-name="Path 14614" d="M334.811,304.436a1.561,1.561,0,0,1-1.154-2.613l2.054-2.255-2.054-2.255a1.561,1.561,0,1,1,2.308-2.1l3.013,3.306a1.561,1.561,0,0,1,0,2.1l-3.013,3.306a1.558,1.558,0,0,1-1.155.51" transform="translate(-272.036 -240.567)" fill="#0096ff"/>
    <path id="Path_14615" data-name="Path 14615" d="M161.393,315.823H119.511a1.561,1.561,0,0,1,0-3.123h41.881a1.561,1.561,0,0,1,0,3.123" transform="translate(-96.284 -255.26)" fill="#0096ff"/>
    <path id="Path_14616" data-name="Path 14616" d="M9.276,279.853a9.276,9.276,0,1,1,9.276-9.276,9.287,9.287,0,0,1-9.276,9.276m0-15.43a6.154,6.154,0,1,0,6.154,6.154,6.161,6.161,0,0,0-6.154-6.154" transform="translate(0 -213.302)" fill="#1392f8"/>
    <path id="Path_14617" data-name="Path 14617" d="M38.3,300.342a2.67,2.67,0,0,1-1.531-.435,1.861,1.861,0,0,1-.816-1.573.781.781,0,0,1,1.561,0c0,.415.6.447.785.447.588,0,1.144-.289,1.144-.594s-.673-.583-1.267-.833c-.938-.395-2.223-.936-2.223-2.272,0-1.163,1.062-2.007,2.526-2.007S41,293.919,41,295.082a.781.781,0,1,1-1.561,0c0-.266-.5-.445-.964-.445s-.964.179-.964.445c0,.3.673.583,1.267.833.938.4,2.223.936,2.223,2.272s-1.375,2.155-2.705,2.155" transform="translate(-29.346 -239.24)" fill="#1392f8"/>
    <path id="Path_14618" data-name="Path 14618" d="M46.231,294.877a.781.781,0,0,1-.781-.781v-8.266a.781.781,0,1,1,1.561,0V294.1a.781.781,0,0,1-.781.781" transform="translate(-37.101 -232.689)" fill="#1392f8"/>
    <rect id="Rectangle_1456" data-name="Rectangle 1456" width="3.123" height="3.123" transform="translate(29.464 38.52)" fill="#1392f8"/>
    <rect id="Rectangle_1457" data-name="Rectangle 1457" width="3.123" height="3.123" transform="translate(41.312 26.433)" fill="#1392f8"/>
    <rect id="Rectangle_1458" data-name="Rectangle 1458" width="3.123" height="3.123" transform="translate(53.399 14.805)" fill="#1392f8"/>
    <path id="Path_14619" data-name="Path 14619" d="M94.845,207.966a.781.781,0,0,1-.781-.781V191.011H72.931a.781.781,0,1,1,0-1.561H94.845a.781.781,0,0,1,.781.781v16.955a.781.781,0,0,1-.781.781" transform="translate(-58.897 -154.65)" fill="#0096ff"/>
    <path id="Path_14620" data-name="Path 14620" d="M106.417,153.6a.78.78,0,0,1-.781-.781V124.411H72.931a.781.781,0,0,1,0-1.561h33.487a.781.781,0,0,1,.781.781v29.188a.78.78,0,0,1-.781.781" transform="translate(-58.897 -100.284)" fill="#0096ff"/>
    <path id="Path_14621" data-name="Path 14621" d="M118.174,103.968a.78.78,0,0,1-.781-.781V63.611H72.931a.781.781,0,1,1,0-1.561h45.243a.781.781,0,0,1,.781.781v40.357a.781.781,0,0,1-.781.781" transform="translate(-58.897 -50.652)" fill="#0096ff"/>
  </g>
</svg>
