<svg id="Group_3552" data-name="Group 3552" xmlns="http://www.w3.org/2000/svg" xmlns:xlink="http://www.w3.org/1999/xlink" width="76.295" height="79.456" viewBox="0 0 76.295 79.456">
  <defs>
    <clipPath id="clip-path">
      <rect id="Rectangle_1455" data-name="Rectangle 1455" width="76.295" height="79.456" fill="none"/>
    </clipPath>
  </defs>
  <g id="Group_3551" data-name="Group 3551" clip-path="url(#clip-path)">
    <path id="Path_14588" data-name="Path 14588" d="M39.971,53c6.765-8.659,17-29.7,6.247-39.487s-13.8,8.772-24.355,19.326-26.272,11.771-20.7,24.58S33.206,61.66,39.971,53" transform="translate(0 -8.327)" fill="#d4f3e2" fill-rule="evenodd"/>
    <path id="Path_14589" data-name="Path 14589" d="M238.561,273.467c2.113-2.113,7.468-.186,11.959,4.305s6.419,9.846,4.305,11.959-7.468.186-11.959-4.305-6.419-9.846-4.305-11.959" transform="translate(-184.099 -211.134)" fill="#d4f3e2" fill-rule="evenodd"/>
    <path id="Path_14590" data-name="Path 14590" d="M51.816,74.868H19.568a2.811,2.811,0,0,1-2.819-2.8v-53.2c0-.815,0-1.74,8.345-10.323C33.409,0,34.122,0,34.948,0h37.84a2.811,2.811,0,0,1,2.819,2.8V15.942a1.917,1.917,0,0,1-3.834,0V3.833H35.482c-2.4,1.887-13.342,13.053-14.9,15.446V71.034H51.816a1.917,1.917,0,1,1,0,3.834M35.759,3.632h0" transform="translate(-12.972 0.001)" fill="#1392f8"/>
    <path id="Path_14591" data-name="Path 14591" d="M144.413,298.7H112.165a1.917,1.917,0,0,1,0-3.834H143.4v-3.946a1.917,1.917,0,1,1,3.834,0V295.9a2.811,2.811,0,0,1-2.819,2.8" transform="translate(-85.386 -223.828)" fill="#1392f8"/>
    <path id="Path_14592" data-name="Path 14592" d="M39,27.33H25.248V23.5H39a.347.347,0,0,0,.338-.338V8.5h3.834V23.158A4.177,4.177,0,0,1,39,27.33" transform="translate(-19.554 -6.583)" fill="#1392f8"/>
    <path id="Path_14593" data-name="Path 14593" d="M266.013,227.148a4.517,4.517,0,0,1-.551-.034,4.37,4.37,0,0,1-3.85-4.824,4.245,4.245,0,0,1,1.664-2.881,4.474,4.474,0,0,1,6.17.757,4.245,4.245,0,0,1,.917,3.2,4.357,4.357,0,0,1-4.351,3.783m-.053-6.724a2.507,2.507,0,0,0-1.524.511,2.344,2.344,0,0,0-.921,1.589,2.494,2.494,0,0,0,4.947.608,2.342,2.342,0,0,0-.51-1.765,2.519,2.519,0,0,0-1.671-.923,2.6,2.6,0,0,0-.32-.02" transform="translate(-202.591 -169.232)" fill="#1392f8"/>
    <path id="Path_14594" data-name="Path 14594" d="M291.056,226.425a3.36,3.36,0,1,1-2.926-3.744,3.36,3.36,0,0,1,2.926,3.744" transform="translate(-220.235 -172.445)" fill="#d4f3e2" fill-rule="evenodd"/>
    <path id="Path_14595" data-name="Path 14595" d="M284.436,227.042a4.4,4.4,0,0,1-.535-.033,4.3,4.3,0,1,1,.535.033m-.01-6.721a2.4,2.4,0,1,0,.295.018,2.37,2.37,0,0,0-.295-.018" transform="translate(-216.941 -169.152)" fill="#1392f8"/>
    <path id="Path_14596" data-name="Path 14596" d="M163.282,227.857l8.965-.008a.69.69,0,1,1-.008,1.38l-8.965.008a.687.687,0,0,1-.686-.694.672.672,0,0,1,.694-.686" transform="translate(-125.923 -176.467)" fill="#1392f8" fill-rule="evenodd"/>
    <path id="Path_14597" data-name="Path 14597" d="M163.3,242.642h4.143a.69.69,0,1,1-.008,1.38h-4.143a.687.687,0,0,1-.686-.694.714.714,0,0,1,.694-.686" transform="translate(-125.934 -187.924)" fill="#1392f8" fill-rule="evenodd"/>
    <path id="Path_14598" data-name="Path 14598" d="M144.915,193.144l42.218,0,.007,1.472-42.218,0Z" transform="translate(-112.236 -149.588)" fill="#1392f8" fill-rule="evenodd"/>
    <path id="Path_14599" data-name="Path 14599" d="M142.567,170.654l42.218,0,.009,1.449-42.22.019Z" transform="translate(-110.417 -132.17)" fill="#1392f8" fill-rule="evenodd"/>
    <path id="Path_14600" data-name="Path 14600" d="M144.26,172.047a7.06,7.06,0,0,1-7.059-7.038l-.012-17.2a7.1,7.1,0,0,1,7.059-7.058h0l31.239-.006a7.054,7.054,0,0,1,7.057,7.061l-.009,17.181a7.09,7.09,0,0,1-7.032,7.059Zm-.011-29.384a5.176,5.176,0,0,0-5.143,5.147l.012,17.2a5.14,5.14,0,0,0,5.143,5.122l31.239-.006a5.166,5.166,0,0,0,5.122-5.143l.009-17.181a5.137,5.137,0,0,0-5.14-5.143l-31.24.006Z" transform="translate(-106.252 -109.002)" fill="#1392f8"/>
    <path id="Path_14601" data-name="Path 14601" d="M262.665,40.219a1.917,1.917,0,0,1-1.917-1.917V15.616a1.917,1.917,0,1,1,3.834,0V38.3a1.917,1.917,0,0,1-1.917,1.917" transform="translate(-201.947 -10.61)" fill="#1392f8"/>
    <path id="Path_14602" data-name="Path 14602" d="M129.431,60.318c-2.055,0-3.49-1.214-3.49-2.953a.958.958,0,0,1,1.917,0,.806.806,0,0,0,.364.727,2.185,2.185,0,0,0,1.209.309c1.037,0,2.147-.507,2.147-1.261,0-.637-.885-1.06-2.235-1.632-1.516-.643-3.4-1.443-3.4-3.4,0-1.7,1.589-2.937,3.777-2.937s3.777,1.235,3.777,2.937a.958.958,0,1,1-1.917,0,.75.75,0,0,0-.43-.671,2.788,2.788,0,0,0-1.431-.35c-.719,0-1.86.277-1.86,1.02,0,.637.885,1.06,2.235,1.632,1.516.643,3.4,1.443,3.4,3.4,0,1.989-2.066,3.178-4.064,3.178" transform="translate(-97.54 -38.085)" fill="#1392f8"/>
    <path id="Path_14603" data-name="Path 14603" d="M138.9,53.6a.958.958,0,0,1-.958-.958V39.108a.958.958,0,1,1,1.917,0v13.53a.958.958,0,0,1-.958.958" transform="translate(-106.834 -29.547)" fill="#1392f8"/>
    <path id="Path_14604" data-name="Path 14604" d="M175.857,53.679a.958.958,0,0,1-.009-1.917l11.388-.113a.958.958,0,0,1,.019,1.917l-11.388.113Z" transform="translate(-135.458 -40.002)" fill="#1392f8"/>
    <path id="Path_14605" data-name="Path 14605" d="M55.856,145.733a.958.958,0,0,1,0-1.917l13.44-.068h0a.958.958,0,0,1,0,1.917l-13.44.068Z" transform="translate(-42.518 -111.332)" fill="#1392f8"/>
    <path id="Path_14606" data-name="Path 14606" d="M57.456,171.457a.958.958,0,0,1-.006-1.917l13.936-.09h.006a.958.958,0,0,1,.006,1.917l-13.936.09Z" transform="translate(-43.757 -131.237)" fill="#1392f8"/>
    <path id="Path_14607" data-name="Path 14607" d="M187.312,74.066H175.856a.958.958,0,0,1,0-1.917h11.456a.958.958,0,0,1,0,1.917" transform="translate(-135.457 -55.879)" fill="#1392f8"/>
    <path id="Path_14608" data-name="Path 14608" d="M187.989,94.067H175.856a.958.958,0,1,1,0-1.917h12.132a.958.958,0,1,1,0,1.917" transform="translate(-135.457 -71.369)" fill="#1392f8"/>
    <path id="Path_14609" data-name="Path 14609" d="M95.05,118.566H55.856a.958.958,0,1,1,0-1.917H95.05a.958.958,0,0,1,0,1.917" transform="translate(-42.518 -90.344)" fill="#1392f8"/>
  </g>
</svg>
