<svg id="Group_3556" data-name="Group 3556" xmlns="http://www.w3.org/2000/svg" xmlns:xlink="http://www.w3.org/1999/xlink" width="70.148" height="66.273" viewBox="0 0 70.148 66.273">
  <defs>
    <clipPath id="clip-path">
      <rect id="Rectangle_1460" data-name="Rectangle 1460" width="70.147" height="66.273" fill="none"/>
    </clipPath>
  </defs>
  <g id="Group_3555" data-name="Group 3555" clip-path="url(#clip-path)">
    <path id="Path_14622" data-name="Path 14622" d="M239.627,26.749c7.789,5,15.56-.109,13.858-9.981S249.716,1.407,245.314.23,233.721,2.4,229.41,10.338c-4.33,7.952,2.409,11.412,10.216,16.412" transform="translate(-186.742 0)" fill="#d4f3e2" fill-rule="evenodd"/>
    <path id="Path_14623" data-name="Path 14623" d="M14.21,143.555c12.988,3.478,22.227-4.674,18.857-12.5S15.695,122.813,17.108,107.2c.634-11.068-13.079-11.3-16.068,4.275s.181,28.585,13.169,32.081" transform="translate(0 -81.301)" fill="#d4f3e2" fill-rule="evenodd"/>
    <path id="Path_14624" data-name="Path 14624" d="M12.259,237.536a4.684,4.684,0,0,1-4.689-4.327l-1.15-16.973a4.611,4.611,0,0,1,1.162-3.4,4.728,4.728,0,0,1,3.229-1.589l29.033-2.085a4.71,4.71,0,0,1,3.413,1.124,4.6,4.6,0,0,1,1.612,3.192l.288,4.12a1.268,1.268,0,1,1-2.53.177l-.288-4.12a2.08,2.08,0,0,0-.732-1.443,2.189,2.189,0,0,0-1.584-.52l-29.033,2.085a2.206,2.206,0,0,0-1.509.74,2.1,2.1,0,0,0-.531,1.545l1.15,16.973a2.149,2.149,0,0,0,2.316,1.96l29.033-2.085a2.206,2.206,0,0,0,1.509-.74,2.1,2.1,0,0,0,.53-1.545c0-.006,0-.012,0-.018l-.21-3.781a1.268,1.268,0,0,1,2.532-.14l.209,3.772a4.612,4.612,0,0,1-1.162,3.393,4.728,4.728,0,0,1-3.229,1.589L12.6,237.524c-.113.008-.225.012-.336.012" transform="translate(-5.247 -171.263)" fill="#1392f8"/>
    <path id="Path_14625" data-name="Path 14625" d="M158.05,262.843a2.1,2.1,0,0,1-1.417-.548,2.181,2.181,0,0,1-.718-1.476l-.4-5.986a2.167,2.167,0,0,1,2-2.315l9.522-.684a2.106,2.106,0,0,1,1.568.543,2.181,2.181,0,0,1,.718,1.477l.4,5.986a2.167,2.167,0,0,1-2,2.316l-9.52.684q-.076.005-.151.005m-.362-8.159.4,5.983,9.466-.68-.4-5.983Zm-.1-1.083h0Z" transform="translate(-127.34 -206.21)" fill="#1392f8"/>
    <path id="Path_14626" data-name="Path 14626" d="M34.833,234.873a.77.77,0,0,1-.055-1.538l26.975-1.941a.77.77,0,0,1,.111,1.536l-26.975,1.941-.056,0" transform="translate(-27.893 -189.477)" fill="#1392f8"/>
    <path id="Path_14627" data-name="Path 14627" d="M41.235,327.86a.77.77,0,0,1-.055-1.538l26.958-1.939a.77.77,0,1,1,.11,1.536l-26.957,1.939-.056,0" transform="translate(-33.136 -265.621)" fill="#1392f8"/>
    <path id="Path_14628" data-name="Path 14628" d="M176.6,276.563a1.745,1.745,0,0,1-1.169-.45,1.838,1.838,0,0,1-.178-2.547,1.747,1.747,0,0,1,1.219-.621,1.8,1.8,0,0,1,1.9,1.683,1.818,1.818,0,0,1-.425,1.309,1.747,1.747,0,0,1-1.219.622q-.062,0-.124,0m-.007-2.717-.059,0a.845.845,0,0,0-.591.3.932.932,0,0,0,.09,1.286.845.845,0,0,0,1.218-.085.916.916,0,0,0,.213-.661.892.892,0,0,0-.872-.845" transform="translate(-143.154 -223.499)" fill="#1392f8"/>
    <path id="Path_14629" data-name="Path 14629" d="M260.106,55.425c-2.69,0-5.748-2.059-9.349-6.293a13.9,13.9,0,0,1-3.313-8.977V30.481a1.359,1.359,0,0,1,1.073-1.328c8.949-1.926,10.88-2.186,11.589-2.186s2.641.26,11.589,2.186a1.359,1.359,0,0,1,1.073,1.328V38.56A17.873,17.873,0,0,1,267.575,51.2c-2.8,2.843-5.246,4.226-7.469,4.226m-9.945-23.846v8.575a11.183,11.183,0,0,0,2.667,7.219c3.75,4.409,6.028,5.335,7.278,5.335.988,0,2.751-.593,5.536-3.417a15.173,15.173,0,0,0,4.409-10.73V31.579c-7.687-1.642-9.536-1.9-9.945-1.9s-2.258.253-9.945,1.9" transform="translate(-202.621 -22.082)" fill="#1392f8"/>
    <path id="Path_14630" data-name="Path 14630" d="M294.753,94.5a.767.767,0,0,1-.544-.226l-2.989-2.989a.77.77,0,1,1,1.089-1.089l2.445,2.445,4.4-4.4a.77.77,0,0,1,1.089,1.089L295.3,94.276a.767.767,0,0,1-.544.226" transform="translate(-238.282 -72.073)" fill="#1392f8"/>
    <path id="Path_14631" data-name="Path 14631" d="M267.164,220.652a.77.77,0,1,1,0-1.54,17.546,17.546,0,0,0,17.526-17.526.77.77,0,1,1,1.54,0,19.087,19.087,0,0,1-19.066,19.066" transform="translate(-218.138 -164.44)" fill="#1392f8"/>
    <path id="Path_14632" data-name="Path 14632" d="M266.071,292.771a.767.767,0,0,1-.544-.226l-3.007-3.007a.769.769,0,0,1,0-1.089l3.007-3.007a.77.77,0,0,1,1.089,1.089l-2.462,2.463,2.462,2.463a.77.77,0,0,1-.544,1.314" transform="translate(-214.781 -233.551)" fill="#1392f8"/>
    <path id="Path_14633" data-name="Path 14633" d="M89.564,92.952a.77.77,0,0,1-.77-.77A19.087,19.087,0,0,1,107.86,73.117a.77.77,0,0,1,0,1.54A17.546,17.546,0,0,0,90.334,92.183a.77.77,0,0,1-.77.77" transform="translate(-72.709 -59.872)" fill="#1392f8"/>
    <path id="Path_14634" data-name="Path 14634" d="M178.064,64.071a.77.77,0,0,1-.544-1.314l2.462-2.463-2.462-2.463a.77.77,0,0,1,1.089-1.089l3.007,3.007a.77.77,0,0,1,0,1.089l-3.007,3.007a.767.767,0,0,1-.544.226" transform="translate(-145.178 -46.279)" fill="#1392f8"/>
  </g>
</svg>
