<?xml version="1.0" encoding="UTF-8" standalone="no" ?>
<!DOCTYPE svg PUBLIC "-//W3C//DTD SVG 1.1//EN" "http://www.w3.org/Graphics/SVG/1.1/DTD/svg11.dtd">
<svg xmlns="http://www.w3.org/2000/svg" xmlns:xlink="http://www.w3.org/1999/xlink" version="1.1" width="60" height="60" viewBox="0 0 60 60" xml:space="preserve">
<desc>Created with Fabric.js 4.2.0</desc>
<defs>
</defs>
<g transform="matrix(0 0 0 0 0 0)" id="55deec57-d930-4b97-ab25-2d6c398371a8"  >
</g>
<g transform="matrix(1 0 0 1 30 30)" id="5b57afe0-d261-4aab-8b09-7b1d5008d32a"  >
<rect style="stroke: none; stroke-width: 1; stroke-dasharray: none; stroke-linecap: butt; stroke-dashoffset: 0; stroke-linejoin: miter; stroke-miterlimit: 4; fill: rgb(255,255,255); fill-rule: nonzero; opacity: 1; visibility: hidden;" vector-effect="non-scaling-stroke"  x="-30" y="-30" rx="0" ry="0" width="60" height="60" />
</g>
<g transform="matrix(1.14 0 0 1.14 30 30)"  >
<g style="" vector-effect="non-scaling-stroke"   >
		<g transform="matrix(1 0 0 1 0 0)" id="Path_2354"  >
<path style="stroke: none; stroke-width: 1; stroke-dasharray: none; stroke-linecap: butt; stroke-dashoffset: 0; stroke-linejoin: miter; stroke-miterlimit: 4; fill: rgb(163,163,163); fill-rule: nonzero; opacity: 1;" vector-effect="non-scaling-stroke"  transform=" translate(-60.39, -19.35)" d="M 64.149 29.6 L 56.765 29.6 C 55.076203769434336 29.60000033348052 53.45663463251304 28.928854987614294 52.26285053366003 27.73432067094582 C 51.06906643480701 26.539786354277346 50.39893869836253 24.919795897085184 50.4 23.231 L 50.4 15.465 C 50.4 13.776897042171303 51.070596288925884 12.157934386569366 52.264265337747624 10.964265337747625 C 53.45793438656936 9.770596288925883 55.076897042171304 9.1 56.765 9.1 L 64.021 9.1 C 67.536292432673 9.100000000000001 70.386 11.949707567327 70.386 15.464999999999998 L 70.386 23.231 C 70.38706121354743 24.91962264492868 69.71707071447645 26.53946150162513 68.52350292248954 27.73396704329148 C 67.32993513050263 28.928472584957827 65.71062295760001 29.599735035269518 64.022 29.6 M 56.765 10.755 C 54.09304638031862 10.755 51.927 12.921046380318622 51.927 15.593 L 51.927 23.359 C 51.99639061542144 25.980836391145765 54.14224566980861 28.069918099736835 56.765 28.069000000000003 L 64.021 28.069000000000003 C 66.69295361968138 28.069 68.859 25.90295361968138 68.859 23.231 L 68.859 15.465 C 68.859 12.793046380318623 66.69295361968138 10.627000000000002 64.021 10.626999999999999 Z" stroke-linecap="round" />
</g>
		<g transform="matrix(1 0 0 1 0.13 0)" id="Path_2355"  >
<path style="stroke: none; stroke-width: 1; stroke-dasharray: none; stroke-linecap: butt; stroke-dashoffset: 0; stroke-linejoin: miter; stroke-miterlimit: 4; fill: rgb(163,163,163); fill-rule: nonzero; opacity: 1;" vector-effect="non-scaling-stroke"  transform=" translate(-59.54, -18.34)" d="M 59.474 23.748 C 56.49818406238333 23.713075341835786 54.109130523669805 21.281591701139092 54.12659315338081 18.305622063712526 C 54.14405578309182 15.329652426285957 56.56147912871545 12.92637261031588 59.537499999999994 12.92637261031588 C 62.51352087128455 12.92637261031588 64.93094421690817 15.329652426285955 64.94840684661918 18.305622063712523 C 64.9658694763302 21.281591701139092 62.576815937616665 23.713075341835786 59.601 23.748 M 59.601 14.455000000000002 C 57.4918245403962 14.455000000000004 55.782 16.164824540396207 55.782000000000004 18.274000000000004 C 55.782000000000004 20.383175459603805 57.4918245403962 22.093000000000004 59.601000000000006 22.093000000000004 C 61.7101754596038 22.093 63.42 20.383175459603798 63.42 18.274 C 63.35399962487225 16.19239009396187 61.681627114540895 14.520455377481383 59.6 14.455" stroke-linecap="round" />
</g>
		<g transform="matrix(1 0 0 1 5.66 -5.54)" id="Path_2356"  >
<path style="stroke: none; stroke-width: 1; stroke-dasharray: none; stroke-linecap: butt; stroke-dashoffset: 0; stroke-linejoin: miter; stroke-miterlimit: 4; fill: rgb(163,163,163); fill-rule: nonzero; opacity: 1;" vector-effect="non-scaling-stroke"  transform=" translate(-62.97, -13.07)" d="M 64.246 13.073 C 64.246 13.587880437642863 63.935843507429446 14.052062431752057 63.460156009400755 14.249098644886868 C 62.98446851137206 14.44613485802168 62.43692851650709 14.33722238140804 62.07285306754952 13.973146932450476 C 61.70877761859195 13.60907148349291 61.59986514197832 13.061531488627933 61.79690135511313 12.585843990599239 C 61.99393756824794 12.110156492570544 62.45811956235714 11.799999999999999 62.973 11.8 C 63.6760584865346 11.800000000000002 64.246 12.369941513465402 64.246 13.073" stroke-linecap="round" />
</g>
</g>
</g>
</svg>