<svg xmlns="http://www.w3.org/2000/svg" width="17.379" height="28" viewBox="0 0 17.379 28">
  <path id="Path_12258" data-name="Path 12258" d="M133.414,95.138c0,2.133-3.458,3.862-7.724,3.862s-7.724-1.729-7.724-3.862c0-1.373,1.436-2.574,3.594-3.26.256.418.5.834.747,1.256-1.458.4-2.41,1.037-2.41,1.762,0,1.2,2.594,2.172,5.793,2.172s5.793-.973,5.793-2.172c0-.726-.952-1.367-2.411-1.762q.364-.634.746-1.257C131.977,92.562,133.414,93.765,133.414,95.138ZM125.69,71A8.654,8.654,0,0,0,117,79.618c0,5.011,4.665,7.664,8.213,15.22a.527.527,0,0,0,.951,0c3.549-7.556,8.214-10.21,8.214-15.22A8.654,8.654,0,0,0,125.69,71Zm0,13.517a4.828,4.828,0,1,1,4.828-4.828A4.827,4.827,0,0,1,125.69,84.517Zm0-7.724a2.9,2.9,0,1,0,2.9,2.9A2.9,2.9,0,0,0,125.69,76.793Z" transform="translate(-117 -71)" fill="#76bbee"/>
</svg>
