<svg xmlns="http://www.w3.org/2000/svg" width="38" height="38.758" viewBox="0 0 38 38.758"><defs><style>.a{fill:#d4f3e2;fill-rule:evenodd;}.b{fill:#1392f8;}</style></defs><g transform="translate(-74.5 -81.5)"><g transform="translate(76.665 98.822)"><path class="a" d="M94.5,253.9v-7.037a5.359,5.359,0,0,1,5.359-5.359h0a5.359,5.359,0,0,1,5.359,5.359V253.9a5.359,5.359,0,0,1-5.359,5.359h0A5.359,5.359,0,0,1,94.5,253.9Z" transform="translate(-94.5 -241.5)"/></g><g transform="translate(74.5 102.07)"><path class="b" d="M79.859,289.255A5.365,5.365,0,0,1,74.5,283.9v-7.037a5.359,5.359,0,1,1,10.718,0V283.9A5.365,5.365,0,0,1,79.859,289.255Zm0-15.915a3.523,3.523,0,0,0-3.519,3.519V283.9a3.519,3.519,0,1,0,7.037,0v-7.037A3.523,3.523,0,0,0,79.859,273.34Z" transform="translate(-74.5 -271.5)"/></g><g transform="translate(88.141 92.651)"><path class="b" d="M205.859,211.674a5.365,5.365,0,0,1-5.359-5.359V189.859a5.359,5.359,0,0,1,10.718,0v16.456A5.365,5.365,0,0,1,205.859,211.674Zm0-26.254a4.444,4.444,0,0,0-4.439,4.439v16.456a4.439,4.439,0,1,0,8.877,0V189.859A4.444,4.444,0,0,0,205.859,185.42Z" transform="translate(-200.5 -184.5)"/></g><g transform="translate(101.782 81.5)"><path class="b" d="M331.859,120.258A5.365,5.365,0,0,1,326.5,114.9V86.859a5.359,5.359,0,0,1,10.718,0V114.9A5.365,5.365,0,0,1,331.859,120.258Zm0-37.838a4.444,4.444,0,0,0-4.439,4.439V114.9a4.439,4.439,0,0,0,8.878,0V86.859A4.444,4.444,0,0,0,331.859,82.42Z" transform="translate(-326.5 -81.5)"/></g></g></svg>