<svg xmlns="http://www.w3.org/2000/svg" width="81.316" height="77.414" viewBox="0 0 81.316 77.414">
  <g id="Group_4350" data-name="Group 4350" transform="translate(-56.018 -81.5)">
    <g id="Oval" transform="translate(56.018 85.196)">
      <path id="Path_17564" data-name="Path 17564" d="M87.174,110.634c.52-11.081-9.433-16.068-18.649-8.392s-13.661,13.1-12.252,18.367,9.194,10.712,19.993,10.43S86.632,121.715,87.174,110.634Z" transform="translate(-56.018 -98.544)" fill="#d4f3e2" fill-rule="evenodd"/>
    </g>
    <g id="Oval-2" data-name="Oval" transform="translate(91.419 108.47)">
      <path id="Path_17565" data-name="Path 17565" d="M264.341,221.9c-4.163-15.548-18.15-20.253-24.243-12.057-6.093,8.175,1.843,22.942-15.2,30.814-11.861,5.963-3.9,20.318,14.052,14.1S268.5,237.473,264.341,221.9Z" transform="translate(-219.275 -205.873)" fill="#d4f3e2" fill-rule="evenodd"/>
    </g>
    <g id="Group-3" transform="translate(74.771 81.5)">
      <g id="Path" transform="translate(0 0)">
        <path id="Path_17566" data-name="Path 17566" d="M175.786,158.914H149.764a7.273,7.273,0,0,1-7.264-7.264V88.764a7.273,7.273,0,0,1,7.264-7.264h26.022a7.273,7.273,0,0,1,7.264,7.264v5.66a1.843,1.843,0,1,1-3.686,0v-5.66a3.582,3.582,0,0,0-3.578-3.578H149.764a3.582,3.582,0,0,0-3.578,3.578V151.65a3.582,3.582,0,0,0,3.578,3.578h26.022a3.582,3.582,0,0,0,3.578-3.578v-10.43a1.843,1.843,0,0,1,3.686,0v10.43A7.273,7.273,0,0,1,175.786,158.914Z" transform="translate(-142.5 -81.5)" fill="#1392f8"/>
      </g>
      <g id="Group-2" transform="translate(2.274 8.728)">
        <g id="Path-28" transform="translate(0.391 0)">
          <rect id="Rectangle_1744" data-name="Rectangle 1744" width="36.517" height="1.843" transform="matrix(1, -0.003, 0.003, 1, 0, 0.109)" fill="#1392f8"/>
        </g>
        <g id="Path-28-Copy" transform="translate(0 52.737)">
          <rect id="Rectangle_1745" data-name="Rectangle 1745" width="36.539" height="1.843" transform="translate(0 0.13) rotate(-0.204)" fill="#1392f8"/>
        </g>
      </g>
      <g id="Path-28-Copy-2" transform="translate(5.584 19.245)">
        <path id="Path_17567" data-name="Path 17567" d="M182.182,172.093H169.172a.922.922,0,1,1,0-1.843h13.011a.922.922,0,1,1,0,1.843Z" transform="translate(-168.25 -170.25)" fill="#1392f8"/>
      </g>
      <g id="Path-28-Copy-4" transform="translate(5.584 26.769)">
        <path id="Path_17568" data-name="Path 17568" d="M182.182,206.857h0l-13.011-.065a.922.922,0,1,1,.009-1.843l13.011.065a.922.922,0,0,1,0,1.843Z" transform="translate(-168.25 -204.949)" fill="#1392f8"/>
      </g>
      <g id="Path-28-Copy-9" transform="translate(5.584 49.148)">
        <path id="Path_17569" data-name="Path 17569" d="M191.789,310.015h0l-22.617-.022a.922.922,0,0,1,0-1.843h0l22.617.022a.922.922,0,0,1,0,1.843Z" transform="translate(-168.25 -308.15)" fill="#1392f8"/>
      </g>
      <g id="Path-28-Copy-10" transform="translate(5.584 56.716)">
        <path id="Path_17570" data-name="Path 17570" d="M172.424,344.937h-.013l-3.253-.043a.922.922,0,0,1,.012-1.843h.013l3.253.043a.922.922,0,0,1-.012,1.843Z" transform="translate(-168.25 -343.05)" fill="#1392f8"/>
      </g>
      <g id="Path-28-Copy-12" transform="translate(29.589 56.716)">
        <path id="Path_17571" data-name="Path 17571" d="M283.124,344.937h-.012l-3.253-.043a.922.922,0,0,1,.012-1.843h.013l3.253.043a.922.922,0,0,1-.012,1.843Z" transform="translate(-278.95 -343.05)" fill="#1392f8"/>
      </g>
      <g id="Path-28-Copy-11" transform="translate(12.891 56.716)">
        <path id="Path_17572" data-name="Path 17572" d="M215.514,344.937h0l-12.642-.043a.922.922,0,0,1,0-1.843h0l12.642.043a.922.922,0,0,1,0,1.843Z" transform="translate(-201.95 -343.05)" fill="#1392f8"/>
      </g>
      <g id="Path-28-Copy-7" transform="translate(5.584 41.559)">
        <path id="Path_17573" data-name="Path 17573" d="M176.978,275.015h0l-7.806-.022a.922.922,0,0,1,0-1.843h0l7.806.022a.922.922,0,0,1,0,1.843Z" transform="translate(-168.25 -273.15)" fill="#1392f8"/>
      </g>
      <g id="Path-28-Copy-8" transform="translate(16.751 41.58)">
        <path id="Path_17574" data-name="Path 17574" d="M225.919,275.093h-5.248a.922.922,0,1,1,0-1.843h5.248a.922.922,0,1,1,0,1.843Z" transform="translate(-219.75 -273.25)" fill="#1392f8"/>
      </g>
      <g id="Path-28-Copy-5" transform="translate(5.584 34.402)">
        <path id="Path_17575" data-name="Path 17575" d="M172.424,242.014h-.006l-3.253-.022a.922.922,0,0,1,.012-1.843l3.253.022a.922.922,0,0,1-.006,1.843Z" transform="translate(-168.25 -240.149)" fill="#1392f8"/>
      </g>
      <g id="Path-28-Copy-6" transform="translate(12.891 34.403)">
        <path id="Path_17576" data-name="Path 17576" d="M206.037,242.015h-.006l-3.166-.022a.922.922,0,0,1,.013-1.843l3.166.022a.922.922,0,0,1-.006,1.843Z" transform="translate(-201.95 -240.15)" fill="#1392f8"/>
      </g>
      <g id="Path-28-Copy-3" transform="translate(21.999 19.245)">
        <path id="Path_17577" data-name="Path 17577" d="M248.406,172.093h-3.535a.922.922,0,0,1,0-1.843h3.535a.922.922,0,1,1,0,1.843Z" transform="translate(-243.95 -170.25)" fill="#1392f8"/>
      </g>
      <g id="Path-28-Copy-13" transform="translate(16.057 5.302)">
        <path id="Path_17578" data-name="Path 17578" d="M220.984,107.793h-3.513a.922.922,0,0,1,0-1.843h3.513a.922.922,0,1,1,0,1.843Z" transform="translate(-216.55 -105.95)" fill="#1392f8"/>
      </g>
      <g id="Oval-3" data-name="Oval" transform="translate(22.747 5.313)">
        <circle id="Ellipse_3644" data-name="Ellipse 3644" cx="0.911" cy="0.911" r="0.911" fill="#1392f8"/>
      </g>
      <g id="Oval-4" data-name="Oval" transform="translate(17.185 65.975)">
        <path id="Path_17579" data-name="Path 17579" d="M224.84,391.93a3.09,3.09,0,1,1,3.09-3.09A3.094,3.094,0,0,1,224.84,391.93Zm0-4.337a1.247,1.247,0,1,0,1.247,1.247A1.248,1.248,0,0,0,224.84,387.593Z" transform="translate(-221.75 -385.75)" fill="#1392f8"/>
      </g>
    </g>
    <g id="Path-2" data-name="Path" transform="translate(111.635 87.246)">
      <path id="Path_17580" data-name="Path 17580" d="M314.343,162.754a1.843,1.843,0,0,1-1.843-1.843V109.843a1.843,1.843,0,1,1,3.686,0V160.91A1.843,1.843,0,0,1,314.343,162.754Z" transform="translate(-312.5 -108)" fill="#1392f8"/>
    </g>
    <g id="Path-3" data-name="Path" transform="translate(111.635 136.926)">
      <path id="Path_17581" data-name="Path 17581" d="M314.343,353.841A1.843,1.843,0,0,1,312.5,352V338.943a1.843,1.843,0,0,1,3.686,0V352A1.843,1.843,0,0,1,314.343,353.841Z" transform="translate(-312.5 -337.1)" fill="#1392f8"/>
    </g>
  </g>
</svg>
