<svg xmlns="http://www.w3.org/2000/svg" xmlns:xlink="http://www.w3.org/1999/xlink" width="147" height="131" viewBox="0 0 147 131">
  <defs>
    <filter id="Polygon_83" x="0" y="0" width="147" height="131" filterUnits="userSpaceOnUse">
      <feOffset dy="3" input="SourceAlpha"/>
      <feGaussianBlur stdDeviation="5" result="blur"/>
      <feFlood flood-opacity="0.161"/>
      <feComposite operator="in" in2="blur"/>
      <feComposite in="SourceGraphic"/>
    </filter>
  </defs>
  <g id="Group_3204" data-name="Group 3204" transform="translate(-1296 -471)">
    <g transform="matrix(1, 0, 0, 1, 1296, 471)" filter="url(#Polygon_83)">
      <path id="Polygon_83-2" data-name="Polygon 83" d="M87.75,0,117,50.5,87.75,101H29.25L0,50.5,29.25,0Z" transform="translate(15 12)" fill="#1292f8"/>
    </g>
    <g id="Group_3163" data-name="Group 3163" transform="translate(-2545.466 -3.793)">
      <path id="Path_12248" data-name="Path 12248" d="M3917.31,518.782v-2.4l15.4,8.822V527s-15.364-8.208-15.4-8.216Zm0-7.4,15.4,9.611v1.877l-15.4-9.087v-2.4Zm0-5.147,15.4,10.538v1.864l-15.4-9.879v-2.524Zm-2.292,2.463-5.858,1.643V508.33l5.858-1.747V508.7Zm0,4.538-5.858,1.643v-2.027l5.858-1.643v2.027Zm-6.96,42.021-13.159.988v-2.834l13.212-1.811,10.447,1.7a1.263,1.263,0,0,0,1.418-1.034,1.147,1.147,0,0,0-.945-1.362l-10.742-1.719a.643.643,0,0,0-.232,0l-13.159,1.8v-2.812l13.24-2.677,10.419,2.715a1.265,1.265,0,0,0,1.418-1.034,1.147,1.147,0,0,0-.945-1.363l-10.742-2.738a.477.477,0,0,0-.232.005l-13.159,2.641v-2.924l13.222-3.407,10.437,3.677a1.2,1.2,0,0,0,1.418-.94,1.214,1.214,0,0,0-.945-1.429l-10.663-3.726a.539.539,0,0,0-.311,0l-13.159,3.359V537.3l13.217-3.973,10.442,4.37a1.138,1.138,0,0,0,1.418-.843,1.271,1.271,0,0,0-.945-1.487l-10.587-4.459a.467.467,0,0,0-.387,0l-13.159,3.9v-2.682l13.238-4.867,10.421,4.989a1.134,1.134,0,0,0,1.418-.83,1.282,1.282,0,0,0-.945-1.495l-10.577-5.088c-.224-.064-.173-.061-.4.008l-13.159,4.752v-2.651l13.268-5.893,10.391,5.488a1.113,1.113,0,0,0,1.418-.795,1.3,1.3,0,0,0-.945-1.513l-10.546-5.616c-.262-.081-.173-.071-.428.028l-14.32,6.155a1.973,1.973,0,0,0-1.385,1.979v34.51h-3.929a1.275,1.275,0,0,0,0,2.547h52.391a1.275,1.275,0,0,0,0-2.547h-5.4V516.273a1.2,1.2,0,0,0-.685-1.108l-17.21-11.521a1.223,1.223,0,0,0-.861-.059l-8.893,2.684a1.227,1.227,0,0,0-.894,1.133v10.518l8.15-2.17v4.92l17.692,8.61v1.849l-11.343-5.768v2.519l11.343,5.516v1.869l-11.343-4.874v2.491l11.343,4.615v1.813l-11.343-3.876v2.483l11.343,3.614v1.79c-.01.046-10.482-2.72-11.343-2.847v2.442c.127.069,11.343,2.58,11.343,2.605v1.737l-11.343-1.737v2.447l11.343,1.482v2.037l-11.343-.937v2.432l11.343.937v1.935c0,.01-10.368-.2-11.343-.265v2.422c.033-.046,11.223.272,11.223.267v3H3894.9v-2.608l13.222-.993,10.437.573a1.343,1.343,0,0,0,1.418-1.136c.038-.667-.278-1.238-.945-1.279l-10.974-.576Z" fill="#fff"/>
    </g>
  </g>
</svg>
