<svg xmlns="http://www.w3.org/2000/svg" width="129" height="39" viewBox="0 0 129 39">
  <path id="path2" d="M48.161,8,0,10.68,13.368,47,49.589,35.654H43.7V20.031h6V35.6l9.541-2.965Zm-1.428,3.706a3.256,3.256,0,0,1,3.6,3.421,3.39,3.39,0,0,1-3.6,3.364,3.425,3.425,0,0,1-3.6-3.364,3.284,3.284,0,0,1,3.6-3.421Zm-10.8,8.1a15.625,15.625,0,0,1,4.913.741v4.162a9.317,9.317,0,0,0-4.342-1.14c-2.742,0-4.57,1.368-4.57,4.276s2.514,4.276,5.027,4.276a10.679,10.679,0,0,0,4.285-.912V35.14a17.7,17.7,0,0,1-5.085.741c-5.2.057-10.569-2.224-10.455-7.982s5.37-8.039,10.226-8.1ZM9.2,20.031h6.97c3.371,0,8.341.741,8.4,5.3s-5.085,5.588-8.512,5.588H15.14V35.6H9.2Zm117.974.171A1.769,1.769,0,1,0,129,21.969,1.791,1.791,0,0,0,127.172,20.2Zm-62.1.342a1.733,1.733,0,0,0-1.942,1.6c0,.855.628,1.368,1.6,1.711.8.342,1.143.627,1.143,1.2,0,.627-.457,1.026-1.257,1.026a2.59,2.59,0,0,1-1.371-.4l-.286.627a3.078,3.078,0,0,0,1.543.4c1.371,0,2.057-.8,2.057-1.711s-.457-1.368-1.485-1.768c-.857-.285-1.2-.57-1.2-1.14,0-.4.343-.912,1.143-.912a2.154,2.154,0,0,1,1.143.285l.229-.627a2.49,2.49,0,0,0-1.314-.285Zm19.253,0a.513.513,0,1,0,0,1.026.479.479,0,0,0,.514-.513A.512.512,0,0,0,84.324,20.544Zm42.848.114a1.313,1.313,0,1,1-1.257,1.311A1.28,1.28,0,0,1,127.172,20.658Zm-.743.513v1.654h.457v-.57c.457,0,.457.228.571.57h.571c-.171-.456-.229-.57-.457-.684a.481.481,0,0,0,.4-.4c0-.342-.229-.57-.8-.57Zm-39.477.171-.743.228v.8h-.686v.57h.686v2.338c0,1.368.686,1.654,1.828,1.368l-.057-.57c-.686.171-1.028-.057-1.028-.8V22.939h1.143v-.57H86.952Zm39.934.171h.286c.171,0,.286.057.286.228s-.114.228-.286.228h-.286ZM69.413,22.2a2.115,2.115,0,0,0-2,2.338A1.993,1.993,0,0,0,69.527,26.7a3.623,3.623,0,0,0,1.428-.285l-.114-.57a2.962,2.962,0,0,1-1.2.228,1.377,1.377,0,0,1-1.485-1.482h3.028C71.241,23.281,70.727,22.254,69.413,22.2Zm4.742.057a2.187,2.187,0,0,0-2.285,2.281A1.993,1.993,0,0,0,73.984,26.7a3.063,3.063,0,0,0,1.257-.228l-.171-.627a2.02,2.02,0,0,1-.971.228,1.471,1.471,0,0,1-1.485-1.6,1.529,1.529,0,0,1,1.543-1.654,1.617,1.617,0,0,1,.914.228l.171-.57a2.569,2.569,0,0,0-1.085-.228Zm4.8,0v2.623a1.1,1.1,0,0,1-1.085,1.14c-.686,0-.971-.57-.971-1.368V22.311h-.8V24.82c0,1.482.8,1.882,1.485,1.882a1.623,1.623,0,0,0,1.428-.8l.057.684h.743a5.207,5.207,0,0,1-.057-.912V22.254Zm2.742.969-.057-.855h-.686a9.232,9.232,0,0,1,.057,1.311V26.7h.8V24.421c0-.969.4-1.425,1.314-1.368v-.741A1.477,1.477,0,0,0,81.7,23.224Zm10-.912c-.4,1.14-.8,2.281-1.143,3.421-.343-1.14-.914-2.509-1.2-3.307H88.38l1.657,4.048a2.082,2.082,0,0,1-1.371,1.482l.171.627c1.543-.4,2-2.053,2.457-3.193l1.2-3.079Zm-7.713.057v4.276h.8V22.368ZM69.3,22.825a1.113,1.113,0,0,1,1.085,1.254H68.1A1.291,1.291,0,0,1,69.3,22.825Zm-54.274.513V27.5c1.942.057,3.828-.171,3.771-2.11s-1.828-2.11-3.771-2.053Zm67.7,5.873v2.566a1.47,1.47,0,0,0-1.314-.627,2.059,2.059,0,0,0-1.942,2.281A1.939,1.939,0,0,0,81.3,35.6a1.586,1.586,0,0,0,1.428-.855l.057.741h.686A6.2,6.2,0,0,1,83.41,34.4V29.211Zm12.054,0v2.566a1.47,1.47,0,0,0-1.314-.627,2.027,2.027,0,0,0-1.942,2.281A1.939,1.939,0,0,0,93.351,35.6a1.613,1.613,0,0,0,1.485-.855l.057.741h.686a6.2,6.2,0,0,1-.057-1.083V29.211Zm33.193,0v6.272h.8V29.211Zm-62.9.171a1.733,1.733,0,0,0-1.942,1.6c0,.855.628,1.368,1.6,1.711.8.342,1.143.627,1.143,1.2,0,.627-.457,1.026-1.257,1.026a2.59,2.59,0,0,1-1.371-.4l-.286.627a3.078,3.078,0,0,0,1.543.4c1.371,0,2.057-.8,2.057-1.711s-.457-1.368-1.485-1.768c-.857-.285-1.2-.57-1.2-1.14,0-.4.343-.912,1.143-.912a2.154,2.154,0,0,1,1.143.285l.229-.627a2.49,2.49,0,0,0-1.314-.285Zm61.244,0a.513.513,0,1,0,0,1.026.479.479,0,0,0,.514-.513A.512.512,0,0,0,126.315,29.382Zm-21.252.057a2.966,2.966,0,0,0-3.142,3.136,2.83,2.83,0,0,0,2.971,3.022,4.432,4.432,0,0,0,1.6-.285l-.171-.57a3.807,3.807,0,0,1-1.257.228,2.161,2.161,0,0,1-2.285-2.395,2.22,2.22,0,0,1,2.342-2.452,3.193,3.193,0,0,1,1.2.228l.171-.627A3.168,3.168,0,0,0,105.062,29.439Zm-36.506.741-.743.171v.8h-.686v.57h.686v2.338c0,1.254.571,1.711,1.828,1.368l-.057-.57c-.914.228-1.028-.285-1.028-.8V31.776H69.7v-.57H68.556Zm8.284.912a1.533,1.533,0,0,0-1.314.8l-.057-.684h-.686a6.9,6.9,0,0,1,.057,1.14v3.136h.8V32.917a1.1,1.1,0,0,1,1.085-1.14c.686,0,.971.57.971,1.254v2.452h.8V32.917a1.6,1.6,0,0,0-1.657-1.825Zm21.31,0a1.333,1.333,0,0,0-1.485,1.254c0,.513.343.912,1.143,1.2.571.228.8.4.8.8,0,.342-.229.627-.8.627a1.83,1.83,0,0,1-1.028-.285l-.171.684a2.484,2.484,0,0,0,1.2.285c1.028,0,1.6-.57,1.6-1.311,0-.684-.4-1.026-1.143-1.311-.571-.228-.8-.4-.8-.741a.607.607,0,0,1,.686-.57,1.544,1.544,0,0,1,.857.228l.171-.57a1.7,1.7,0,0,0-1.028-.285Zm10.969,0A2.117,2.117,0,0,0,107,33.373a2.058,2.058,0,0,0,2.057,2.224,2.133,2.133,0,0,0,2.114-2.338,2.008,2.008,0,0,0-2.057-2.167Zm5.884,0v2.623a1.1,1.1,0,0,1-1.085,1.14c-.743,0-.971-.57-.971-1.368V31.149h-.8v2.509c0,1.482.8,1.882,1.485,1.882a1.623,1.623,0,0,0,1.428-.8l.057.684h.686V31.092Zm4.056,0a1.533,1.533,0,0,0-1.314.8l-.057-.684H117a6.9,6.9,0,0,1,.057,1.14v3.136h.8V32.917a1.1,1.1,0,0,1,1.085-1.14c.686,0,.971.57.971,1.254v2.452h.8V32.917a1.6,1.6,0,0,0-1.657-1.825Zm4.913,0a2.187,2.187,0,0,0-2.285,2.281,1.993,1.993,0,0,0,2.114,2.167,2.858,2.858,0,0,0,1.257-.228l-.171-.627a2.02,2.02,0,0,1-.971.228,1.471,1.471,0,0,1-1.485-1.6,1.529,1.529,0,0,1,1.543-1.654,1.617,1.617,0,0,1,.914.228l.171-.57a2.569,2.569,0,0,0-1.085-.228Zm-34.221.969-.057-.855h-.686a9.232,9.232,0,0,1,.057,1.311l.057,3.022h.8V33.259c0-1.14.571-1.425,1.314-1.368v-.741A1.686,1.686,0,0,0,89.752,32.061Zm-17.767-.912a2.647,2.647,0,0,0-1.428.342l.171.513a2.063,2.063,0,0,1,1.143-.342c.8,0,.971.456.971,1.083-1.657,0-2.571.57-2.571,1.6A1.244,1.244,0,0,0,71.584,35.6a1.544,1.544,0,0,0,1.314-.627l.057.513H73.7a4.327,4.327,0,0,1-.057-.8V32.917A1.551,1.551,0,0,0,71.984,31.149Zm14.225,0a2.647,2.647,0,0,0-1.428.342l.171.513a2.063,2.063,0,0,1,1.143-.342c.743,0,.971.4.971,1.083-1.657,0-2.571.57-2.571,1.6A1.244,1.244,0,0,0,85.81,35.6a1.544,1.544,0,0,0,1.314-.627l.057.513h.743a4.327,4.327,0,0,1-.057-.8V32.917A1.551,1.551,0,0,0,86.209,31.149Zm39.705.057v4.276h.8V31.206Zm-44.562.456a1.207,1.207,0,0,1,1.257.912A4.042,4.042,0,0,1,82.553,34a1.155,1.155,0,0,1-1.143.912c-.8,0-1.257-.741-1.257-1.6,0-.969.514-1.654,1.2-1.654Zm12.283,0a1.167,1.167,0,0,1,1.143.912,3.984,3.984,0,0,1,0,1.425,1.155,1.155,0,0,1-1.143.912c-.8,0-1.257-.741-1.257-1.6,0-.969.457-1.654,1.257-1.654Zm15.425,0c.971,0,1.314.912,1.314,1.654,0,.969-.571,1.654-1.314,1.654s-1.257-.684-1.314-1.654c0-.8.4-1.654,1.314-1.654ZM72.841,33.316c.057,1.026-.171,1.711-1.085,1.711a.688.688,0,0,1-.743-.741C71.013,33.658,71.641,33.316,72.841,33.316Zm14.168,0c.114.855-.114,1.711-1.085,1.711a.688.688,0,0,1-.743-.741C85.181,33.43,86.152,33.316,87.009,33.316Z" transform="translate(0 -8)" fill="#a3a3a3"/>
</svg>
