<svg xmlns="http://www.w3.org/2000/svg" xmlns:xlink="http://www.w3.org/1999/xlink" width="85" height="80" viewBox="0 0 85 80">
  <defs>
    <clipPath id="clip-path">
      <rect id="Rectangle_1373" data-name="Rectangle 1373" width="85" height="80" transform="translate(0 0)" fill="none"/>
    </clipPath>
  </defs>
  <g id="Group_3490" data-name="Group 3490" transform="translate(0.452)">
    <g id="Group_3489" data-name="Group 3489" transform="translate(-0.452 0)" clip-path="url(#clip-path)">
      <path id="Path_14289" data-name="Path 14289" d="M32.119,29.49c.541-11.424-9.728-16.566-19.222-8.657S-1.192,34.342.266,39.781,9.748,50.826,20.889,50.539s10.69-9.624,11.23-21.049" transform="translate(0.396 -13.217)" fill="#d4f3e2" fill-rule="evenodd"/>
      <path id="Path_14290" data-name="Path 14290" d="M211.781,140.952c-4.3-16.038-18.709-20.876-25-12.443s1.9,23.655-15.667,31.782c-12.232,6.158-4.017,20.956,14.5,14.54s30.461-17.841,26.164-33.879" transform="translate(-127.954 -96.597)" fill="#d4f3e2" fill-rule="evenodd"/>
      <path id="Path_14291" data-name="Path 14291" d="M179.668,105.475a.95.95,0,0,1-.95-.95A17.3,17.3,0,0,1,195.993,87.25a.95.95,0,0,1,0,1.9,15.392,15.392,0,0,0-15.374,15.374.95.95,0,0,1-.95.95" transform="translate(-138.356 -67.739)" fill="#1392f8"/>
      <path id="Path_14292" data-name="Path 14292" d="M242.668,82.518A.95.95,0,0,1,242,80.9l2.011-2.012L242,76.872a.95.95,0,0,1,1.344-1.344l2.683,2.684a.95.95,0,0,1,0,1.344l-2.683,2.684a.947.947,0,0,1-.672.278" transform="translate(-187.267 -58.422)" fill="#1392f8"/>
      <path id="Path_14293" data-name="Path 14293" d="M251.668,175.475a.95.95,0,0,1,0-1.9A15.392,15.392,0,0,0,267.043,158.2a.95.95,0,0,1,1.9,0,17.3,17.3,0,0,1-17.275,17.275" transform="translate(-194.255 -122.085)" fill="#1392f8"/>
      <path id="Path_14294" data-name="Path 14294" d="M251.352,225.518a.947.947,0,0,1-.672-.278L248,222.556a.95.95,0,0,1,0-1.344l2.684-2.684a.95.95,0,1,1,1.344,1.344l-2.011,2.011,2.011,2.012a.95.95,0,0,1-.672,1.622" transform="translate(-191.926 -169.444)" fill="#1392f8"/>
      <path id="Path_14295" data-name="Path 14295" d="M216.261,135.086a11.293,11.293,0,1,1,11.293-11.293,11.306,11.306,0,0,1-11.293,11.293m0-18.785a7.491,7.491,0,1,0,7.491,7.491,7.5,7.5,0,0,0-7.491-7.491" transform="translate(-158.736 -87.342)" fill="#1392f8"/>
      <path id="Path_14296" data-name="Path 14296" d="M243.774,153.083a2.559,2.559,0,0,1-2.857-2.447.95.95,0,0,1,1.9,0c0,.507.732.546.956.546.715,0,1.392-.349,1.392-.718s-.82-.707-1.543-1.012c-1.142-.482-2.705-1.143-2.705-2.765,0-1.412,1.293-2.438,3.075-2.438s3.075,1.025,3.075,2.438a.95.95,0,1,1-1.9,0c0-.321-.607-.537-1.174-.537s-1.174.216-1.174.537c0,.362.82.708,1.544,1.014,1.141.482,2.7,1.142,2.7,2.763,0,1.639-1.674,2.618-3.293,2.618" transform="translate(-186.645 -111.992)" fill="#1392f8"/>
      <path id="Path_14297" data-name="Path 14297" d="M251.366,148.214a.95.95,0,0,1-.95-.95V137.2a.95.95,0,1,1,1.9,0v10.063a.95.95,0,0,1-.95.95" transform="translate(-194.02 -105.781)" fill="#1392f8"/>
      <path id="Path_14298" data-name="Path 14298" d="M97.794,79.834H70.959a7.5,7.5,0,0,1-7.491-7.491V7.491A7.5,7.5,0,0,1,70.959,0H97.794a7.5,7.5,0,0,1,7.491,7.491v5.838a1.9,1.9,0,0,1-3.8,0V7.491a3.694,3.694,0,0,0-3.69-3.69H70.959a3.694,3.694,0,0,0-3.69,3.69V72.343a3.694,3.694,0,0,0,3.69,3.69H97.794a3.694,3.694,0,0,0,3.69-3.69V61.581a1.9,1.9,0,1,1,3.8,0V72.343a7.5,7.5,0,0,1-7.491,7.491" transform="translate(-48.879 0)" fill="#1392f8"/>
      <rect id="Rectangle_1371" data-name="Rectangle 1371" width="37.681" height="1.901" transform="translate(17.326 9.112) rotate(-0.169)" fill="#1392f8"/>
      <rect id="Rectangle_1372" data-name="Rectangle 1372" width="37.681" height="1.901" transform="translate(16.935 63.509) rotate(-0.169)" fill="#1392f8"/>
      <path id="Path_14299" data-name="Path 14299" d="M103.586,90.651H90.168a.95.95,0,1,1,0-1.9h13.418a.95.95,0,1,1,0,1.9" transform="translate(-68.87 -68.903)" fill="#1392f8"/>
      <path id="Path_14300" data-name="Path 14300" d="M103.587,125.457h0L90.165,125.4a.95.95,0,0,1,0-1.9h0l13.417.056a.95.95,0,0,1,0,1.9" transform="translate(-68.871 -95.882)" fill="#1392f8"/>
      <path id="Path_14301" data-name="Path 14301" d="M108.506,228.554h0l-18.337-.028a.95.95,0,0,1,0-1.9h0l18.337.028a.95.95,0,0,1,0,1.9" transform="translate(-68.87 -175.946)" fill="#1392f8"/>
      <path id="Path_14302" data-name="Path 14302" d="M93.524,263.5h-.012l-3.354-.042a.951.951,0,0,1,.012-1.9h.012l3.354.042a.95.95,0,0,1-.012,1.9" transform="translate(-68.871 -203.07)" fill="#1392f8"/>
      <path id="Path_14303" data-name="Path 14303" d="M204.273,263.5h-.012l-3.354-.042a.951.951,0,0,1,.012-1.9h.012l3.354.042a.95.95,0,0,1-.012,1.9" transform="translate(-154.854 -203.07)" fill="#1392f8"/>
      <path id="Path_14304" data-name="Path 14304" d="M136.946,263.5h0l-13.026-.042a.951.951,0,0,1,0-1.9h0l13.026.042a.95.95,0,0,1,0,1.9" transform="translate(-95.074 -203.07)" fill="#1392f8"/>
      <path id="Path_14305" data-name="Path 14305" d="M98.22,193.554h0l-8.051-.028a.95.95,0,0,1,0-1.9h0l8.051.028a.95.95,0,0,1,0,1.9" transform="translate(-68.871 -148.773)" fill="#1392f8"/>
      <path id="Path_14306" data-name="Path 14306" d="M144.128,193.651h-2.46a.95.95,0,1,1,0-1.9h2.46a.95.95,0,1,1,0,1.9" transform="translate(-108.853 -148.87)" fill="#1392f8"/>
      <path id="Path_14307" data-name="Path 14307" d="M93.523,160.554h-.008l-3.354-.028a.95.95,0,0,1-.942-.958.96.96,0,0,1,.958-.942l3.354.028a.95.95,0,0,1-.008,1.9" transform="translate(-68.87 -123.152)" fill="#1392f8"/>
      <path id="Path_14308" data-name="Path 14308" d="M129.119,160.554h-.005l-5.2-.028a.95.95,0,0,1,.01-1.9l5.2.028a.95.95,0,0,1,0,1.9" transform="translate(-95.074 -123.152)" fill="#1392f8"/>
      <path id="Path_14309" data-name="Path 14309" d="M169.552,90.651h-3.634a.95.95,0,1,1,0-1.9h3.634a.95.95,0,1,1,0,1.9" transform="translate(-127.681 -68.903)" fill="#1392f8"/>
      <path id="Path_14310" data-name="Path 14310" d="M142.052,26.4h-3.634a.95.95,0,0,1,0-1.9h3.634a.95.95,0,1,1,0,1.9" transform="translate(-106.33 -19.021)" fill="#1392f8"/>
      <path id="Path_14311" data-name="Path 14311" d="M169.293,24.5a.95.95,0,1,1-.95.95.95.95,0,0,1,.95-.95" transform="translate(-130.301 -19.021)" fill="#1392f8" fill-rule="evenodd"/>
      <path id="Path_14312" data-name="Path 14312" d="M145.9,310.623a3.187,3.187,0,1,1,3.187-3.187,3.19,3.19,0,0,1-3.187,3.187m0-4.472a1.286,1.286,0,1,0,1.286,1.286,1.287,1.287,0,0,0-1.286-1.286" transform="translate(-110.406 -236.212)" fill="#1392f8"/>
    </g>
  </g>
</svg>
