<svg xmlns="http://www.w3.org/2000/svg" width="18" height="18" viewBox="0 0 18 18">
  <path fill="#ffffff" d="m 4.5,13.5 c 2,2 6.5,5.5 9,4 2.5,-1.5 1.5,-2.5 0.5,-3.5 C 13,13 13,12 11,13.5 9,15 7.25,12.75 6.25,11.75 5.25,10.75 3,9 4.5,7 6,5 5,5 4,4 3,3 2,2 0.5,4.5 c -1.5,2.5 2,7 4,9 z" />
  <path fill="none" stroke="#ffffff" stroke-linecap="round" d="m 8,1 c 2,0 4,1 6,3 2,2 3,4 3,6" />
  <path fill="none" stroke="#ffffff" stroke-linecap="round" d="M 8,4.5 C 10,5 11,6 11.5,6.5 12,7 13,8 13.5,10" />
</svg>
