<svg xmlns="http://www.w3.org/2000/svg" xmlns:xlink="http://www.w3.org/1999/xlink" width="147" height="131" viewBox="0 0 147 131">
  <defs>
    <filter id="Polygon_82" x="0" y="0" width="147" height="131" filterUnits="userSpaceOnUse">
      <feOffset dy="3" input="SourceAlpha"/>
      <feGaussianBlur stdDeviation="5" result="blur"/>
      <feFlood flood-opacity="0.161"/>
      <feComposite operator="in" in2="blur"/>
      <feComposite in="SourceGraphic"/>
    </filter>
  </defs>
  <g id="Group_3203" data-name="Group 3203" transform="translate(-887 -471)">
    <g transform="matrix(1, 0, 0, 1, 887, 471)" filter="url(#Polygon_82)">
      <path id="Polygon_82-2" data-name="Polygon 82" d="M87.75,0,117,50.5,87.75,101H29.25L0,50.5,29.25,0Z" transform="translate(15 12)" fill="#1292f8"/>
    </g>
    <g id="Group_3162" data-name="Group 3162" transform="translate(788.881 371.549)">
      <path id="Path_12241" data-name="Path 12241" d="M198.7,209.953l-26.614-16.759a1.152,1.152,0,1,0-1.227,1.949L197.472,211.9a1.152,1.152,0,1,0,1.228-1.949Z" transform="translate(-22.852 -41.365)" fill="#fff"/>
      <path id="Path_12242" data-name="Path 12242" d="M189.549,228.833l-26.614-16.759a1.152,1.152,0,1,0-1.227,1.949l26.614,16.759a1.152,1.152,0,1,0,1.227-1.95Z" transform="translate(-16.4 -54.679)" fill="#fff"/>
      <path id="Path_12243" data-name="Path 12243" d="M272.091,195.736l11.243,7.05a1.152,1.152,0,0,0,1.224-1.952l-11.244-7.05a1.151,1.151,0,1,0-1.223,1.951Z" transform="translate(-94.238 -41.782)" fill="#fff"/>
      <path id="Path_12244" data-name="Path 12244" d="M268.732,211.142l-11.33-7.074a1.152,1.152,0,0,0-1.22,1.954l11.33,7.074a1.152,1.152,0,0,0,1.22-1.954Z" transform="translate(-83.019 -49.035)" fill="#fff"/>
      <path id="Path_12245" data-name="Path 12245" d="M186.873,168.737l11.244,7.05a1.139,1.139,0,0,0,.7.164c.029,0,.057.012.086.012a1.153,1.153,0,0,0,.625-.185l9.388-6.021a1.153,1.153,0,0,0,.538-.978c0-.009,0-.017,0-.026s0-.018,0-.028a1.151,1.151,0,0,0-.54-.967l-11.244-7.05a1.141,1.141,0,0,0-.7-.164c-.029,0-.057-.012-.086-.012a1.151,1.151,0,0,0-.625.184l-9.388,6.021a1.153,1.153,0,0,0-.538.978c0,.009,0,.017,0,.025s0,.018,0,.028A1.151,1.151,0,0,0,186.873,168.737Zm10.1-5.639,9.137,5.681-7.3,4.62-9.137-5.681Z" transform="translate(-34.145 -18.459)" fill="#fff"/>
      <path id="Path_12246" data-name="Path 12246" d="M252.9,221.451l-11.416-7.1a1.152,1.152,0,1,0-1.216,1.956l11.416,7.1a1.152,1.152,0,0,0,1.216-1.956Z" transform="translate(-71.797 -56.288)" fill="#fff"/>
      <path id="Path_12247" data-name="Path 12247" d="M203.485,167.612l0-.005-4.2-2.636,4.226-2.653a1.152,1.152,0,0,0,0-1.95l-41.025-25.833a1.15,1.15,0,0,0-1.227,0l-17.867,11.237a12.861,12.861,0,0,0-5.476,9.92v.614a12.858,12.858,0,0,0,5.476,9.92s33.875,21.6,34.516,21.951a3.674,3.674,0,0,0,1.8.453,5.784,5.784,0,0,0,3.043-.994L201.5,175.829a7.368,7.368,0,0,0,3.137-5.683A2.991,2.991,0,0,0,203.485,167.612Zm-27.7,16.294-31.171-19.629a10.653,10.653,0,0,1-4.4-7.971v-.614a10.652,10.652,0,0,1,4.4-7.97l17.253-10.851L200.7,161.324,181.519,173.4a13.469,13.469,0,0,0-5.736,10.391C175.783,183.831,175.787,183.867,175.788,183.906Zm24.482-10.027-18.751,11.807a2,2,0,0,1-3.433-1.895,11.281,11.281,0,0,1,4.66-8.441l14.369-9.02,2.7,1.693-18.887,11.894a1.152,1.152,0,0,0,1.227,1.949L201.5,169.686c.409-.257.632-.239.665-.221s.169.2.169.68A5.068,5.068,0,0,1,200.27,173.879Z" fill="#fff"/>
    </g>
  </g>
</svg>
