<svg xmlns="http://www.w3.org/2000/svg" width="81.337" height="63.142" viewBox="0 0 81.337 63.142">
  <g id="Group-2" transform="translate(-64.502 -110.5)">
    <g id="Oval" transform="translate(64.502 115.81)">
      <path id="Path_17608" data-name="Path 17608" d="M83.124,167.185c6.117,0,20.224-9.217,20.224-15.163S87.493,139.435,77.3,136.708s-15.6,2.434-11.323,13.966S77.007,167.185,83.124,167.185Z" transform="translate(-64.502 -135.994)" fill="#d4f3e2" fill-rule="evenodd"/>
    </g>
    <g id="Oval-Copy" transform="translate(106.712 141.835)">
      <path id="Path_17609" data-name="Path 17609" d="M300.244,287.979c3.94-4.08,9.581-20.4,3.039-25.127s-19.668.191-28.081,5.206-12.831,11.626,0,19.921S296.3,292.058,300.244,287.979Z" transform="translate(-267.151 -260.94)" fill="#d4f3e2" fill-rule="evenodd"/>
    </g>
    <g id="Rectangle" transform="translate(67.001 152.575)">
      <path id="Path_17610" data-name="Path 17610" d="M145.549,323.123H81.811a5.311,5.311,0,0,1,0-10.623h63.737a5.311,5.311,0,0,1,0,10.623Zm-63.737-7.082a1.77,1.77,0,0,0,0,3.541h63.737a1.77,1.77,0,0,0,0-3.541Z" transform="translate(-76.5 -312.5)" fill="#1392f8"/>
    </g>
    <g id="Rectangle-Copy" transform="translate(72.209 110.5)">
      <path id="Path_17611" data-name="Path 17611" d="M160.134,156.116H106.811A5.317,5.317,0,0,1,101.5,150.8V115.811a5.317,5.317,0,0,1,5.311-5.311h53.323a5.317,5.317,0,0,1,5.311,5.311V150.8A5.317,5.317,0,0,1,160.134,156.116Zm-53.323-42.075a1.772,1.772,0,0,0-1.77,1.77V150.8a1.772,1.772,0,0,0,1.77,1.77h53.323a1.772,1.772,0,0,0,1.77-1.77V115.811a1.772,1.772,0,0,0-1.77-1.77Z" transform="translate(-101.5 -110.5)" fill="#1392f8"/>
    </g>
    <g id="Rectangle-Copy-2" transform="translate(78.509 116.801)">
      <path id="Path_17612" data-name="Path 17612" d="M182.209,173.764H132.635a.885.885,0,0,1-.885-.885V141.635a.885.885,0,0,1,.885-.885h49.573a.885.885,0,0,1,.885.885v31.244A.885.885,0,0,1,182.209,173.764Zm-48.688-1.77h47.8V142.52h-47.8Z" transform="translate(-131.75 -140.75)" fill="#1392f8"/>
    </g>
    <g id="Group-2-2" data-name="Group-2" transform="translate(81.946 121.904)">
      <g id="Rectangle-2" data-name="Rectangle" transform="translate(0 0)">
        <path id="Path_17613" data-name="Path 17613" d="M188.919,187.85H151.635a3.389,3.389,0,0,1-3.385-3.385v-15.83a3.389,3.389,0,0,1,3.385-3.385h37.284a3.389,3.389,0,0,1,3.385,3.385v15.83A3.389,3.389,0,0,1,188.919,187.85ZM151.635,167.02a1.616,1.616,0,0,0-1.614,1.614v15.83a1.616,1.616,0,0,0,1.614,1.614h37.284a1.616,1.616,0,0,0,1.614-1.614v-15.83a1.616,1.616,0,0,0-1.614-1.614Z" transform="translate(-148.25 -165.25)" fill="#0094ff"/>
      </g>
      <g id="Path-50" transform="translate(1.406 4.791)">
        <rect id="Rectangle_1747" data-name="Rectangle 1747" width="41.66" height="1.77" fill="#0094ff"/>
      </g>
      <g id="Rectangle-Copy-2-2" data-name="Rectangle-Copy-2" transform="translate(3.072 2.656)">
        <path id="Path_17614" data-name="Path 17614" d="M163.729,178h0a.729.729,0,0,1,.729.729h0a.729.729,0,0,1-.729.729h0a.729.729,0,0,1-.729-.729h0A.729.729,0,0,1,163.729,178Z" transform="translate(-163 -178)" fill="#1392f8" fill-rule="evenodd"/>
      </g>
      <g id="Rectangle-Copy-3" transform="translate(5.364 2.656)">
        <path id="Path_17615" data-name="Path 17615" d="M174.729,178h0a.729.729,0,0,1,.729.729h0a.729.729,0,0,1-.729.729h0a.729.729,0,0,1-.729-.729h0A.729.729,0,0,1,174.729,178Z" transform="translate(-174 -178)" fill="#1392f8" fill-rule="evenodd"/>
      </g>
      <g id="Rectangle-Copy-4" transform="translate(7.655 2.656)">
        <path id="Path_17616" data-name="Path 17616" d="M185.729,178h0a.729.729,0,0,1,.729.729h0a.729.729,0,0,1-.729.729h0a.729.729,0,0,1-.729-.729h0A.729.729,0,0,1,185.729,178Z" transform="translate(-185 -178)" fill="#1392f8" fill-rule="evenodd"/>
      </g>
    </g>
    <g id="Group-6" transform="translate(87.723 131.591)">
      <g id="Path-33" transform="translate(0 0)">
        <path id="Path_17617" data-name="Path 17617" d="M176.868,213.579a.885.885,0,0,1-.077-1.767l.587-.052a.885.885,0,0,1,.156,1.764l-.587.052C176.921,213.578,176.894,213.579,176.868,213.579Z" transform="translate(-175.984 -211.756)" fill="#1392f8"/>
      </g>
      <g id="Path-33-Copy" transform="translate(4.431 0.104)">
        <path id="Path_17618" data-name="Path 17618" d="M225.231,214.027H198.142a.885.885,0,0,1,0-1.77h27.089a.885.885,0,1,1,0,1.77Z" transform="translate(-197.257 -212.257)" fill="#1392f8"/>
      </g>
      <g id="Path-33-Copy-5" transform="translate(0 5.832)">
        <path id="Path_17619" data-name="Path 17619" d="M176.868,241.579a.885.885,0,0,1-.077-1.767l.587-.052a.885.885,0,1,1,.156,1.764l-.587.052C176.921,241.578,176.894,241.579,176.868,241.579Z" transform="translate(-175.984 -239.756)" fill="#1392f8"/>
      </g>
      <g id="Path-33-Copy-3" transform="translate(4.431 5.937)">
        <path id="Path_17620" data-name="Path 17620" d="M218.867,242.027H198.142a.885.885,0,0,1,0-1.771h20.725a.885.885,0,0,1,0,1.771Z" transform="translate(-197.257 -240.257)" fill="#1392f8"/>
      </g>
    </g>
  </g>
</svg>
