<svg xmlns="http://www.w3.org/2000/svg" xmlns:xlink="http://www.w3.org/1999/xlink" width="72.791" height="82.958" viewBox="0 0 72.791 82.958">
  <defs>
    <clipPath id="clip-path">
      <rect id="Rectangle_1450" data-name="Rectangle 1450" width="75.335" height="71.664" fill="none"/>
    </clipPath>
  </defs>
  <g id="Group_3546" data-name="Group 3546" transform="translate(11.917 14.206) scale(0.839 1)">
    <g id="Group_3545" data-name="Group 3545" clip-path="url(#clip-path)">
      <path id="Path_14527" data-name="Path 14527" d="M16.384,185.407c9.758-6.645,17.409-5.809,17.409-19.25S25.154,137.3,17.371,144.211,0,151.216,0,164.638s6.645,27.414,16.384,20.769" transform="translate(0 -115.45)" fill="#d4f3e2" fill-rule="evenodd"/>
      <path id="Path_14528" data-name="Path 14528" d="M290.9,109.168c5.809-2.05,8.885-4.12,9.283-8.125s-4.1-8.543-9.283-8.543-5.923,4.12-7.556,9.777,1.747,8.942,7.556,6.891" transform="translate(-229.222 -74.939)" fill="#d4f3e2" fill-rule="evenodd"/>
      <path id="Path_14529" data-name="Path 14529" d="M53.641,67.774H30.86a6.367,6.367,0,0,1-6.36-6.36V6.36A6.367,6.367,0,0,1,30.86,0H53.641A6.367,6.367,0,0,1,60,6.36v4.955a1.614,1.614,0,1,1-3.227,0V6.36a3.136,3.136,0,0,0-3.132-3.132H30.86A3.136,3.136,0,0,0,27.727,6.36V61.415a3.136,3.136,0,0,0,3.132,3.132H53.641a3.136,3.136,0,0,0,3.132-3.132V52.283a1.614,1.614,0,1,1,3.227,0v9.132a6.367,6.367,0,0,1-6.36,6.36" transform="translate(-19.849)" fill="#1392f8"/>
      <rect id="Rectangle_1448" data-name="Rectangle 1448" width="31.97" height="1.614" transform="translate(6.984 7.736) rotate(-0.169)" fill="#1392f8"/>
      <rect id="Rectangle_1449" data-name="Rectangle 1449" width="31.989" height="1.614" transform="translate(6.642 53.925) rotate(-0.202)" fill="#1392f8"/>
      <path id="Path_14530" data-name="Path 14530" d="M62.447,90.364H51.057a.807.807,0,0,1,0-1.614H62.447a.807.807,0,0,1,0,1.614" transform="translate(-40.71 -71.901)" fill="#1392f8"/>
      <path id="Path_14531" data-name="Path 14531" d="M62.448,125.121h0l-11.39-.057a.807.807,0,0,1,0-1.614h0l11.39.057a.807.807,0,0,1,0,1.614" transform="translate(-40.711 -100.014)" fill="#1392f8"/>
      <path id="Path_14532" data-name="Path 14532" d="M68.523,228.283h0l-17.466-.019a.807.807,0,0,1,0-1.614h0l17.466.019a.807.807,0,0,1,0,1.614" transform="translate(-40.71 -183.622)" fill="#1392f8"/>
      <path id="Path_14533" data-name="Path 14533" d="M53.905,263.2h-.011l-2.848-.038a.807.807,0,0,1,.011-1.614h.011l2.848.038a.807.807,0,0,1-.011,1.614" transform="translate(-40.711 -211.896)" fill="#1392f8"/>
      <path id="Path_14534" data-name="Path 14534" d="M164.605,263.2h-.011l-2.848-.038a.807.807,0,0,1,.011-1.614h.011l2.848.038a.807.807,0,0,1-.011,1.614" transform="translate(-130.395 -211.896)" fill="#1392f8"/>
      <path id="Path_14535" data-name="Path 14535" d="M95.826,263.2h0l-11.068-.038a.807.807,0,0,1,0-1.614h0l11.068.038a.807.807,0,0,1,0,1.614" transform="translate(-68.013 -211.896)" fill="#1392f8"/>
      <path id="Path_14536" data-name="Path 14536" d="M57.892,193.283h0l-6.834-.019a.807.807,0,0,1,0-1.614h0l6.834.019a.807.807,0,0,1,0,1.614" transform="translate(-40.711 -155.266)" fill="#1392f8"/>
      <path id="Path_14537" data-name="Path 14537" d="M104.645,193.364h-2.088a.807.807,0,1,1,0-1.614h2.088a.807.807,0,1,1,0,1.614" transform="translate(-82.433 -155.347)" fill="#1392f8"/>
      <path id="Path_14538" data-name="Path 14538" d="M53.905,160.283H53.9l-2.847-.019a.807.807,0,0,1,.005-1.614h.006l2.848.019a.807.807,0,0,1-.005,1.614" transform="translate(-40.711 -128.531)" fill="#1392f8"/>
      <path id="Path_14539" data-name="Path 14539" d="M89.181,160.283h0l-4.423-.019a.807.807,0,0,1,0-1.614h0l4.424.019a.807.807,0,0,1,0,1.614" transform="translate(-68.013 -128.531)" fill="#1392f8"/>
      <path id="Path_14540" data-name="Path 14540" d="M131.465,90.364h-4.708a.807.807,0,0,1,0-1.614h4.708a.807.807,0,0,1,0,1.614" transform="translate(-102.039 -71.901)" fill="#1392f8"/>
      <path id="Path_14541" data-name="Path 14541" d="M102.432,26.064H99.357a.807.807,0,1,1,0-1.614h3.075a.807.807,0,1,1,0,1.614" transform="translate(-79.841 -19.808)" fill="#1392f8"/>
      <path id="Path_14542" data-name="Path 14542" d="M130.2,24.5a.8.8,0,1,1-.8.8.8.8,0,0,1,.8-.8" transform="translate(-104.834 -19.849)" fill="#1392f8" fill-rule="evenodd"/>
      <path id="Path_14543" data-name="Path 14543" d="M106.455,309.661a2.705,2.705,0,1,1,2.705-2.705,2.708,2.708,0,0,1-2.705,2.705m0-3.8a1.092,1.092,0,1,0,1.092,1.092,1.093,1.093,0,0,0-1.092-1.092" transform="translate(-84.054 -246.49)" fill="#1392f8"/>
      <path id="Path_14544" data-name="Path 14544" d="M144.226,120.651a13.726,13.726,0,1,1,13.726-13.726,13.741,13.741,0,0,1-13.726,13.726m0-24.224a10.5,10.5,0,1,0,10.5,10.5,10.51,10.51,0,0,0-10.5-10.5" transform="translate(-105.725 -75.507)" fill="#1392f8"/>
      <path id="Path_14545" data-name="Path 14545" d="M186.2,149.767a3.769,3.769,0,0,1-2.157-.606,2.5,2.5,0,0,1-1.1-2.119.807.807,0,0,1,1.614,0c0,1.031,1.256,1.111,1.641,1.111a3.127,3.127,0,0,0,1.621-.436,1.082,1.082,0,0,0,.592-.9c0-.683-.884-1.107-2.233-1.676-1.441-.608-3.235-1.365-3.235-3.184,0-1.581,1.489-2.729,3.541-2.729s3.54,1.148,3.54,2.729a.807.807,0,1,1-1.614,0,.842.842,0,0,0-.475-.757,2.824,2.824,0,0,0-1.452-.358c-.775,0-1.927.3-1.927,1.115,0,.7.89,1.124,2.248,1.7,1.434.605,3.219,1.358,3.219,3.163,0,1.848-1.946,2.953-3.826,2.953" transform="translate(-148.218 -112.794)" fill="#1392f8"/>
      <path id="Path_14546" data-name="Path 14546" d="M198.057,141.649a.807.807,0,0,1-.807-.807V127.857a.807.807,0,1,1,1.614,0v12.985a.807.807,0,0,1-.807.807" transform="translate(-159.803 -102.93)" fill="#1392f8"/>
      <path id="Path_14547" data-name="Path 14547" d="M290.768,61.051a1.273,1.273,0,0,0,0-1.823l-4.139-4.139a1.289,1.289,0,0,0-1.822,0,1.307,1.307,0,0,0,0,1.823l1.917,1.936h-7.233a1.291,1.291,0,1,0,0,2.582h7.233l-1.936,1.936a1.289,1.289,0,0,0,0,1.823,1.307,1.307,0,0,0,1.823,0Z" transform="translate(-225.385 -44.326)" fill="#1392f8"/>
      <path id="Path_14548" data-name="Path 14548" d="M249.126,77.791a1.292,1.292,0,0,0-1.291-1.291h-1.044a1.291,1.291,0,1,0,0,2.582h1.044a1.292,1.292,0,0,0,1.291-1.291" transform="translate(-198.893 -61.977)" fill="#1392f8"/>
      <path id="Path_14549" data-name="Path 14549" d="M290.768,235.65a1.273,1.273,0,0,0,0-1.823l-4.139-4.138a1.289,1.289,0,0,0-1.822,0,1.307,1.307,0,0,0,0,1.823l1.936,1.936h-7.252a1.291,1.291,0,0,0,0,2.582h7.233l-1.936,1.936a1.289,1.289,0,0,0,0,1.823,1.307,1.307,0,0,0,1.823,0Z" transform="translate(-225.385 -185.778)" fill="#1392f8"/>
      <path id="Path_14550" data-name="Path 14550" d="M249.126,252.39a1.292,1.292,0,0,0-1.291-1.291h-1.044a1.291,1.291,0,0,0,0,2.582h1.044a1.3,1.3,0,0,0,1.291-1.291" transform="translate(-198.893 -203.429)" fill="#1392f8"/>
      <path id="Path_14551" data-name="Path 14551" d="M341.249,148.07a1.272,1.272,0,0,0,0-1.822l-4.139-4.158a1.289,1.289,0,0,0-1.822,0,1.306,1.306,0,0,0,0,1.823l1.936,1.936h-7.233a1.291,1.291,0,0,0,0,2.582h7.233l-1.936,1.936a1.289,1.289,0,0,0,0,1.823,1.306,1.306,0,0,0,1.822,0Z" transform="translate(-266.298 -114.809)" fill="#1392f8"/>
      <path id="Path_14552" data-name="Path 14552" d="M299.526,164.891a1.292,1.292,0,0,0-1.291-1.291h-1.044a1.291,1.291,0,0,0,0,2.582h1.044a1.292,1.292,0,0,0,1.291-1.291" transform="translate(-239.725 -132.541)" fill="#1392f8"/>
    </g>
  </g>
</svg>
