<svg xmlns="http://www.w3.org/2000/svg" xmlns:xlink="http://www.w3.org/1999/xlink" width="75.603" height="87.888" viewBox="0 0 75.603 87.888">
  <defs>
    <clipPath id="clip-path">
      <rect id="Rectangle_1451" data-name="Rectangle 1451" width="83.514" height="79" fill="none"/>
    </clipPath>
  </defs>
  <g id="Group_3548" data-name="Group 3548" transform="translate(3.94 4.444) scale(0.839 1)">
    <g id="Group_3547" data-name="Group 3547" clip-path="url(#clip-path)">
      <path id="Path_14553" data-name="Path 14553" d="M53.987,51.97c6.744-8.632,16.949-29.6,6.227-39.36S46.456,21.354,35.936,31.874,9.749,43.608,15.3,56.376,47.243,60.6,53.987,51.97" transform="translate(-10.964 -7.641)" fill="#d4f3e2" fill-rule="evenodd"/>
      <path id="Path_14554" data-name="Path 14554" d="M252.7,272.569c2.107-2.107,7.444-.185,11.921,4.292s6.4,9.814,4.292,11.921-7.444.185-11.921-4.292-6.4-9.814-4.292-11.921" transform="translate(-195.236 -210.637)" fill="#d4f3e2" fill-rule="evenodd"/>
      <path id="Path_14555" data-name="Path 14555" d="M313.745,241.258h-.027l-6.541-.09a1.911,1.911,0,0,1-1.884-1.937l.09-6.541a1.911,1.911,0,0,1,1.91-1.885h.027a1.911,1.911,0,0,1,1.884,1.937l-.063,4.631,4.631.064a1.911,1.911,0,0,1-.026,3.821" transform="translate(-236.667 -178.923)" fill="#1392f8"/>
      <path id="Path_14556" data-name="Path 14556" d="M213.262,108.2h-13.4l.1-.879a8.164,8.164,0,0,1,1.34-3.6,17.555,17.555,0,0,1,4.028-3.813h0a9.617,9.617,0,0,0,2.006-1.776,1.391,1.391,0,0,0,.33-.808.713.713,0,0,0-.231-.534.92.92,0,0,0-.646-.23.853.853,0,0,0-.657.241,2.214,2.214,0,0,0-.407,1.219l-.1.732-5.482-.441.118-.828a7.26,7.26,0,0,1,.971-2.9,4.808,4.808,0,0,1,2.067-1.707,8.38,8.38,0,0,1,3.428-.565,9.49,9.49,0,0,1,3.514.531,4.625,4.625,0,0,1,2.938,4.346,5.356,5.356,0,0,1-.885,2.869,10.913,10.913,0,0,1-2.952,2.807c-.336.23-.6.419-.818.573h4.745Zm-11.574-1.574h10v-1.618h-7.226l1.342-1.343c.377-.377.7-.656,1-.9.317-.265.882-.676,1.632-1.191a9.614,9.614,0,0,0,2.521-2.355,3.765,3.765,0,0,0,.644-2.031,3.053,3.053,0,0,0-1.963-2.892,8.022,8.022,0,0,0-2.915-.413,7.037,7.037,0,0,0-2.777.424,3.257,3.257,0,0,0-1.4,1.137,4.733,4.733,0,0,0-.573,1.435l2.34.188a2.95,2.95,0,0,1,.709-1.379,2.441,2.441,0,0,1,1.77-.7,2.488,2.488,0,0,1,1.727.66l.021.02a2.277,2.277,0,0,1,.7,1.658,2.964,2.964,0,0,1-.615,1.71,11.2,11.2,0,0,1-2.354,2.135,16.171,16.171,0,0,0-3.662,3.428,6.7,6.7,0,0,0-.92,2.033" transform="translate(-154.932 -71.556)" fill="#1392f8"/>
      <path id="Path_14557" data-name="Path 14557" d="M274.686,108.3h-4.968v-2.63h-7.126v-4.287l7.523-8.975h4.571v8.654h1.776v4.608h-1.776Zm-3.394-1.574h1.821v-2.63h1.776v-1.461h-1.776V93.978h-2.263l-6.683,7.974v2.142h7.126Zm-.022-4.091H265.03l6.239-7.36Zm-2.842-1.574H269.7v-1.5Z" transform="translate(-203.565 -71.633)" fill="#1392f8"/>
      <path id="Path_14558" data-name="Path 14558" d="M120.918,59.817a1.911,1.911,0,0,1-1.454-3.149,31.374,31.374,0,0,0,7.386-23.232A32.522,32.522,0,0,0,92.117,3.913,31.489,31.489,0,0,0,64.7,24.783a1.911,1.911,0,1,1-3.6-1.28A35.309,35.309,0,0,1,91.832.1a36.343,36.343,0,0,1,38.824,33,35.168,35.168,0,0,1-8.282,26.041,1.908,1.908,0,0,1-1.456.672" transform="translate(-47.28 0)" fill="#1392f8"/>
      <path id="Path_14559" data-name="Path 14559" d="M175.941,297.884c-.4-.09-.832-.18-1.236-.292a2.028,2.028,0,0,0-2.248.944,2.678,2.678,0,0,0-.18.45,2.007,2.007,0,0,0,1.416,2.428c.472.135.967.247,1.461.337a1.973,1.973,0,1,0,.787-3.866" transform="translate(-133.503 -230.649)" fill="#1392f8"/>
      <path id="Path_14560" data-name="Path 14560" d="M229.225,300.733a1.987,1.987,0,0,0-2.405-1.438c-.4.09-.832.18-1.236.27a1.988,1.988,0,1,0,.719,3.911c.495-.09.989-.2,1.461-.315a2.017,2.017,0,0,0,1.461-2.428" transform="translate(-173.614 -231.97)" fill="#1392f8"/>
      <path id="Path_14561" data-name="Path 14561" d="M276.566,283.922a1.97,1.97,0,0,0-2.742-.562l-1.079.674a1.936,1.936,0,0,0-.832.922,1.983,1.983,0,0,0,.09,1.776,1.958,1.958,0,0,0,2.7.719c.427-.247.854-.517,1.281-.787a1.956,1.956,0,0,0,.584-2.742" transform="translate(-210.66 -219.407)" fill="#1392f8"/>
      <path id="Path_14562" data-name="Path 14562" d="M121.587,225.22a4.341,4.341,0,0,1-.527-.032,4.2,4.2,0,0,1-2.789-1.553,4.064,4.064,0,0,1-.869-3.052,4.193,4.193,0,0,1,8.322,1.022,4.063,4.063,0,0,1-1.582,2.752,4.188,4.188,0,0,1-2.554.864m-.043-6.342a2.242,2.242,0,0,0-2.247,1.937,2.168,2.168,0,0,0,.466,1.628,2.331,2.331,0,0,0,3.217.395,2.168,2.168,0,0,0,.846-1.466,2.251,2.251,0,0,0-1.995-2.476,2.315,2.315,0,0,0-.288-.018" transform="translate(-90.987 -168.196)" fill="#1392f8"/>
      <path id="Path_14563" data-name="Path 14563" d="M145.33,224.7a3.17,3.17,0,1,1-2.76-3.532,3.169,3.169,0,0,1,2.76,3.532" transform="translate(-107.766 -171.432)" fill="#d4f3e2" fill-rule="evenodd"/>
      <path id="Path_14564" data-name="Path 14564" d="M138.9,225.143a4.213,4.213,0,0,1-.511-.031,4.109,4.109,0,1,1,.511.031m-.01-6.34a2.214,2.214,0,0,0-.268,4.412,2.214,2.214,0,1,0,.268-4.412" transform="translate(-104.472 -168.137)" fill="#1392f8"/>
      <path id="Path_14565" data-name="Path 14565" d="M24.889,226.049l8.417-.008a.643.643,0,1,1,0,1.286l-8.417.008a.636.636,0,0,1-.643-.643.622.622,0,0,1,.643-.643" transform="translate(-18.796 -175.23)" fill="#1392f8" fill-rule="evenodd"/>
      <path id="Path_14566" data-name="Path 14566" d="M24.874,240.028h3.881a.643.643,0,1,1,0,1.286H24.875a.637.637,0,0,1-.643-.643.622.622,0,0,1,.643-.643" transform="translate(-18.784 -186.073)" fill="#1392f8" fill-rule="evenodd"/>
      <path id="Path_14567" data-name="Path 14567" d="M7.561,193.343l39.691,0-.007,1.376-39.691,0Z" transform="translate(-5.856 -149.88)" fill="#1392f8" fill-rule="evenodd"/>
      <path id="Path_14568" data-name="Path 14568" d="M5.324,172.089l39.693-.025-.009,1.4-39.669,0Z" transform="translate(-4.127 -133.386)" fill="#1392f8" fill-rule="evenodd"/>
      <path id="Path_14569" data-name="Path 14569" d="M6.683,173.236a6.669,6.669,0,0,1-4.725-1.952A6.6,6.6,0,0,1,0,166.565l.012-16.131a6.687,6.687,0,0,1,6.659-6.683h.012l29.377,0a6.684,6.684,0,0,1,6.683,6.671l-.012,16.131a6.671,6.671,0,0,1-1.952,4.724,6.6,6.6,0,0,1-4.706,1.959h-.012Zm-.012-27.574a4.773,4.773,0,0,0-4.748,4.775l-.012,16.131a4.7,4.7,0,0,0,1.4,3.362,4.77,4.77,0,0,0,3.378,1.4l29.377,0h.009a4.7,4.7,0,0,0,3.354-1.4,4.771,4.771,0,0,0,1.4-3.379l.012-16.131a4.771,4.771,0,0,0-4.774-4.758l-29.379,0Z" transform="translate(0 -111.436)" fill="#1392f8"/>
    </g>
  </g>
</svg>
