<svg xmlns="http://www.w3.org/2000/svg" width="63.603" height="63.603" viewBox="0 0 63.603 63.603">
  <g id="Group_3695" data-name="Group 3695" transform="translate(-1109.587 -299.034)">
    <g id="Group_3689" data-name="Group 3689" transform="translate(28.379 49.937)">
      <path id="path5851" d="M31.8,0A31.8,31.8,0,0,1,32.86,63.585c-.147.008-.6.017-1.058.017A31.8,31.8,0,0,1,31.8,0Z" transform="translate(1081.208 249.097)" fill="#a3a3a3"/>
      <path id="path4806-9" d="M31.616,34.791l-1.5.027-.029-.787,3.944-.061.018.785-1.524.021.057,3.725h-.89Zm-5.668,3.215-.992-1.753-.852-.171-.332,1.445-.908-.18,1.1-4.4,2.26.5a1.486,1.486,0,0,1,1.228,1.918,1.319,1.319,0,0,1-1.474,1l1.086,1.883Zm.634-2.883a.676.676,0,0,0-.551-.873l-1.378-.31-.353,1.4,1.428.287a.709.709,0,0,0,.853-.5Zm10.961,2.922L36.327,33.7l.718-.175,2.982,2.1-.747-2.674.895-.213,1.22,4.368-.572.12L37.6,34.91l.831,2.913ZM18.851,35.863l.057-.919-2.179-1.085-.79.575-.871-.453L19.2,30.963l.863.439-.314,4.931Zm.3-3.837L17.46,33.316l1.531.756Zm23.34-.182,3.137-1.607.428.725-2.34,1.218.525.876,2.255-1.15.408.694L44.648,33.77l.508.874,2.332-1.2.45.731L44.8,35.793Zm5.118-2.917,1.819-1.555a1.629,1.629,0,0,1,2.246.177,1.28,1.28,0,0,1,.1,1.741l2.212.23-.815.718-2.08-.219-.654.542,1.072,1.1-.666.587Zm3.332.14a.638.638,0,0,0,.068-.939.755.755,0,0,0-1.086-.086l-1.03.89.982,1.045Zm-38.7,1.088-.935-.8-.951.97-.672-.58,3.226-3.315,1.694,1.459a1.474,1.474,0,0,1,.049,2.313A1.719,1.719,0,0,1,12.246,30.153Zm1.809-.587c.471-.468.191-.9-.139-1.183L13,27.608l-1.124,1.165.951.816a.86.86,0,0,0,1.23-.022ZM48.125-8.257l.329-1.181-1.379-.919-1.059.733-1.094-.714,4.8-3.19.949.616L49.192-7.556Zm1.217-3.792-1.614,1.12,1.058.693ZM14.574-8.539,14.408-9.7c.725.134,2.711-.481,2.185-1.147-.5-.639-3.071,1.457-3.787-.663-.583-1.724,1.736-2.709,2.884-2.627l.1,1.13c-1.066-.024-2.17.517-1.806,1.042.558.8,2.62-1.432,3.819.544.818,1.347-1.222,2.881-3.232,2.882ZM39.765-12.3l1.432-3.89-1.585-.52.371-1.027L44.376-16.3l-.361,1.011-1.6-.513L41-11.9ZM21.237-14.048l-.931-2.839,1.22-.317.922,2.8a1.209,1.209,0,0,0,1.47.911,1.137,1.137,0,0,0,.738-1.558l-.864-2.754,1.232-.337.864,2.775a2.2,2.2,0,0,1-1.469,2.857A2.4,2.4,0,0,1,21.237-14.048Zm9.285.484.235-5.176,3.075.1a1.288,1.288,0,0,1,1.175,1.365,1.224,1.224,0,0,1-.822,1.181,1.289,1.289,0,0,1,.945,1.313,1.449,1.449,0,0,1-1.521,1.308Zm3.323-1.48a.565.565,0,0,0-.567-.569l-1.359-.062-.075,1.122,1.409.058a.58.58,0,0,0,.592-.55Zm-.7-1.524a.527.527,0,0,0,.583-.547.5.5,0,0,0-.552-.523L32-17.662l-.056,1.056Z" transform="translate(1081.386 271.019)" fill="#fff"/>
      <path id="path4825" d="M30.8,0A30.8,30.8,0,1,1,6.991,50.337,30.488,30.488,0,0,1,0,30.8,30.8,30.8,0,0,1,30.8,0Z" transform="translate(1082.213 250.102)" fill="none" stroke="#fff" stroke-linecap="round" stroke-width="0.335"/>
      <circle id="path4827" cx="22.365" cy="22.365" r="22.365" transform="translate(1090.645 258.534)" fill="none" stroke="#fff" stroke-linecap="round" stroke-linejoin="round" stroke-width="0.335"/>
      <path id="path5451" d="M62.222,3.583,19.758,29M1.431,3.683,43.766,29.015m-.616-38.7L1.248,15.42M20.4-9.654,62.262,15.428" transform="translate(1081.208 271.064)" fill="none" stroke="#fff" stroke-width="0.335" fill-rule="evenodd"/>
    </g>
    <g id="Group_3694" data-name="Group 3694" transform="translate(88.091 76.724)">
      <path id="path4841" d="M35.067,5.839,26.912,10.42l3.253,1.825,4.9-2.753Z" transform="translate(1026.388 249.414)" fill="#a3a3a3"/>
      <path id="path4835" d="M26.909-.72,21.978,1.959l4.931,2.907L31.84,1.929" transform="translate(1026.388 249.414)" fill="rgba(163,163,163,0.13)"/>
      <path id="rect5531-7" d="M18.751,3.712V9.634l3.227,1.712V1.959Z" transform="translate(1026.388 249.414)" fill="rgba(163,163,163,0.13)"/>
      <path id="path4837" d="M26.909,4.866,21.978,1.959V7.651l4.931,2.77Z" transform="translate(1026.388 249.414)" fill="rgba(163,163,163,0.13)"/>
      <path id="path4839" d="M31.84,1.929,26.909,4.866v5.555l4.931-2.77Z" transform="translate(1026.389 249.414)" fill="rgba(163,163,163,0.13)"/>
      <path id="rect5531" d="M31.84-1.925V7.651l3.227-1.812V-.192Z" transform="translate(1026.388 249.414)" fill="rgba(163,163,163,0.13)"/>
      <path id="path4835-0-4" d="M18.768-.172l-.017,3.884L26.909-.72,23.358-2.626Z" transform="translate(1026.388 249.414)" fill="rgba(163,163,163,0.13)"/>
      <path id="path4835-0-2-0" d="M26.926-4.564,23.358-2.626,31.84,1.929V-1.925L26.926-4.564Z" transform="translate(1026.388 249.414)" fill="rgba(163,163,163,0.13)"/>
      <path id="path4835-0-8-4-2" d="M21.978,7.651v3.694l4.89,2.614,3.3-1.715Z" transform="translate(1026.388 249.414)" fill="rgba(163,163,163,0.13)"/>
    </g>
  </g>
</svg>
