<svg id="Group_3494" data-name="Group 3494" xmlns="http://www.w3.org/2000/svg" xmlns:xlink="http://www.w3.org/1999/xlink" width="79.756" height="67.985" viewBox="0 0 79.756 67.985">
  <defs>
    <clipPath id="clip-path">
      <rect id="Rectangle_1375" data-name="Rectangle 1375" width="79.756" height="67.985" fill="none"/>
    </clipPath>
  </defs>
  <g id="Group_3493" data-name="Group 3493" clip-path="url(#clip-path)">
    <path id="Path_14328" data-name="Path 14328" d="M260.4,170.463c2.177,9.992,12.236,12.056,18.6,3.028s9.042-14.926,6.524-19.287-10.745-7.344-20.3-4.519-7,10.786-4.828,20.778" transform="translate(-206.71 -118.872)" fill="#d4f3e2" fill-rule="evenodd"/>
    <path id="Path_14329" data-name="Path 14329" d="M2.875,39.213c7.423,12.857,20.989,13.7,24.469,4.962S20.229,24.185,33.52,13.1c9.139-8.149-1.38-19.029-15.889-9.2S-4.548,26.357,2.875,39.213" transform="translate(0 0)" fill="#d4f3e2" fill-rule="evenodd"/>
    <path id="Path_14330" data-name="Path 14330" d="M68.5,87.45H47.437a1.7,1.7,0,0,1,0-3.4H68.5c2.5,0,4.535-2.633,4.535-5.87l.1-8.446a1.7,1.7,0,0,1,1.7-1.68h.02a1.7,1.7,0,0,1,1.68,1.719l-.1,8.426c0,5.092-3.559,9.25-7.934,9.25M9.847,55.658a1.7,1.7,0,0,1-1.7-1.7V40.565c0-5.128,3.546-9.3,7.9-9.3H68.424c4.359,0,7.9,4.172,7.9,9.3v9.217a1.7,1.7,0,1,1-3.4,0V40.565c0-3.254-2.021-5.9-4.506-5.9H16.052c-2.485,0-4.506,2.647-4.506,5.9V53.959a1.7,1.7,0,0,1-1.7,1.7" transform="translate(-6.518 -25.014)" fill="#1392f8"/>
    <path id="Path_14331" data-name="Path 14331" d="M268.1,142.875H250.29a3.3,3.3,0,0,1-3.3-3.3v-13.4a3.3,3.3,0,0,1,3.3-3.3H268.1a3.3,3.3,0,0,1,3.3,3.3v13.4a3.3,3.3,0,0,1-3.3,3.3m-17.715-3.4H268v-13.2H250.39Zm17.715-13.2h0Z" transform="translate(-197.606 -98.311)" fill="#1392f8"/>
    <path id="Path_14332" data-name="Path 14332" d="M102.553,101.33H53.839a.85.85,0,1,1,0-1.7h48.714a.85.85,0,1,1,0,1.7" transform="translate(-42.394 -79.709)" fill="#1392f8"/>
    <path id="Path_14333" data-name="Path 14333" d="M232.157,249.329H215.834a.85.85,0,0,1,0-1.7h16.324a.85.85,0,0,1,0,1.7" transform="translate(-171.999 -198.116)" fill="#1392f8"/>
    <path id="Path_14334" data-name="Path 14334" d="M280.366,162.628a3.249,3.249,0,1,1,3.238-3.249,3.247,3.247,0,0,1-3.238,3.249m0-4.8a1.55,1.55,0,1,0,1.538,1.55,1.546,1.546,0,0,0-1.538-1.55" transform="translate(-221.717 -124.912)" fill="#1392f8"/>
    <path id="Path_14335" data-name="Path 14335" d="M13.247,192.811a.85.85,0,0,1-.85-.85,15.463,15.463,0,0,1,15.446-15.446.85.85,0,1,1,0,1.7A13.762,13.762,0,0,0,14.1,191.961a.85.85,0,0,1-.85.85" transform="translate(-9.918 -141.221)" fill="#1392f8"/>
    <path id="Path_14336" data-name="Path 14336" d="M76.247,171.013a.85.85,0,0,1-.6-1.451l1.8-1.8-1.8-1.8a.85.85,0,0,1,1.2-1.2l2.4,2.4a.85.85,0,0,1,0,1.2l-2.4,2.4a.847.847,0,0,1-.6.249" transform="translate(-60.322 -131.621)" fill="#1392f8"/>
    <path id="Path_14337" data-name="Path 14337" d="M85.247,262.811a.85.85,0,0,1,0-1.7,13.762,13.762,0,0,0,13.746-13.746.85.85,0,1,1,1.7,0,15.463,15.463,0,0,1-15.446,15.446" transform="translate(-67.522 -197.225)" fill="#1392f8"/>
    <path id="Path_14338" data-name="Path 14338" d="M84.646,314.013a.847.847,0,0,1-.6-.249l-2.4-2.4a.85.85,0,0,1,0-1.2l2.4-2.4a.85.85,0,0,1,1.2,1.2l-1.8,1.8,1.8,1.8a.85.85,0,0,1-.6,1.451" transform="translate(-65.122 -246.028)" fill="#1392f8"/>
    <path id="Path_14339" data-name="Path 14339" d="M48.744,221.96a10.1,10.1,0,1,1,10.1-10.1,10.109,10.109,0,0,1-10.1,10.1m0-16.8a6.7,6.7,0,1,0,6.7,6.7,6.706,6.706,0,0,0-6.7-6.7" transform="translate(-30.92 -161.423)" fill="#1392f8"/>
    <path id="Path_14340" data-name="Path 14340" d="M77.15,241.413a2.288,2.288,0,0,1-2.555-2.188.85.85,0,1,1,1.7,0c0,.453.655.488.855.488.64,0,1.244-.312,1.244-.642s-.733-.632-1.38-.9c-1.021-.431-2.419-1.022-2.419-2.472,0-1.263,1.156-2.179,2.749-2.179s2.749.917,2.749,2.179a.85.85,0,0,1-1.7,0c0-.287-.543-.48-1.05-.48s-1.05.193-1.05.48c0,.323.734.633,1.381.907,1.02.431,2.418,1.022,2.418,2.471,0,1.465-1.5,2.341-2.944,2.341" transform="translate(-59.68 -186.824)" fill="#1392f8"/>
    <path id="Path_14341" data-name="Path 14341" d="M84.945,236.212a.85.85,0,0,1-.85-.85v-9a.85.85,0,0,1,1.7,0v9a.85.85,0,0,1-.85.85" transform="translate(-67.28 -180.424)" fill="#1392f8"/>
  </g>
</svg>
