<svg id="Group_3575" data-name="Group 3575" xmlns="http://www.w3.org/2000/svg" xmlns:xlink="http://www.w3.org/1999/xlink" width="83.871" height="82.5" viewBox="0 0 83.871 82.5">
  <defs>
    <clipPath id="clip-path">
      <rect id="Rectangle_1474" data-name="Rectangle 1474" width="83.871" height="82.5" fill="none"/>
    </clipPath>
  </defs>
  <g id="Group_3574" data-name="Group 3574" clip-path="url(#clip-path)">
    <path id="Path_14723" data-name="Path 14723" d="M284.954,29.936c8.718,5.6,17.415-.122,15.509-11.171S296.246,1.574,291.32.256s-12.975,2.433-17.8,11.313c-4.846,8.9,2.7,12.772,11.434,18.368" transform="translate(-216.857 0.001)" fill="#d4f3e2" fill-rule="evenodd"/>
    <path id="Path_14724" data-name="Path 14724" d="M15.9,207.543c14.536,3.892,24.875-5.231,21.1-13.989s-19.442-9.224-17.861-26.7c.71-12.387-14.637-12.651-17.982,4.785s.2,31.991,14.739,35.9" transform="translate(0 -125.967)" fill="#d4f3e2" fill-rule="evenodd"/>
    <path id="Path_14725" data-name="Path 14725" d="M101.245,106.718a39.831,39.831,0,0,0,12.981-29.152V57.378Q87.207,52,83.613,52,80,52,53,57.378v24.2a29.782,29.782,0,0,0,8.076,20.188q13.446,14.5,22.537,14.5,7.421,0,17.632-9.548M63.607,99.43a63.9,63.9,0,0,0,11.7,10.313c3.451,2.219,6.192,3.077,8.31,3.077,3.569,0,8.607-2.394,15.281-8.622l0,0a36.386,36.386,0,0,0,11.883-26.629V60.208q-11.518-2.276-18.307-3.469a83.66,83.66,0,0,0-8.859-1.293,83.668,83.668,0,0,0-8.859,1.293q-6.8,1.194-18.307,3.469V81.58A26.337,26.337,0,0,0,63.607,99.43" transform="translate(-42.255 -41.458)" fill="#1392f8" fill-rule="evenodd"/>
    <path id="Path_14726" data-name="Path 14726" d="M231.4,211.091a2.04,2.04,0,1,0-2.263,1.7,2,2,0,0,0,2.263-1.7m-1.575-3.906a3.686,3.686,0,1,1-4.183,3.2,3.724,3.724,0,0,1,4.183-3.2" transform="translate(-179.876 -165.158)" fill="#1392f8" fill-rule="evenodd"/>
    <path id="Path_14727" data-name="Path 14727" d="M247.133,213.8a2.823,2.823,0,1,0,3.146-2.458,2.824,2.824,0,0,0-3.146,2.458" transform="translate(-197.014 -168.481)" fill="#d4f3e2"/>
    <path id="Path_14728" data-name="Path 14728" d="M248.493,211a1.962,1.962,0,1,0-2.186,1.708A1.961,1.961,0,0,0,248.493,211m-1.5-3.9a3.685,3.685,0,1,1-4.107,3.208A3.685,3.685,0,0,1,247,207.1" transform="translate(-193.625 -165.092)" fill="#1392f8" fill-rule="evenodd"/>
    <path id="Path_14729" data-name="Path 14729" d="M133.841,216.121l7.524-.012a.579.579,0,0,1-.024,1.157l-7.524.012a.575.575,0,0,1-.567-.591.613.613,0,0,1,.591-.567" transform="translate(-106.236 -172.296)" fill="#1392f8" fill-rule="evenodd"/>
    <path id="Path_14730" data-name="Path 14730" d="M133.9,230.006l3.479,0a.579.579,0,0,1-.024,1.157l-3.479,0a.575.575,0,0,1-.567-.591.593.593,0,0,1,.591-.567" transform="translate(-106.283 -183.372)" fill="#1392f8" fill-rule="evenodd"/>
    <path id="Path_14731" data-name="Path 14731" d="M116.87,183.665l35.453-.016-.005,1.236-35.452.016Z" transform="translate(-93.173 -146.418)" fill="#1392f8" fill-rule="evenodd"/>
    <path id="Path_14732" data-name="Path 14732" d="M114.643,162.628l35.453-.016-.005,1.236-35.453.016Z" transform="translate(-91.397 -129.646)" fill="#1392f8" fill-rule="evenodd"/>
    <path id="Path_14733" data-name="Path 14733" d="M145.865,140.483a4.24,4.24,0,0,0-4.254-4.251h0l-26.226,0h0a4.24,4.24,0,0,0-4.251,4.253h0v14.426h0a4.24,4.24,0,0,0,4.253,4.251h0l26.224,0h0a4.275,4.275,0,0,0,4.251-4.258V140.483Zm-4.258-5.974a5.963,5.963,0,0,1,5.981,5.97h0v14.434a6,6,0,0,1-5.969,5.975h0l-26.226,0h0a5.963,5.963,0,0,1-5.98-5.97h0V140.489h0a5.963,5.963,0,0,1,5.97-5.981h0l26.226,0Z" transform="translate(-87.228 -107.238)" fill="#1392f8" fill-rule="evenodd"/>
  </g>
</svg>
