<svg xmlns="http://www.w3.org/2000/svg" width="89.059" height="83.791" viewBox="0 0 89.059 83.791">
  <g id="Group_4377" data-name="Group 4377" transform="translate(-52.091 -81.861)">
    <path id="Oval" d="M89.788,111.649c.564-12.01-10.224-17.416-20.213-9.1S54.768,116.749,56.3,122.46s9.965,11.611,21.67,11.305S89.2,123.659,89.788,111.649Z" transform="translate(-3.004 -12.762)" fill="#d4f3e2" fill-rule="evenodd"/>
    <path id="Oval-2" data-name="Oval" d="M268.121,223.248c-4.513-16.852-19.672-21.952-26.277-13.068-6.6,8.861,2,24.867-16.476,33.4-12.856,6.463-4.231,22.023,15.23,15.277S272.633,240.124,268.121,223.248Z" transform="translate(-127.89 -94.865)" fill="#d4f3e2" fill-rule="evenodd"/>
    <g id="Group_4351" data-name="Group 4351" transform="translate(79.778 96.94)">
      <path id="Path_17582" data-name="Path 17582" d="M171.493,203.5a1.6,1.6,0,0,1-1.6-1.6V147.619a1.6,1.6,0,0,1,1.6-1.6h30.072a1.6,1.6,0,0,1,1.6,1.6v18.547a1.6,1.6,0,1,1-3.2,0V149.221H173.095V201.9A1.6,1.6,0,0,1,171.493,203.5Z" transform="translate(-169.891 -146.017)" fill="#1392f8"/>
    </g>
    <g id="Group_4352" data-name="Group 4352" transform="translate(109.85 147.156)">
      <path id="Path_17583" data-name="Path 17583" d="M299.441,366.936a1.6,1.6,0,0,1-1.6-1.6v-4.06a1.6,1.6,0,0,1,3.2,0v4.06A1.6,1.6,0,0,1,299.441,366.936Z" transform="translate(-297.839 -359.672)" fill="#1392f8"/>
    </g>
    <g id="Group_4353" data-name="Group 4353" transform="translate(87.236 104.641)">
      <path id="Path_17584" data-name="Path 17584" d="M218.2,181.988h-.568a1.6,1.6,0,0,1,0-3.2h.568a1.6,1.6,0,0,1,0,3.2Zm-7.2,0h-.569a1.6,1.6,0,0,1,0-3.2H211a1.6,1.6,0,0,1,0,3.2Zm-7.2,0h-.569a1.6,1.6,0,0,1,0-3.2h.569a1.6,1.6,0,0,1,0,3.2Z" transform="translate(-201.622 -178.784)" fill="#1392f8"/>
    </g>
    <g id="Group_4354" data-name="Group 4354" transform="translate(87.236 110.264)">
      <path id="Path_17585" data-name="Path 17585" d="M218.2,205.911h-.568a1.6,1.6,0,0,1,0-3.2h.568a1.6,1.6,0,0,1,0,3.2Zm-7.2,0h-.569a1.6,1.6,0,0,1,0-3.2H211a1.6,1.6,0,0,1,0,3.2Zm-7.2,0h-.569a1.6,1.6,0,0,1,0-3.2h.569a1.6,1.6,0,0,1,0,3.2Z" transform="translate(-201.622 -202.707)" fill="#1392f8"/>
    </g>
    <g id="Group_4355" data-name="Group 4355" transform="translate(87.236 115.887)">
      <path id="Path_17586" data-name="Path 17586" d="M218.2,229.835h-.568a1.6,1.6,0,1,1,0-3.2h.568a1.6,1.6,0,1,1,0,3.2Zm-7.2,0h-.569a1.6,1.6,0,1,1,0-3.2H211a1.6,1.6,0,1,1,0,3.2Zm-7.2,0h-.569a1.6,1.6,0,0,1,0-3.2h.569a1.6,1.6,0,1,1,0,3.2Z" transform="translate(-201.622 -226.631)" fill="#1392f8"/>
    </g>
    <g id="Group_4356" data-name="Group 4356" transform="translate(87.236 121.511)">
      <path id="Path_17587" data-name="Path 17587" d="M218.2,253.763h-.568a1.6,1.6,0,1,1,0-3.2h.568a1.6,1.6,0,1,1,0,3.2Zm-7.2,0h-.569a1.6,1.6,0,1,1,0-3.2H211a1.6,1.6,0,1,1,0,3.2Zm-7.2,0h-.569a1.6,1.6,0,0,1,0-3.2h.569a1.6,1.6,0,1,1,0,3.2Z" transform="translate(-201.622 -250.559)" fill="#1392f8"/>
    </g>
    <g id="Group_4357" data-name="Group 4357" transform="translate(87.236 127.133)">
      <path id="Path_17588" data-name="Path 17588" d="M218.2,277.686h-.568a1.6,1.6,0,1,1,0-3.2h.568a1.6,1.6,0,1,1,0,3.2Zm-7.2,0h-.569a1.6,1.6,0,0,1,0-3.2H211a1.6,1.6,0,0,1,0,3.2Zm-7.2,0h-.569a1.6,1.6,0,0,1,0-3.2h.569a1.6,1.6,0,1,1,0,3.2Z" transform="translate(-201.622 -274.482)" fill="#1392f8"/>
    </g>
    <g id="Group_4358" data-name="Group 4358" transform="translate(87.236 132.757)">
      <path id="Path_17589" data-name="Path 17589" d="M218.2,301.614h-.568a1.6,1.6,0,1,1,0-3.2h.568a1.6,1.6,0,1,1,0,3.2Zm-7.2,0h-.569a1.6,1.6,0,1,1,0-3.2H211a1.6,1.6,0,1,1,0,3.2Zm-7.2,0h-.569a1.6,1.6,0,1,1,0-3.2h.569a1.6,1.6,0,1,1,0,3.2Z" transform="translate(-201.622 -298.41)" fill="#1392f8"/>
    </g>
    <g id="Group_4359" data-name="Group 4359" transform="translate(91.024 139.643)">
      <path id="Path_17590" data-name="Path 17590" d="M226.921,342.484a1.6,1.6,0,0,1-1.6-1.6v-9.971h-4.375v9.971a1.6,1.6,0,1,1-3.2,0V329.309a1.6,1.6,0,0,1,1.6-1.6h7.579a1.6,1.6,0,0,1,1.6,1.6v11.573A1.6,1.6,0,0,1,226.921,342.484Z" transform="translate(-217.74 -327.707)" fill="#1392f8"/>
    </g>
    <g id="Group_4360" data-name="Group 4360" transform="translate(59.546 115.887)">
      <path id="Path_17591" data-name="Path 17591" d="M85.411,265.165a1.6,1.6,0,0,1-1.6-1.6v-35.33a1.6,1.6,0,0,1,1.6-1.6h20.232a1.6,1.6,0,1,1,0,3.2H87.013v33.728A1.6,1.6,0,0,1,85.411,265.165Z" transform="translate(-83.809 -226.631)" fill="#1392f8"/>
    </g>
    <g id="Group_4361" data-name="Group 4361" transform="translate(65.871 121.511)">
      <path id="Path_17592" data-name="Path 17592" d="M120.095,253.763h-.569a1.6,1.6,0,1,1,0-3.2h.569a1.6,1.6,0,1,1,0,3.2Zm-7.2,0h-.569a1.6,1.6,0,1,1,0-3.2h.569a1.6,1.6,0,1,1,0,3.2Z" transform="translate(-110.719 -250.559)" fill="#1392f8"/>
    </g>
    <g id="Group_4362" data-name="Group 4362" transform="translate(65.871 127.133)">
      <path id="Path_17593" data-name="Path 17593" d="M120.095,277.686h-.569a1.6,1.6,0,1,1,0-3.2h.569a1.6,1.6,0,1,1,0,3.2Zm-7.2,0h-.569a1.6,1.6,0,1,1,0-3.2h.569a1.6,1.6,0,0,1,0,3.2Z" transform="translate(-110.719 -274.482)" fill="#1392f8"/>
    </g>
    <g id="Group_4363" data-name="Group 4363" transform="translate(65.871 132.757)">
      <path id="Path_17594" data-name="Path 17594" d="M120.095,301.614h-.569a1.6,1.6,0,1,1,0-3.2h.569a1.6,1.6,0,1,1,0,3.2Zm-7.2,0h-.569a1.6,1.6,0,1,1,0-3.2h.569a1.6,1.6,0,1,1,0,3.2Z" transform="translate(-110.719 -298.41)" fill="#1392f8"/>
    </g>
    <g id="Group_4364" data-name="Group 4364" transform="translate(65.871 138.38)">
      <path id="Path_17595" data-name="Path 17595" d="M120.095,325.537h-.569a1.6,1.6,0,0,1,0-3.2h.569a1.6,1.6,0,0,1,0,3.2Zm-7.2,0h-.569a1.6,1.6,0,0,1,0-3.2h.569a1.6,1.6,0,0,1,0,3.2Z" transform="translate(-110.719 -322.333)" fill="#1392f8"/>
    </g>
    <g id="Group_4365" data-name="Group 4365" transform="translate(65.871 144.004)">
      <path id="Path_17596" data-name="Path 17596" d="M120.095,349.465h-.569a1.6,1.6,0,1,1,0-3.2h.569a1.6,1.6,0,1,1,0,3.2Zm-7.2,0h-.569a1.6,1.6,0,0,1,0-3.2h.569a1.6,1.6,0,0,1,0,3.2Z" transform="translate(-110.719 -346.261)" fill="#1392f8"/>
    </g>
    <g id="Group_4366" data-name="Group 4366" transform="translate(52.091 151.216)">
      <path id="Path_17597" data-name="Path 17597" d="M139.135,380.151H53.693a1.6,1.6,0,0,1,0-3.2h85.442a1.6,1.6,0,1,1,0,3.2Z" transform="translate(-52.091 -376.947)" fill="#1392f8"/>
    </g>
    <g id="Group_4367" data-name="Group 4367" transform="translate(92.04 157.67)">
      <path id="Path_17598" data-name="Path 17598" d="M260.126,407.611H223.662a1.6,1.6,0,0,1,0-3.2h36.464a1.6,1.6,0,0,1,0,3.2Z" transform="translate(-222.06 -404.407)" fill="#1392f8"/>
    </g>
    <g id="Group_4368" data-name="Group 4368" transform="translate(58.985 157.67)">
      <path id="Path_17599" data-name="Path 17599" d="M94.878,407.611H83.024a1.6,1.6,0,0,1,0-3.2H94.878a1.6,1.6,0,0,1,0,3.2Z" transform="translate(-81.422 -404.407)" fill="#1392f8"/>
    </g>
    <g id="Group_4369" data-name="Group 4369" transform="translate(77.959 157.67)">
      <path id="Path_17600" data-name="Path 17600" d="M170.644,407.611H170a1.6,1.6,0,1,1,0-3.2h.639a1.6,1.6,0,0,1,0,3.2Zm-6.251,0h-.639a1.6,1.6,0,1,1,0-3.2h.639a1.6,1.6,0,0,1,0,3.2Z" transform="translate(-162.151 -404.407)" fill="#1392f8"/>
    </g>
    <g id="Group_4370" data-name="Group 4370" transform="translate(107.391 112.403)">
      <path id="Path_17601" data-name="Path 17601" d="M296.187,245.461a8.806,8.806,0,0,1-5-16.06,7.116,7.116,0,0,1-.905-3.493,7.2,7.2,0,0,1,5.2-6.9,5.886,5.886,0,1,1,11.6-1.782,6.367,6.367,0,0,1,5.428,9.679,9.084,9.084,0,0,1-4.715,16.851,10.631,10.631,0,0,1-5.254-1.435A7.856,7.856,0,0,1,296.187,245.461Zm1.278-23.532a3.975,3.975,0,0,0-2.757,6.842,1.6,1.6,0,0,1-.536,2.648,5.606,5.606,0,0,0,2.015,10.838,4.951,4.951,0,0,0,4.526-2.994,1.6,1.6,0,0,1,2.537-.4,6.985,6.985,0,0,0,4.547,1.68,5.882,5.882,0,0,0,1.614-11.539,1.6,1.6,0,0,1-.5-2.84,3.169,3.169,0,0,0-3.069-5.5,1.6,1.6,0,0,1-2.118-2.038,2.679,2.679,0,1,0-4.609.723,1.6,1.6,0,0,1,.161,1.743,1.581,1.581,0,0,1-1.53.849C297.612,221.937,297.539,221.929,297.465,221.929Z" transform="translate(-287.375 -211.809)" fill="#1392f8"/>
    </g>
    <g id="Group_4371" data-name="Group 4371" transform="translate(114.963 132.355)">
      <path id="Path_17602" data-name="Path 17602" d="M326.781,302.9a1.59,1.59,0,0,1-.756-.191l-5.588-3a1.6,1.6,0,0,1,1.514-2.822l5.588,3a1.6,1.6,0,0,1-.758,3.013Z" transform="translate(-319.591 -296.696)" fill="#1392f8"/>
    </g>
    <g id="Group_4372" data-name="Group 4372" transform="translate(120.544 121.049)">
      <path id="Path_17603" data-name="Path 17603" d="M344.94,281.965a1.6,1.6,0,0,1-1.6-1.6V250.195a1.6,1.6,0,0,1,3.2,0v30.168A1.6,1.6,0,0,1,344.94,281.965Z" transform="translate(-343.338 -248.593)" fill="#1392f8"/>
    </g>
    <g id="Group_4373" data-name="Group 4373" transform="translate(116.232 123.75)">
      <path id="Path_17604" data-name="Path 17604" d="M330.906,265.723a1.6,1.6,0,0,1-.786-.207l-4.312-2.431a1.6,1.6,0,0,1,1.573-2.791l3.485,1.965,3.1-1.929a1.6,1.6,0,1,1,1.694,2.72l-3.9,2.431A1.6,1.6,0,0,1,330.906,265.723Z" transform="translate(-324.991 -260.088)" fill="#1392f8"/>
    </g>
    <g id="Group_4374" data-name="Group 4374" transform="translate(120.551 132.709)">
      <path id="Path_17605" data-name="Path 17605" d="M344.972,304.053a1.6,1.6,0,0,1-.646-3.069l6.017-2.643a1.6,1.6,0,0,1,1.289,2.933l-6.017,2.643A1.586,1.586,0,0,1,344.972,304.053Z" transform="translate(-343.369 -298.205)" fill="#1392f8"/>
    </g>
    <g id="Group_4375" data-name="Group 4375" transform="translate(86.106 91.729)">
      <path id="Path_17606" data-name="Path 17606" d="M215.193,132.261a1.6,1.6,0,0,1-1.6-1.6V127.05H200.018v3.609a1.6,1.6,0,0,1-3.2,0v-5.211a1.6,1.6,0,0,1,1.6-1.6h16.777a1.6,1.6,0,0,1,1.6,1.6v5.211A1.6,1.6,0,0,1,215.193,132.261Z" transform="translate(-196.814 -123.846)" fill="#1392f8"/>
    </g>
    <g id="Group_4376" data-name="Group 4376" transform="translate(94.494 81.861)">
      <path id="Path_17607" data-name="Path 17607" d="M234.106,94.933a1.6,1.6,0,0,1-1.6-1.6V83.463a1.6,1.6,0,1,1,3.2,0v9.868A1.6,1.6,0,0,1,234.106,94.933Z" transform="translate(-232.504 -81.861)" fill="#1392f8"/>
    </g>
  </g>
</svg>
