<svg xmlns="http://www.w3.org/2000/svg" width="84.149" height="64.127" viewBox="0 0 84.149 64.127"><defs><style>.a,.c{fill:#d4f3e2;}.a,.d{fill-rule:evenodd;}.b,.d{fill:#1392f8;}</style></defs><g transform="translate(5.027 -89.5)"><path class="a" d="M4.628,179.322c5.747,4.318,13.59,9.229,25.109,7.721s-.235-11.691,1.239-20.572-12.955-15.905-28.353-8.4S-1.118,175,4.628,179.322Z" transform="translate(0 -52.767)"/><path class="a" d="M312.439,257.059c7.823,0,13.157-3.686,11.464-11.132s-4.247-12.948-14.1-14.261-14.517,8.427-8.139,12.551S304.616,257.059,312.439,257.059Z" transform="translate(-245.096 -114.608)"/><g transform="translate(20.764 89.5)"><path class="b" d="M166.841,153.627h-36.7a1.642,1.642,0,0,1-1.642-1.642V96.793a7.374,7.374,0,0,1,7.436-7.293h36.7a1.642,1.642,0,0,1,1.642,1.642l0,26.254a1.642,1.642,0,1,1-3.284,0l0-24.612H135.936a4.088,4.088,0,0,0-4.153,4.009v53.551h35.057A4.213,4.213,0,0,0,170,148.936a1.642,1.642,0,0,1,2.459,2.176A7.5,7.5,0,0,1,166.841,153.627Z" transform="translate(-128.5 -89.5)"/></g><g transform="translate(63.548 89.597)"><path class="b" d="M361.4,107H350V90h5.6a5.794,5.794,0,0,1,5.795,5.795Zm-8.112-3.284h4.829V95.795a2.511,2.511,0,0,0-2.511-2.511h-2.318Z" transform="translate(-350 -90)"/></g><g transform="translate(27.766 96.116)"><g transform="translate(0 2.125)"><path class="b" d="M167.738,144.311a3.428,3.428,0,0,1-1.973-.56,2.336,2.336,0,0,1-1.015-1.971.821.821,0,1,1,1.642,0,.692.692,0,0,0,.312.624,1.866,1.866,0,0,0,1.034.265c.889,0,1.841-.436,1.841-1.085,0-.547-.758-.91-1.914-1.4-1.3-.552-2.915-1.238-2.915-2.914,0-1.46,1.361-2.52,3.235-2.52s3.235,1.06,3.235,2.52a.821.821,0,0,1-1.642,0,.646.646,0,0,0-.369-.578,2.384,2.384,0,0,0-1.225-.3c-.616,0-1.594.238-1.594.878,0,.549.758.912,1.915,1.4,1.3.551,2.914,1.237,2.914,2.912C171.221,143.291,169.45,144.311,167.738,144.311Z" transform="translate(-164.75 -134.75)"/></g><g transform="translate(2.318)"><path class="b" d="M177.571,136.981a.821.821,0,0,1-.821-.821V124.571a.821.821,0,1,1,1.642,0V136.16A.821.821,0,0,1,177.571,136.981Z" transform="translate(-176.75 -123.75)"/></g></g><g transform="translate(36.812 120.727)"><g transform="translate(24.031 15.009)"><path class="b" d="M339.785,336.286a3.878,3.878,0,0,1-.471-.029,3.744,3.744,0,0,1-3.293-4.137,3.646,3.646,0,0,1,1.424-2.471,3.822,3.822,0,0,1,5.282.648,3.648,3.648,0,0,1,.783,2.742A3.735,3.735,0,0,1,339.785,336.286Zm-.041-5.77a2.139,2.139,0,0,0-1.3.439,2.017,2.017,0,0,0-.789,1.366,2.132,2.132,0,0,0,4.229.519,2.017,2.017,0,0,0-.436-1.516,2.149,2.149,0,0,0-1.428-.791h0A2.207,2.207,0,0,0,339.745,330.516Z" transform="translate(-335.994 -328.874)"/></g><g transform="translate(27.599 14.992)"><ellipse class="c" cx="2.884" cy="2.878" rx="2.884" ry="2.878" transform="translate(0.491 6.216) rotate(-83)"/><path class="b" d="M358.176,336.2a3.8,3.8,0,0,1-.457-.028,3.7,3.7,0,1,1,2.729-.759A3.668,3.668,0,0,1,358.176,336.2Zm-.009-5.768a2.061,2.061,0,0,0-2.039,1.812,2.062,2.062,0,0,0,1.79,2.3,2.059,2.059,0,0,0,2.293-1.8,2.059,2.059,0,0,0-2.044-2.314Z" transform="translate(-354.471 -328.79)"/></g><g transform="translate(4.896 16.821)"><path class="d" d="M237.525,338.259H245.2a.591.591,0,0,1,.591.591h0a.592.592,0,0,1-.592.592l-7.672,0a.591.591,0,0,1-.591-.591h0A.592.592,0,0,1,237.525,338.259Z" transform="translate(-236.933 -338.258)"/></g><g transform="translate(4.904 19.681)"><path class="d" d="M237.566,353.067h3.54a.591.591,0,0,1,.591.591h0a.592.592,0,0,1-.592.592h-3.54a.591.591,0,0,1-.591-.591h0A.592.592,0,0,1,237.566,353.067Z" transform="translate(-236.974 -353.066)"/></g><g transform="translate(1.497 10.114)"><path class="d" d="M219.333,303.542l36.157-.006v1.257l-36.157.006Z" transform="translate(-219.333 -303.535)"/></g><g transform="translate(1.04 5.767)"><path class="d" d="M216.968,281.035l36.157-.006v1.257l-36.157.007Z" transform="translate(-216.968 -281.028)"/></g><path class="b" d="M217.615,277.958a6.034,6.034,0,0,1-6.032-6.033v-.556h0l0-14.155a6.05,6.05,0,0,1,6.036-6.037l26.761,0h.005a6.034,6.034,0,0,1,6.032,6.033v.611h0l0,14.1a6.05,6.05,0,0,1-6.036,6.037l-26.761.005Zm-4.389-5.9a4.392,4.392,0,0,0,4.389,4.263h0l26.761-.005a4.406,4.406,0,0,0,4.4-4.4l0-14.839a4.391,4.391,0,0,0-4.389-4.263h0l-26.761,0h0a4.407,4.407,0,0,0-4.4,4.4Z" transform="translate(-211.583 -251.171)"/></g><g transform="translate(37.222 98.723)"><path class="b" d="M214.526,138.988a.821.821,0,0,1-.008-1.642l9.763-.1h.008a.821.821,0,0,1,.008,1.642l-9.763.1Z" transform="translate(-213.705 -137.25)"/></g><g transform="translate(26.212 121.937)"><path class="b" d="M157.526,259.137a.821.821,0,0,1-.008-1.642l6.181-.061a.821.821,0,1,1,.016,1.642l-6.181.061Z" transform="translate(-156.705 -257.434)"/></g><g transform="translate(26.212 125.8)"><path class="b" d="M157.526,279.137a.821.821,0,0,1-.008-1.642l6.181-.061a.821.821,0,0,1,.016,1.642l-6.181.061Z" transform="translate(-156.705 -277.434)"/></g><g transform="translate(37.222 102.683)"><path class="b" d="M234.185,159.392H214.526a.821.821,0,0,1,0-1.642h19.659a.821.821,0,1,1,0,1.642Z" transform="translate(-213.705 -157.75)"/></g><g transform="translate(37.222 106.546)"><path class="b" d="M234.185,179.392H214.526a.821.821,0,0,1,0-1.642h19.659a.821.821,0,1,1,0,1.642Z" transform="translate(-213.705 -177.75)"/></g><g transform="translate(26.414 111.278)"><path class="b" d="M189.089,203.892H158.571a.821.821,0,1,1,0-1.642h30.518a.821.821,0,0,1,0,1.642Z" transform="translate(-157.75 -202.25)"/></g><g transform="translate(26.414 115.141)"><path class="b" d="M189.089,223.892H158.571a.821.821,0,0,1,0-1.642h30.518a.821.821,0,0,1,0,1.642Z" transform="translate(-157.75 -222.25)"/></g></g></svg>