<svg xmlns="http://www.w3.org/2000/svg" width="71.654" height="66.878" viewBox="0 0 71.654 66.878"><defs><style>.a,.c{fill:#d4f3e2;}.a,.d{fill-rule:evenodd;}.b,.d{fill:#1392f8;}</style></defs><g transform="translate(-57 -80.75)"><g transform="translate(57 80.75)"><g transform="translate(0 24.771)"><path class="a" d="M72.471,259.492c9.209-6.276,16.422-5.484,16.422-18.165s-8.152-27.236-15.5-20.717S57,227.217,57,239.9,63.263,265.768,72.471,259.492Z" transform="translate(-57 -219)"/></g><g transform="translate(50.707 15.812)"><path class="a" d="M347.516,184.723c5.49-1.941,8.38-3.882,8.765-7.668S352.41,169,347.516,169s-5.586,3.882-7.127,9.22S342.026,186.664,347.516,184.723Z" transform="translate(-340 -169)"/></g><g transform="translate(19.485 0)"><path class="b" d="M192.492,143.193h-21.5a5.247,5.247,0,0,1-5.241-5.241v-8.591a.762.762,0,1,1,1.523,0v8.591a3.722,3.722,0,0,0,3.718,3.718h21.5a3.722,3.722,0,0,0,3.718-3.718v-8.623a.762.762,0,0,1,1.523,0v8.623A5.247,5.247,0,0,1,192.492,143.193ZM166.511,92.071a.762.762,0,0,1-.761-.762V85.991a5.247,5.247,0,0,1,5.241-5.241h21.5a5.247,5.247,0,0,1,5.241,5.241v4.677a.762.762,0,0,1-1.523,0V85.991a3.722,3.722,0,0,0-3.718-3.718h-21.5a3.722,3.722,0,0,0-3.718,3.718V91.31A.762.762,0,0,1,166.511,92.071Z" transform="translate(-165.75 -80.75)"/></g><g transform="translate(19.528 6.451)"><g transform="translate(0.358 0)"><rect class="b" width="30.727" height="1.523" transform="matrix(1, -0.003, 0.003, 1, 0, 0.088)"/></g><g transform="translate(0 43.54)"><rect class="b" width="30.727" height="1.523" transform="matrix(1, -0.003, 0.003, 1, 0, 0.088)"/></g></g><g transform="translate(43.181 46.104)"><path class="b" d="M301.449,339.619h-.01l-2.688-.034a.762.762,0,0,1,.019-1.523l2.688.034a.762.762,0,0,1-.009,1.523Z" transform="translate(-298 -338.063)"/></g><g transform="translate(31.938 46.138)"><path class="b" d="M243.9,339.773h-7.884a.762.762,0,0,1,0-1.523H243.9a.762.762,0,1,1,0,1.523Z" transform="translate(-235.25 -338.25)"/></g><g transform="translate(31.983 3.628)"><path class="b" d="M239.173,102.523h-2.912a.762.762,0,1,1,0-1.523h2.912a.762.762,0,0,1,0,1.523Z" transform="translate(-235.5 -101)"/></g><g transform="translate(37.515 3.628)"><circle class="b" cx="0.762" cy="0.762" r="0.762"/></g><g transform="translate(32.924 53.753)"><path class="b" d="M243.3,385.857a2.553,2.553,0,1,1,2.553-2.553A2.556,2.556,0,0,1,243.3,385.857Zm0-3.583a1.03,1.03,0,1,0,1.03,1.03A1.031,1.031,0,0,0,243.3,382.273Z" transform="translate(-240.75 -380.75)"/></g></g><g transform="translate(91.103 94.577)"><g transform="translate(23.053 14.684)"><path class="b" d="M379.511,246.75a3.6,3.6,0,0,1-.436-.027,3.437,3.437,0,1,1,.837-6.822,3.511,3.511,0,0,1,2.328,1.294,3.383,3.383,0,0,1,.727,2.544A3.464,3.464,0,0,1,379.511,246.75Zm-.035-5.353a1.919,1.919,0,1,0,1.978,2.156,1.872,1.872,0,0,0-.4-1.407,2,2,0,0,0-1.324-.734A2.034,2.034,0,0,0,379.476,241.4Z" transform="translate(-375.994 -239.875)"/></g><g transform="translate(26.364 14.669)"><ellipse class="c" cx="2.675" cy="2.67" rx="2.675" ry="2.67" transform="translate(0.456 5.767) rotate(-83)"/><path class="b" d="M397.908,246.663a3.523,3.523,0,0,1-.424-.026,3.434,3.434,0,1,1,2.531-.7A3.4,3.4,0,0,1,397.908,246.663Zm-.008-5.351a1.912,1.912,0,0,0-1.891,1.681,1.913,1.913,0,0,0,1.66,2.132,1.91,1.91,0,0,0,2.127-1.667,1.91,1.91,0,0,0-1.9-2.146Z" transform="translate(-394.471 -239.789)"/></g><g transform="translate(5.304 16.365)"><path class="d" d="M277.482,249.259H284.6a.548.548,0,0,1,.549.548h0a.549.549,0,0,1-.549.549h-7.117a.549.549,0,0,1-.549-.548h0A.549.549,0,0,1,277.482,249.259Z" transform="translate(-276.933 -249.258)"/></g><g transform="translate(5.311 19.019)"><path class="d" d="M277.523,264.067h3.283a.549.549,0,0,1,.549.548h0a.549.549,0,0,1-.549.549h-3.283a.549.549,0,0,1-.549-.548h0A.549.549,0,0,1,277.523,264.067Z" transform="translate(-276.974 -264.066)"/></g><g transform="translate(2.15 10.144)"><path class="d" d="M259.333,214.541l33.541-.006V215.7l-33.541.006Z" transform="translate(-259.333 -214.535)"/></g><g transform="translate(1.726 6.111)"><path class="d" d="M256.968,192.034l33.541-.006v1.166l-33.541.006Z" transform="translate(-256.968 -192.028)"/></g><g transform="translate(0)"><path class="b" d="M253.69,184.292a6.358,6.358,0,0,1-6.357-6.358v-1.011h0l0-12.635a6.375,6.375,0,0,1,6.36-6.361l24.825,0h.006a6.358,6.358,0,0,1,6.356,6.358v1.1h0l0,12.549a6.375,6.375,0,0,1-6.36,6.361l-24.825,0Zm-3.309-6.253a3.313,3.313,0,0,0,3.31,3.207h0l24.825,0a3.325,3.325,0,0,0,3.316-3.317l0-13.748a3.312,3.312,0,0,0-3.31-3.21h0l-24.824,0a3.325,3.325,0,0,0-3.317,3.317Z" transform="translate(-247.333 -157.921)"/></g></g><g transform="translate(62.196 94.591)"><g transform="translate(0 8.421)"><path class="b" d="M107.412,229.368H88.956A2.96,2.96,0,0,1,86,226.412V207.956A2.96,2.96,0,0,1,88.956,205h18.455a2.96,2.96,0,0,1,2.956,2.956v18.455A2.96,2.96,0,0,1,107.412,229.368Zm-18.366-3.046h18.276V208.046H89.046Z" transform="translate(-86 -205)"/></g><g transform="translate(5.375)"><path class="b" d="M129.617,169.288H116v-4.479a6.809,6.809,0,1,1,13.617,0Zm-10.571-3.046h7.525v-1.433a3.763,3.763,0,1,0-7.525,0Z" transform="translate(-116 -158)"/></g><g transform="translate(6.809 13.617)"><path class="b" d="M131.525,248.065h-4.3a1.434,1.434,0,0,1-1.433-1.433v-3.379a5.286,5.286,0,1,1,7.167-.166v3.545a1.434,1.434,0,0,1-1.433,1.433Zm-4.211-1.523h4.121v-4.148l.271-.228a3.763,3.763,0,1,0-4.693.12l.3.229Z" transform="translate(-124 -234)"/></g></g></g></svg>