<svg xmlns="http://www.w3.org/2000/svg" width="62.237" height="64.51" viewBox="0 0 62.237 64.51"><defs><style>.a,.b{fill:#d4f3e2;}.a{fill-rule:evenodd;}.c{fill:#1392f8;}</style></defs><g transform="translate(-79.889 -89.5)"><g transform="translate(79.889 91.393)"><path class="a" d="M111.158,133.3c5.295-6.784,13.3-23.253,4.9-30.908S105.248,109.259,97,117.509s-20.567,9.218-16.2,19.241S105.863,140.08,111.158,133.3Z" transform="translate(-79.889 -100.228)"/></g><g transform="translate(119.489 135.289)"><ellipse class="b" cx="4.236" cy="9.002" rx="4.236" ry="9.002" transform="translate(0 5.991) rotate(-45)"/></g><g transform="translate(96.059 89.5)"><path class="c" d="M215.361,148.1h-25.24a1.5,1.5,0,0,1,0-3h24.446V104.591c-1.214-1.869-9.776-10.609-11.659-12.091H174.5v9.485a1.5,1.5,0,0,1-3,0v-10.3a2.2,2.2,0,0,1,2.206-2.189h29.621c.644,0,1.2,0,7.708,6.693,6.532,6.718,6.532,7.443,6.532,8.082V145.91A2.2,2.2,0,0,1,215.361,148.1Z" transform="translate(-171.5 -89.5)"/></g><g transform="translate(80.615 99.075)"><g transform="translate(0 6.751)"><path class="c" d="M112.726,223.478H86.868A2.872,2.872,0,0,1,84,220.61V184.868A2.872,2.872,0,0,1,86.868,182h25.858a2.872,2.872,0,0,1,2.868,2.868V220.61A2.872,2.872,0,0,1,112.726,223.478ZM86.868,183.5a1.37,1.37,0,0,0-1.368,1.368V220.61a1.37,1.37,0,0,0,1.368,1.368h25.858a1.37,1.37,0,0,0,1.368-1.368V184.868a1.37,1.37,0,0,0-1.368-1.368Z" transform="translate(-84 -182)"/><g transform="translate(5.295 18.533)"><path class="c" d="M132.136,304.65H116.868A2.871,2.871,0,0,1,114,301.782V289.868A2.871,2.871,0,0,1,116.868,287h15.268A2.871,2.871,0,0,1,135,289.868v11.914A2.871,2.871,0,0,1,132.136,304.65ZM116.868,288.5a1.37,1.37,0,0,0-1.368,1.368v11.914a1.37,1.37,0,0,0,1.368,1.368h15.268a1.37,1.37,0,0,0,1.368-1.368V289.868a1.37,1.37,0,0,0-1.368-1.368Z" transform="translate(-114 -287)"/></g><g transform="translate(5.295 5.295)"><path class="c" d="M124.59,223.328a1.76,1.76,0,0,1-.328-.031l-8.825-1.67A1.765,1.765,0,0,1,114,219.892v-6.127A1.765,1.765,0,0,1,115.765,212h17.65a1.765,1.765,0,0,1,1.765,1.765v6.127a1.765,1.765,0,0,1-1.437,1.734l-8.825,1.67A1.76,1.76,0,0,1,124.59,223.328Zm-8.825-9.828a.265.265,0,0,0-.265.265v6.127a.265.265,0,0,0,.216.26l8.825,1.67a.264.264,0,0,0,.1,0l8.825-1.67a.265.265,0,0,0,.216-.26v-6.127a.265.265,0,0,0-.265-.265Z" transform="translate(-114 -212)"/></g><g transform="translate(11.782 19.566)"><rect class="c" width="1.5" height="15.633"/></g><g transform="translate(5.292 24.048)"><rect class="c" width="20.386" height="1.5" transform="matrix(1, -0.004, 0.004, 1, 0, 0.089)"/></g><g transform="translate(18.312 19.566)"><rect class="c" width="1.5" height="15.633"/></g></g><g transform="translate(25.019)"><path class="c" d="M251.211,183.2H234.358a.75.75,0,0,1,0-1.5h16.809V149.1a.75.75,0,0,1,1.5,0v32.645A1.458,1.458,0,0,1,251.211,183.2ZM226.5,149.57a.75.75,0,0,1-.75-.75v-3.614a1.458,1.458,0,0,1,1.456-1.456h20.632a.75.75,0,1,1,0,1.5H227.25v3.57A.75.75,0,0,1,226.5,149.57Z" transform="translate(-225.75 -143.75)"/><g transform="translate(12.709 0.66)"><rect class="c" width="38.037" height="1.5" transform="matrix(0.002, -1, 1, 0.002, 0, 38.037)"/></g><g transform="translate(13.811 11.296)"><rect class="c" width="12.355" height="1.5"/></g><g transform="translate(7.678 26.74)"><path class="c" d="M287.739,296.75H270a.75.75,0,1,1,0-1.5h17.739a.75.75,0,0,1,0,1.5Z" transform="translate(-269.25 -295.25)"/></g></g><g transform="translate(5.8 35.72)"><rect class="c" width="13.547" height="1.5" transform="translate(0 0.044) rotate(-0.184)"/></g></g><g transform="translate(126.594 91)"><path class="c" d="M358.532,112.738H347.765a3.269,3.269,0,0,1-3.265-3.265V98h3v11.473a.265.265,0,0,0,.265.265h10.767Z" transform="translate(-344.5 -98)"/></g></g></svg>