<svg xmlns="http://www.w3.org/2000/svg" width="71.111" height="70.75" viewBox="0 0 71.111 70.75"><defs><style>.a,.c{fill:#d4f3e2;}.a,.d{fill-rule:evenodd;}.b,.d{fill:#1392f8;}</style></defs><g transform="translate(-42 -50.75)"><g transform="translate(42 57.902)"><g transform="translate(0 24.018)"><path class="a" d="M56.487,262.064c8.623-5.9,15.378-5.155,15.378-17.075s-7.633-25.6-14.516-19.474S42,231.724,42,243.645,47.864,267.963,56.487,262.064Z" transform="translate(-42 -224)"/></g><g transform="translate(47.497 15.562)"><path class="a" d="M313.049,191.747c5.149-1.821,7.859-3.641,8.22-7.191s-3.63-7.556-8.22-7.556-5.239,3.641-6.685,8.648S307.9,193.568,313.049,191.747Z" transform="translate(-306 -177)"/></g><g transform="translate(17.362)"><path class="b" d="M164.428,150.771H144.236a5.743,5.743,0,0,1-5.736-5.736V101.955a1.529,1.529,0,0,1,3.059,0v43.079a2.681,2.681,0,0,0,2.677,2.678h20.192a2.681,2.681,0,0,0,2.678-2.678V133.872a1.529,1.529,0,0,1,3.059,0v11.162A5.743,5.743,0,0,1,164.428,150.771Zm4.207-44.51a1.529,1.529,0,0,1-1.529-1.529v-8.5a2.681,2.681,0,0,0-2.678-2.677H151.743a1.529,1.529,0,0,1,0-3.059h12.685a5.743,5.743,0,0,1,5.736,5.736v8.5A1.529,1.529,0,0,1,168.635,106.261Z" transform="translate(-138.5 -90.5)"/></g><g transform="translate(19.248 6.936)"><g transform="translate(5.69)"><path class="b" d="M202.723,130.616h0l-21.344-.036a.765.765,0,0,1,0-1.529h0l21.344.036a.765.765,0,0,1,0,1.529Z" transform="translate(-180.615 -129.051)"/></g><g transform="translate(0 40.851)"><rect class="b" width="28.365" height="1.529" transform="translate(0 0.085) rotate(-0.171)"/></g></g><g transform="translate(21.85 15.023)"><path class="b" d="M174.3,175.529H164.216a.765.765,0,0,1,0-1.529H174.3a.765.765,0,0,1,0,1.529Z" transform="translate(-163.451 -174)"/></g><g transform="translate(21.85 20.96)"><path class="b" d="M174.3,208.574h0l-10.087-.045a.765.765,0,0,1,0-1.529h0l10.087.045a.765.765,0,0,1,0,1.529Z" transform="translate(-163.451 -207)"/></g><g transform="translate(21.85 38.231)"><path class="b" d="M174.97,304.574h0l-10.759-.045a.765.765,0,0,1,0-1.529h0l10.76.045a.765.765,0,0,1,0,1.529Z" transform="translate(-163.446 -303)"/></g><g transform="translate(21.842 44.168)"><path class="b" d="M166.533,337.563h-.011l-2.361-.034a.765.765,0,0,1,.022-1.529l2.361.034a.765.765,0,0,1-.011,1.529Z" transform="translate(-163.407 -336)"/></g><g transform="translate(27.607 44.168)"><path class="b" d="M201.575,337.574h-.007l-5.361-.045a.765.765,0,0,1,.006-1.529h.007l5.362.045a.765.765,0,0,1-.006,1.529Z" transform="translate(-195.449 -336)"/></g><g transform="translate(21.848 32.294)"><path class="b" d="M170.155,271.552h0l-5.952-.022a.765.765,0,0,1,0-1.529h0l5.952.022a.765.765,0,0,1,0,1.529Z" transform="translate(-163.439 -270)"/></g><g transform="translate(30.36 32.317)"><path class="b" d="M213.314,271.654h-1.8a.765.765,0,0,1,0-1.529h1.8a.765.765,0,0,1,0,1.529Z" transform="translate(-210.75 -270.125)"/></g><g transform="translate(21.842 26.897)"><path class="b" d="M166.532,241.552h-.007l-2.361-.022A.765.765,0,0,1,164.17,240h.008l2.361.022a.765.765,0,0,1-.007,1.529Z" transform="translate(-163.406 -240)"/></g><g transform="translate(27.431 26.897)"><path class="b" d="M199.242,241.552h0l-4.009-.022a.765.765,0,0,1,0-1.529h0l4.009.022a.765.765,0,0,1,0,1.529Z" transform="translate(-194.469 -240)"/></g><g transform="translate(29.94 4.228)"><path class="b" d="M211.756,115.529h-2.58a.765.765,0,1,1,0-1.529h2.58a.765.765,0,0,1,0,1.529Z" transform="translate(-208.412 -114)"/></g><g transform="translate(35.083 4.228)"><circle class="b" cx="0.72" cy="0.72" r="0.72"/></g><g transform="translate(30.72 51.32)"><path class="b" d="M215.224,380.7a2.474,2.474,0,1,1,2.474-2.474A2.477,2.477,0,0,1,215.224,380.7Zm0-3.418a.945.945,0,1,0,.945.945A.946.946,0,0,0,215.224,377.279Z" transform="translate(-212.75 -375.75)"/></g></g><g transform="translate(78.432 70.046)"><g transform="translate(21.64 18.19)"><path class="b" d="M368.117,265.682a3.4,3.4,0,0,1-.412-.025,3.287,3.287,0,1,1,.8-6.524h0a3.285,3.285,0,0,1-.389,6.549Zm-.022-5.045a1.8,1.8,0,1,0,.224.014A1.817,1.817,0,0,0,368.1,260.637Z" transform="translate(-364.782 -259.108)"/></g><g transform="translate(24.734 18.176)"><ellipse class="c" cx="2.522" cy="2.495" rx="2.522" ry="2.495" transform="translate(0.477 5.485) rotate(-83)"/><path class="b" d="M385.241,265.6a3.285,3.285,0,1,1,.4-6.548h0a3.292,3.292,0,0,1,1.608,5.847A3.226,3.226,0,0,1,385.241,265.6Zm.005-5.043a1.759,1.759,0,0,0-.22,3.5,1.7,1.7,0,0,0,1.274-.359,1.763,1.763,0,0,0-.846-3.129h0A1.715,1.715,0,0,0,385.246,260.557Z" transform="translate(-381.98 -259.028)"/></g><g transform="translate(5.128 19.791)"><path class="d" d="M273.539,268h6.478a.539.539,0,0,1,.539.539h0a.539.539,0,0,1-.539.539h-6.478a.539.539,0,0,1-.539-.539h0A.539.539,0,0,1,273.539,268Z" transform="translate(-273 -268.001)"/></g><g transform="translate(5.128 22.309)"><path class="d" d="M273.54,282H276.6a.539.539,0,0,1,.539.539h0a.539.539,0,0,1-.539.539H273.54a.539.539,0,0,1-.539-.539h0A.539.539,0,0,1,273.54,282Z" transform="translate(-273.001 -282.001)"/></g><g transform="translate(2.249 14.033)"><path class="d" d="M257,236.006,288.3,236v1.074l-31.3.006Z" transform="translate(-257 -236)"/></g><g transform="translate(1.889 10.255)"><path class="d" d="M255,215.006,286.3,215v1.074l-31.3.006Z" transform="translate(-255 -215)"/></g><g transform="translate(0.764 5.173)"><path class="b" d="M248.749,210.232l0-23.473,28.287-.005a5.62,5.62,0,0,1,5.623,5.619v.543h0l0,11.687a5.636,5.636,0,0,1-5.622,5.623Zm1.533-21.944,0,20.414,26.758,0a4.1,4.1,0,0,0,4.094-4.095l0-12.349a4.09,4.09,0,0,0-4.088-3.97h0Z" transform="translate(-248.749 -186.755)"/></g><g transform="translate(0 0)"><path class="b" d="M246.029,191.323h0a1.529,1.529,0,0,1-1.525-1.534l.09-30.264A1.529,1.529,0,0,1,246.119,158h0a1.529,1.529,0,0,1,1.525,1.534l-.09,30.265A1.529,1.529,0,0,1,246.029,191.323Z" transform="translate(-244.5 -158)"/></g></g><g transform="translate(56.081 56.147)"><path class="b" d="M123.384,86.6a.764.764,0,0,1-.552-.235l-2.355-2.455a.765.765,0,0,1,1.1-1.059l1.8,1.88,3.59-3.743a.765.765,0,1,1,1.1,1.059l-4.142,4.318A.764.764,0,0,1,123.384,86.6Z" transform="translate(-120.264 -80.751)"/></g><g transform="translate(52.182 50.75)"><path class="b" d="M106.508,66.492a7.871,7.871,0,1,1,7.912-7.871A7.9,7.9,0,0,1,106.508,66.492Zm0-14.213a6.342,6.342,0,1,0,6.382,6.342A6.369,6.369,0,0,0,106.508,52.279Z" transform="translate(-98.596 -50.75)"/></g></g></svg>