<?xml version="1.0" encoding="UTF-8" standalone="no" ?>
<!DOCTYPE svg PUBLIC "-//W3C//DTD SVG 1.1//EN" "http://www.w3.org/Graphics/SVG/1.1/DTD/svg11.dtd">
<svg xmlns="http://www.w3.org/2000/svg" xmlns:xlink="http://www.w3.org/1999/xlink" version="1.1" width="60" height="60" viewBox="0 0 60 60" xml:space="preserve">
<desc>Created with Fabric.js 4.2.0</desc>
<defs>
</defs>
<g transform="matrix(0 0 0 0 0 0)" id="55deec57-d930-4b97-ab25-2d6c398371a8"  >
</g>
<g transform="matrix(1 0 0 1 30 30)" id="5b57afe0-d261-4aab-8b09-7b1d5008d32a"  >
<rect style="stroke: none; stroke-width: 1; stroke-dasharray: none; stroke-linecap: butt; stroke-dashoffset: 0; stroke-linejoin: miter; stroke-miterlimit: 4; fill: rgb(255,255,255); fill-rule: nonzero; opacity: 1; visibility: hidden;" vector-effect="non-scaling-stroke"  x="-30" y="-30" rx="0" ry="0" width="60" height="60" />
</g>
<g transform="matrix(1 0 0 1 30 30)" id="Path_2362"  >
<path style="stroke: rgb(0,0,0); stroke-width: 0; stroke-dasharray: none; stroke-linecap: butt; stroke-dashoffset: 0; stroke-linejoin: miter; stroke-miterlimit: 4; fill: rgb(163,163,163); fill-rule: nonzero; opacity: 1;" vector-effect="non-scaling-stroke"  transform=" translate(-143.47, -18.42)" d="M 143.085 16.191 C 143.60883684685766 14.298686922892827 144.56766789066663 12.554984181794513 145.88500000000002 11.099000000000004 C 146.64900000000003 10.208 147.15800000000002 9.953 146.64900000000003 10.972 L 147.41300000000004 10.463 C 148.68600000000004 9.825999999999999 148.68600000000004 10.335999999999999 147.66800000000003 10.972 C 150.08700000000005 10.081 150.08700000000005 11.227 147.41300000000004 11.735999999999999 C 149.84457940699005 11.807784247881274 151.90409118865892 13.549969440833795 152.37800000000004 15.935999999999996 C 152.50500000000005 16.318 152.37800000000004 16.318 152.76000000000005 16.318 C 153.6057076305265 16.492217855449713 154.48182814357554 16.448515064735957 155.30600000000004 16.191000000000003 C 155.17900000000003 16.828000000000003 154.41500000000005 17.209000000000003 153.26900000000003 17.464000000000002 C 152.12300000000002 17.719 152.76000000000005 17.591 153.26900000000003 17.719 L 155.43300000000002 17.719 C 154.70622053931842 18.483433498658066 153.68718498591628 18.900510193014803 152.633 18.865000000000002 C 151.9467840674102 21.419285718101385 150.2447899504429 23.58128801148044 147.923 24.848000000000003 C 142.703 27.776000000000003 135.193 27.394000000000002 131.501 22.048000000000002 C 134.10271849977335 24.30367357942914 138.01286562749826 24.13605196538011 140.412 21.666 C 138.63 21.666 138.12 20.393 139.52100000000002 19.629 C 138.48985685862428 19.74778580336164 137.47289140752483 19.31178041355245 136.848 18.483 C 136.721 18.228 136.59300000000002 18.228 136.97500000000002 17.974 C 137.3580269864337 17.73620240168103 137.79732919521646 17.60437722983891 138.24800000000002 17.592 C 137.10056380724956 17.4070790470351 136.13418357252513 16.633898945647168 135.70200000000003 15.555 C 135.57500000000002 15.173 135.57500000000002 15.299999999999999 135.95700000000002 15.173 L 137.1 15.173 C 136.14111371328772 14.683688171392216 135.44355184369118 13.800231541782757 135.19 12.754 C 135.063 11.863 135.19 12.116999999999999 135.827 12.372 C 138.627 13.39 141.427 14.663 143.083 16.318" stroke-linecap="round" />
</g>
</svg>